<?xml version="1.0" standalone="no"?>
<!DOCTYPE svg PUBLIC "-//W3C//DTD SVG 1.1//EN" "http://www.w3.org/Graphics/SVG/1.1/DTD/svg11.dtd">
<svg xmlns="http://www.w3.org/2000/svg">
<metadata>Generated by Fontastic.me</metadata>
<defs>
<font id="volunteering-wales" horiz-adv-x="512">
<font-face font-family="volunteering-wales" units-per-em="512" ascent="480" descent="-32"/>
<missing-glyph horiz-adv-x="512" />

<glyph glyph-name="act" unicode="&#97;" d="M256 512c-79-1-156-23-224-64l0-224c0-59 24-116 66-158 42-42 99-66 158-66 59 0 116 24 158 66 42 42 66 99 66 158l0 224c-68 41-145 63-224 64z m-128-160c0 6 2 13 5 18 4 5 9 9 15 12 6 2 12 3 18 1 6-1 12-4 17-8 4-5 7-11 8-17 2-6 1-12-1-18-3-6-7-11-12-15-5-3-12-5-18-5-8 0-17 3-23 9-6 6-9 15-9 23z m128-224c-25 0-50 10-68 28-18 18-28 43-28 68l192 0c0-25-10-50-28-68-18-18-43-28-68-28z m96 192c-6 0-13 2-18 5-5 4-9 9-12 15-2 6-3 12-1 18 1 6 4 12 8 17 5 4 11 7 17 8 6 2 12 1 18-1 6-3 11-7 15-12 3-5 5-12 5-18 0-8-3-17-9-23-6-6-15-9-23-9z"/>
<glyph glyph-name="add" unicode="&#98;" d="M256 512c-141 0-256-115-256-256 0-141 115-256 256-256 141 0 256 115 256 256 0 141-115 256-256 256z m128-288l-96 0 0-96-64 0 0 96-96 0 0 64 96 0 0 96 64 0 0-96 96 0z"/>
<glyph glyph-name="arrow-left" unicode="&#99;" d="M-21 256c0 24 19 43 42 43l470 0c23 0 42-19 42-43 0-24-19-43-42-43l-470 0c-23 0-42 19-42 43z m243 201c17-17 17-44 0-61l-140-140 140-140c17-17 17-44 0-61-16-16-44-16-60 0l-171 171c-17 16-17 44 0 60l171 171c16 16 44 16 60 0z"/>
<glyph glyph-name="arrow-right" unicode="&#100;" d="M533 256c0 24-19 43-42 43l-470 0c-23 0-42-19-42-43 0-24 19-43 42-43l470 0c23 0 42 19 42 43z m-243 201c-17-17-17-44 0-61l140-140-140-140c-17-17-17-44 0-61 16-16 44-16 60 0l171 171c16 16 16 44 0 60l-171 171c-16 16-44 16-60 0z"/>
<glyph glyph-name="copy" unicode="&#101;" d="M448 384l-384 0c-19 0-32-13-32-32l0-320c0-19 13-32 32-32l384 0c19 0 32 13 32 32l0 320c0 19-13 32-32 32z m-32 128l-320 0 0-64 320 0z"/>
<glyph glyph-name="date" unicode="&#102;" d="M480 448l-64 0 0 64-96 0 0-64-128 0 0 64-96 0 0-64-64 0c-18 0-32-14-32-32l0-384c0-18 14-32 32-32l448 0c18 0 32 14 32 32l0 384c0 18-14 32-32 32z m-32-384l-384 0 0 288 384 0z m-256 224l-64 0 0-64 64 0z m96 0l-64 0 0-64 64 0z m-96-96l-64 0 0-64 64 0z m96 0l-64 0 0-64 64 0z m96 96l-64 0 0-64 64 0z m0-96l-64 0 0-64 64 0z"/>
<glyph glyph-name="delete" unicode="&#103;" d="M341 512l-170 0 0-85-128 0 0-86 426 0 0 86-128 0z m0-427l-170 0 0 171-86 0 0-213c0-12 5-23 13-31 8-8 19-12 30-12l256 0c11 0 22 4 30 12 8 8 13 19 13 31l0 213-86 0z"/>
<glyph glyph-name="down" unicode="&#104;" d="M484 378c-2 2-4 3-6 4-3 1-6 2-9 2-2 0-5-1-8-2-2-1-5-2-7-4l-198-199-198 199c-2 2-5 3-7 4-3 1-6 2-8 2-3 0-6-1-9-2-2-1-4-2-6-4l-22-22c-2-2-3-4-4-6-1-3-2-6-2-9 0-2 1-5 2-8 1-2 2-5 4-7l235-234c2-2 4-4 7-5 2-1 5-2 8-2 3 0 6 1 8 2 3 1 5 3 7 5l235 234c2 2 3 5 4 7 1 3 2 6 2 8 0 3-1 6-2 9-1 2-2 4-4 6z"/>
<glyph glyph-name="edit" unicode="&#105;" d="M500 432l-68 67c-8 8-19 13-30 13-12 0-22-5-30-13l-58-57 128-128 58 57c8 8 12 19 12 31 0 11-4 22-12 30z m-216-20l-241-241-43-171 171 43 241 241z"/>
<glyph glyph-name="email" unicode="&#106;" d="M287 178c-10-5-20-7-31-7-11 0-21 2-31 7l-225 123 0-194c0-17 7-34 19-46 12-12 28-18 45-18l384 0c17 0 33 6 45 18 12 12 19 29 19 46l0 194z m-31 35c-4 0-7 1-10 3l-235 128c-3 2-6 4-8 8-2 3-3 7-3 11l0 42c0 17 7 34 19 46 12 12 28 18 45 18l384 0c17 0 33-6 45-18 12-12 19-29 19-46l0-42c0-4-1-8-3-11-2-4-5-6-8-8l-235-128c-3-2-6-3-10-3z"/>
<glyph glyph-name="facebook" unicode="&#107;" d="M193 0l-1 224-96 0 0 96 96 0 0 64c0 86 53 128 131 128 36 0 68-3 77-4l0-90-53 0c-42 0-50-20-50-49l0-49 119 0-32-96-87 0 0-224z"/>
<glyph glyph-name="facebook-bg" unicode="&#108;" d="M512 256c0 49-14 97-40 138-27 41-64 74-109 94-44 21-94 28-142 22-49-7-94-28-131-59-37-32-65-74-79-121-14-47-15-96-1-144 13-47 39-89 76-121 37-33 82-54 130-62l0 179-65 0 0 74 65 0 0 56c0 65 38 100 97 100 19 0 38-2 57-5l0-63-32 0c-6 1-11 0-17-2-5-1-10-4-14-8-4-4-7-9-9-14-2-5-2-10-2-16l0-48 71 0-11-74-60 0 0-179c60 10 115 40 155 87 39 46 61 105 61 166z"/>
<glyph glyph-name="file" unicode="&#109;" d="M457 371l-128 128c-8 8-19 13-30 13l-214 0c-11 0-22-4-30-12-8-9-12-19-12-31l0-426c0-12 4-23 12-31 8-8 19-12 30-12l342 0c11 0 22 4 30 12 8 8 12 19 12 31l0 298c0 12-4 22-12 30z m-329-286l0 342 128 0 0-128 128 0 0-214z"/>
<glyph glyph-name="filter" unicode="&#110;" d="M-16 511c7 14 22 22 37 22l470 0c15 0 30-8 37-22 8-14 7-31-2-44l-163-245 0-201c0-23-19-42-43-42l-128 0c-24 0-43 19-43 42l0 201-163 245c-9 13-10 30-2 44z m117-63l127-190c4-7 7-15 7-23l0-171 42 0 0 171c0 8 3 16 8 23l126 190z"/>
<glyph glyph-name="google" unicode="&#111;" d="M256 288l0-77 131 0c-6-32-38-96-128-96-77 0-137 64-137 141 0 77 64 141 137 141 45 0 74-19 90-35l61 57c-39 39-90 61-151 61-125 0-224-99-224-224 0-125 99-224 224-224 128 0 215 90 215 218 0 16 0 25-4 38z"/>
<glyph glyph-name="image" unicode="&#112;" d="M107 320c35 0 64 29 64 64 0 35-29 64-64 64-36 0-64-29-64-64 0-35 28-64 64-64z m402-245l-170 298c-2 3-5 6-8 8-4 2-7 3-11 3-4 0-7-1-11-3-3-2-6-5-7-8l-113-207-66 82c-2 3-5 5-8 6-3 2-7 2-11 2-3 0-7-2-9-4-3-2-6-4-7-8l-86-170c-1-4-2-7-2-11 0-4 1-7 3-10 2-3 5-6 8-8 3-1 7-2 10-2l470 0c3 0 7 1 10 3 4 1 6 4 8 7 2 4 3 7 3 11 0 4-1 7-3 11z"/>
<glyph glyph-name="language" unicode="&#113;" d="M458 291c0 4 0 9 0 13 0 115-93 208-208 208-114 0-207-93-207-208 0-101 72-185 168-204 0 0 0 0 0 0-24-63-91-88-122-92 0 0 46-23 168 9 138 37 198 198 201 274z"/>
<glyph glyph-name="link-arrow" unicode="&#114;" d="M512 256c0 12-10 21-21 21l-470 0c-11 0-21-9-21-21 0-12 10-21 21-21l470 0c11 0 21 9 21 21z m-207 186c-8-9-8-22 0-30l155-156-155-156c-8-8-8-21 0-30 8-8 22-8 30 0l171 171c8 8 8 22 0 30l-171 171c-8 8-22 8-30 0z"/>
<glyph glyph-name="linkedin" unicode="&#115;" d="M464 496l-416 0c-8 0-17-3-23-9-6-6-9-15-9-23l0-416c0-8 3-17 9-23 6-6 15-9 23-9l416 0c8 0 17 3 23 9 6 6 9 15 9 23l0 416c0 8-3 17-9 23-6 6-15 9-23 9z m-306-410l-72 0 0 230 72 0z m-36 262c-8 0-16 2-23 7-7 4-12 11-16 19-3 7-4 16-2 24 2 8 6 15 12 21 5 6 13 10 21 12 8 1 17 0 24-3 8-3 15-8 19-15 5-7 7-15 7-23 0-6-1-11-3-17-2-5-5-9-9-13-4-4-9-7-14-9-5-2-10-4-16-3z m304-262l-71 0 0 112c0 26 0 60-37 60-38 0-43-29-43-59l0-114-70 0 0 231 66 0 0-32 1 0c7 12 17 22 29 29 12 6 26 9 39 9 72 0 86-48 86-110z"/>
<glyph glyph-name="opportunity" unicode="&#118;" d="M171 469l-171 0 0-170 171 0z m341-42l-256 0 0-86 256 0z m-341-214l-171 0 0-170 171 0z m341-42l-256 0 0-86 256 0z"/>
<glyph glyph-name="search" unicode="&#119;" d="M319 193c8 8 22 8 30 0l135-135c9-9 9-22 0-30-8-9-21-9-30 0l-135 135c-8 8-8 22 0 30z m-106 255c-82 0-149-67-149-149 0-83 67-150 149-150 83 0 150 67 150 150 0 82-67 149-150 149z m-192-149c0 106 86 192 192 192 106 0 192-86 192-192 0-106-86-192-192-192-106 0-192 86-192 192z"/>
<glyph glyph-name="sort" unicode="&#120;" d="M286 499c-8 8-19 13-30 13-11 0-22-5-30-13l-128-128c-8-8-12-18-12-30 0-11 4-21 12-29 8-8 19-13 30-13 11 0 22 4 30 12l98 98 98-98c8-8 19-12 30-12 11 0 22 5 30 13 8 8 12 18 12 29 0 12-4 22-12 30z m68-298l-98-98-98 98c-4 4-8 7-14 9-5 3-10 4-16 4-6 0-11-1-17-3-5-2-10-6-14-10-4-4-7-8-9-14-2-5-3-11-3-16 0-6 1-11 3-17 3-5 6-10 10-14l128-128c8-8 19-12 30-12 11 0 22 4 30 12l128 128c4 4 7 9 10 14 2 6 3 11 3 17 0 5-1 11-3 16-2 6-5 10-9 14-4 4-9 8-14 10-6 2-11 3-17 3-6 0-11-1-16-4-6-2-10-5-14-9z"/>
<glyph glyph-name="star" unicode="&#121;" d="M494 330l-151 22-68 137c-2 3-5 6-8 8-3 2-7 3-11 3-4 0-8-1-11-3-4-2-6-5-8-8l-68-137-151-22c-4-1-7-2-10-5-3-3-6-6-7-10-1-3-1-8 0-11 1-4 3-8 5-11l110-106-26-151c-1-4 0-8 1-11 2-4 4-7 7-10 4-2 7-3 11-4 4 0 8 1 12 3l135 71 135-71c3-2 7-3 10-2 3 0 6 0 9 1 3 2 5 4 7 6 2 2 4 5 5 8 0 3 1 6 0 9l-26 151 110 107c2 2 4 6 5 10 1 4 1 8 0 11-1 4-4 8-7 10-3 3-6 4-10 5z"/>
<glyph glyph-name="tag" unicode="&#122;" d="M274 0c-12 0-23 2-33 6-10 5-20 11-28 19l-200 201c-8 8-13 19-13 30l0 213c0 12 4 22 12 31 9 8 19 12 31 12l213 0c11 0 22-5 30-13l201-200c8-8 14-18 19-28 4-10 6-21 6-33 0-11-2-22-6-32-5-11-11-20-19-28l-153-153c-8-8-17-14-28-19-10-4-21-6-32-6z m-189 274l189-189 153 153-189 189-153 0z m86 25c23 0 42 19 42 42 0 24-19 43-42 43-24 0-43-19-43-43 0-23 19-42 43-42z"/>
<glyph glyph-name="time" unicode="&#65;" d="M256 373c18 0 32-14 32-32l0-53 53 0c18 0 32-14 32-32 0-18-14-32-32-32l-85 0c-18 0-32 14-32 32l0 85c0 18 14 32 32 32z m0-288c94 0 171 77 171 171 0 94-77 171-171 171-94 0-171-77-171-171 0-94 77-171 171-171z m235 171c0-130-105-235-235-235-130 0-235 105-235 235 0 130 105 235 235 235 130 0 235-105 235-235z"/>
<glyph glyph-name="twitter" unicode="&#66;" d="M512 414c-19-8-38-14-61-16 23 13 39 34 47 58-21-13-44-21-68-26-19 21-46 34-75 34-57 0-105-46-105-106 0-8 1-16 3-24-88 5-165 47-218 111-9-16-14-34-14-53 0-37 19-69 46-88-17 0-33 5-48 13l0-2c0-51 37-93 85-102-10-2-18-3-27-3-7 0-13 0-19 1 12-41 52-72 97-73-35-29-81-45-131-45-8 0-18 0-26 1 48-28 104-46 164-46 193 0 299 160 299 299 0 5 0 10 0 13 19 16 37 34 51 54z"/>
<glyph glyph-name="user" unicode="&#67;" d="M256 256c71 0 128 57 128 128 0 71-57 128-128 128-71 0-128-57-128-128 0-71 57-128 128-128z m0-43c-144 0-213-90-213-142l0-28c0-12 4-23 12-31 8-8 19-12 30-12l342 0c11 0 22 4 30 12 8 8 12 19 12 31l0 28c0 52-69 142-213 142z"/>
<glyph glyph-name="w3w" unicode="&#69;" d="M224 144c-3 0-5 1-8 2-2 1-4 3-5 5-2 2-3 4-3 7-1 2 0 5 1 7l64 192c1 4 4 8 8 10 3 2 8 2 12 1 4-2 7-5 9-8 2-4 2-9 1-13l-64-192c-1-3-3-6-6-8-3-2-6-3-9-3z m-96 0c-3 0-6 1-8 2-2 1-4 3-5 5-2 2-3 4-3 7-1 2 0 5 0 7l64 192c2 4 5 8 8 10 4 2 9 2 13 1 4-2 7-5 9-8 2-4 2-9 1-13l-64-192c-1-3-3-6-6-8-3-2-6-3-9-3z m192 0c-3 0-5 1-7 2-3 1-5 3-6 5-2 2-3 4-3 7 0 2 0 5 1 7l64 192c1 5 4 8 8 10 4 2 8 2 12 1 4-2 7-5 9-8 2-4 3-9 1-13l-64-192c-1-3-3-6-6-8-2-2-6-3-9-3z"/>
<glyph glyph-name="whatsapp" unicode="&#70;" d="M1 0l36 131c-22 39-34 83-34 127 0 140 114 254 254 254 68 0 132-26 180-74 48-48 74-112 74-180 0-140-114-254-254-254l0 0c-43 0-84 11-121 31z m141 81l8-4c32-20 69-30 107-30l0 0c116 0 211 95 211 211 0 56-22 109-62 149-40 40-93 62-149 62-116 0-211-94-211-211 0-40 11-78 32-112l5-8-21-78z m52 283c-6 13-11 11-15 11-3 0-8 0-12 0-4 0-11-1-17-7-5-7-22-22-22-53 0-32 23-62 26-66 3-4 45-68 108-96 15-6 27-10 36-13 16-5 30-4 40-3 13 2 38 16 43 31 6 14 6 27 4 30-2 2-6 4-12 7-7 3-38 19-44 21-5 2-10 3-14-3-4-7-16-21-20-25-4-4-7-5-14-2-6 3-26 10-51 32-18 16-31 37-35 44-4 6 0 9 3 13 3 2 6 7 9 11 4 3 5 6 7 10 2 4 1 8-1 11-1 3-14 35-19 47z"/>
<glyph glyph-name="share" unicode="&#71;" d="M188 256c0-2 0-3 0-5l165-82c14 12 32 19 52 19 45 0 81-36 81-81 0-45-36-81-81-81-45 0-81 36-81 81 0 2 0 3 0 5l-165 82c-14-12-32-19-52-19-45 0-81 36-81 81 0 45 36 81 81 81 20 0 38-7 52-19l165 82c0 2 0 4 0 5 0 45 36 81 81 81 45 0 81-36 81-81 0-45-36-81-81-81-20 0-38 7-52 19l-165-82c0-2 0-3 0-5z"/>
<glyph glyph-name="view" unicode="&#116;" d="M256 64c115 0 205 99 243 157 16 22 16 51 0 73-38 55-128 154-243 154-115 0-205-99-243-157-16-22-16-51 0-70 38-58 128-157 243-157z m0 288c54 0 96-42 96-96 0-54-42-96-96-96-54 0-96 42-96 96 0 54 42 96 96 96z"/>
<glyph glyph-name="map-pin" unicode="&#117;" d="M144 174l0-1c0 1 2-1 7-5 3-3 7-7 13-12 12-12 29-26 45-41 3-3 6-6 10-9 12-11 25-23 36-32 3 3 6 6 10 9 11 10 24 21 36 32 16 15 33 29 45 40l0 1 20 19c30 28 47 68 47 113l0 1 0 1c2 88-67 158-157 158-89 0-160-71-160-160 0-45 16-85 47-113z m112 338c-125 0-224-99-224-224 0-61 22-118 67-160 2-2 35-31 67-61 33-29 66-59 68-61 12-9 32-9 41 0 1 1 10 9 23 21 38 34 112 99 112 101 44 42 67 99 67 160 3 125-96 224-221 224z"/>
</font>
</defs>
</svg>
