<svg width="270" height="90" viewBox="0 0 270 90" fill="none" xmlns="http://www.w3.org/2000/svg">
<path d="M55.9469 90L47.9313 89.787L40.217 81.0543L35.5086 80.9431L29.0097 82.2955L27.6518 80.1015L29.5904 77.1203L25.3436 76.081L23.9586 72.6438L8.3689 78.9037L5.73609 75.4581L3.03037 75.6137L3.04885 73.6366L6.04259 70.0779L5.17126 67.8401L0 67.4188L9.31216 61.8062L25.2981 55.1634L33.4096 48.3139L34.8375 33.9713L31.6336 23.2459L24.5448 25.9864L23.9919 29.3125L21.5983 27.1439L16.9641 28.0242L33.1295 11.3176L54.4622 5.62393L65.0726 12.0094L70.1475 21.9155L67.3468 24.1166L61.9189 22.7508L59.5506 30.1364L62.7324 40.536L57.0769 46.7101L61.5355 49.3058L58.7189 61.5138L62.518 67.6976L70.3636 70.5429L69.0443 81.7567L60.5615 85.5045L55.9469 90Z" fill="#EAF0F6"/>
<path d="M26.1483 22.4941L34.5462 16.0332L42.023 22.3158L42.1405 22.1729L34.5515 15.7958L26.0371 22.3462" fill="#1D1D1B"/>
<path d="M54.8993 19.8661L41.95 22.1736L47.5076 34.891L39.3565 49.5668L37.4445 64.4366L18.391 66.6743L8.37938 66.0477L8.36816 66.233L18.3959 66.8603L37.6082 64.6042L39.534 49.6262L47.7128 34.9011L42.213 22.3151L54.9309 20.049" fill="#1D1D1B"/>
<path d="M10.0383 74.9493L18.4574 66.8346L18.3307 66.7L9.91162 74.8148" fill="#1D1D1B"/>
<path d="M32.0724 78.9711L42.1048 76.3204L42.0586 76.1408L32.0259 78.7915" fill="#1D1D1B"/>
<path d="M52.8556 65.6331L64.0701 74.5153L52.9067 81.6719L42.227 76.2009L52.0093 64.524L41.2019 49.7284L55.8331 52.3391L47.6935 34.8563L47.5272 34.9354L55.5161 52.094L40.7812 49.4647L51.775 64.5164L41.9367 76.2603L52.9169 81.8853L64.3878 74.5313L52.9684 65.4872" fill="#1D1D1B"/>
<path d="M32.3341 11.2475H29.4493L25.1309 6.07229L25.2292 1.48794L31.6865 0L37.7937 5.80455L32.3341 11.2475Z" fill="#EAF0F6"/>
<path d="M37.8074 73.3332C32.9971 74.1785 28.4207 70.9178 27.5853 66.0507C26.7503 61.1833 29.9724 56.5529 34.7827 55.7072C39.5927 54.8623 44.1691 58.1229 45.0048 62.99C45.8398 67.8571 42.6178 72.4882 37.8074 73.3332Z" fill="#D20466"/>
<path d="M52.9118 88.4807C49.2536 88.4807 46.2886 85.4798 46.2886 81.7788C46.2886 78.0775 49.2536 75.0765 52.9118 75.0765C56.5694 75.0765 59.5348 78.0775 59.5348 81.7788C59.5348 85.4798 56.5694 88.4807 52.9118 88.4807Z" fill="#9BB7DD"/>
<path d="M18.3937 72.9296C15.0301 72.9296 12.3032 70.1707 12.3032 66.7675C12.3032 63.3639 15.0301 60.605 18.3937 60.605C21.7573 60.605 24.4838 63.3639 24.4838 66.7675C24.4838 70.1707 21.7573 72.9296 18.3937 72.9296Z" fill="#A0C765"/>
<path d="M26.0922 24.153C25.1466 24.153 24.3799 23.3771 24.3799 22.42C24.3799 21.4632 25.1466 20.6873 26.0922 20.6873C27.0381 20.6873 27.8048 21.4632 27.8048 22.42C27.8048 23.3771 27.0381 24.153 26.0922 24.153Z" fill="#E67B9F"/>
<path d="M42.0815 78.8814C40.6348 78.8814 39.4619 77.6945 39.4619 76.2306C39.4619 74.7664 40.6348 73.5796 42.0815 73.5796C43.5286 73.5796 44.7018 74.7664 44.7018 76.2306C44.7018 77.6945 43.5286 78.8814 42.0815 78.8814Z" fill="#A43F66"/>
<path d="M52.9122 70.3994C50.2708 70.3994 48.1299 68.233 48.1299 65.5603C48.1299 62.8875 50.2708 60.7212 52.9122 60.7212C55.5536 60.7212 57.6944 62.8875 57.6944 65.5603C57.6944 68.233 55.5536 70.3994 52.9122 70.3994Z" fill="#107FA2"/>
<path d="M55.6747 56.0441C53.5853 56.0441 51.8921 54.3301 51.8921 52.2166C51.8921 50.1027 53.5853 48.389 55.6747 48.389C57.7635 48.389 59.4573 50.1027 59.4573 52.2166C59.4573 54.3301 57.7635 56.0441 55.6747 56.0441Z" fill="#9BB7DD"/>
<path d="M64.2287 77.9529C62.1673 77.9529 60.4966 76.2617 60.4966 74.1765C60.4966 72.0906 62.1673 70.3994 64.2287 70.3994C66.2901 70.3994 67.9612 72.0906 67.9612 74.1765C67.9612 76.2617 66.2901 77.9529 64.2287 77.9529Z" fill="#88B825"/>
<path d="M9.97466 76.8345C8.909 76.8345 8.04492 75.9605 8.04492 74.8819C8.04492 73.8039 8.909 72.9296 9.97466 72.9296C11.04 72.9296 11.9041 73.8039 11.9041 74.8819C11.9041 75.9605 11.04 76.8345 9.97466 76.8345Z" fill="#EC690B"/>
<path d="M32.0489 80.4427C31.1967 80.4427 30.5059 79.7437 30.5059 78.8813C30.5059 78.0194 31.1967 77.3199 32.0489 77.3199C32.9011 77.3199 33.592 78.0194 33.592 78.8813C33.592 79.7437 32.9011 80.4427 32.0489 80.4427Z" fill="#88B825"/>
<path d="M8.37391 67.7593C7.48971 67.7593 6.77344 67.0345 6.77344 66.1402C6.77344 65.2455 7.48971 64.5204 8.37391 64.5204C9.25778 64.5204 9.97471 65.2455 9.97471 66.1402C9.97471 67.0345 9.25778 67.7593 8.37391 67.7593Z" fill="#107FA2"/>
<path d="M42.0812 24.4174C40.8955 24.4174 39.9341 23.4442 39.9341 22.2444C39.9341 21.0442 40.8955 20.0714 42.0812 20.0714C43.2677 20.0714 44.2291 21.0442 44.2291 22.2444C44.2291 23.4442 43.2677 24.4174 42.0812 24.4174Z" fill="#FECE21"/>
<path d="M34.6353 15.884L31.0892 5.59323L30.916 5.65432L34.4617 15.9451" fill="#1D1D1B"/>
<path d="M31.0027 8.85954C29.2362 8.85954 27.8047 7.41099 27.8047 5.62392C27.8047 3.83685 29.2362 2.38797 31.0027 2.38797C32.7688 2.38797 34.2003 3.83685 34.2003 5.62392C34.2003 7.41099 32.7688 8.85954 31.0027 8.85954Z" fill="#EB680A"/>
<path d="M34.5485 19.1353C32.7907 19.1353 31.3657 17.6934 31.3657 15.9147C31.3657 14.136 32.7907 12.6938 34.5485 12.6938C36.3064 12.6938 37.7316 14.136 37.7316 15.9147C37.7316 17.6934 36.3064 19.1353 34.5485 19.1353Z" fill="#107FA2"/>
<path d="M54.8332 19.9165L47.5283 34.8547L47.693 34.9371L54.9975 19.9989" fill="#1D1D1B"/>
<path d="M47.6106 45.0997C42.0411 45.0997 37.5264 40.5313 37.5264 34.8961C37.5264 29.2608 42.0411 24.6924 47.6106 24.6924C53.1794 24.6924 57.6941 29.2608 57.6941 34.8961C57.6941 40.5313 53.1794 45.0997 47.6106 45.0997Z" fill="#198BB3"/>
<path d="M65.7614 19.8874L54.2121 9.75558L54.0923 9.8958L65.6413 20.0276" fill="#1D1D1B"/>
<path d="M65.7014 22.2444C64.453 22.2444 63.4414 21.2205 63.4414 19.9575C63.4414 18.6949 64.453 17.671 65.7014 17.671C66.9495 17.671 67.9611 18.6949 67.9611 19.9575C67.9611 21.2205 66.9495 22.2444 65.7014 22.2444Z" fill="#FECE21"/>
<path d="M55.0065 19.9505L54.2342 9.69818L44.376 13.1935L44.437 13.3688L54.0695 9.95324L54.8237 19.9646" fill="#1D1D1B"/>
<path d="M44.4063 16.7369C42.5201 16.7369 40.9912 15.1899 40.9912 13.2813C40.9912 11.3731 42.5201 9.82568 44.4063 9.82568C46.2928 9.82568 47.8213 11.3731 47.8213 13.2813C47.8213 15.1899 46.2928 16.7369 44.4063 16.7369Z" fill="#8F1554"/>
<path d="M54.9152 24.0007C52.7086 24.0007 50.9194 22.1906 50.9194 19.9575C50.9194 17.7248 52.7086 15.9147 54.9152 15.9147C57.122 15.9147 58.9109 17.7248 58.9109 19.9575C58.9109 22.1906 57.122 24.0007 54.9152 24.0007Z" fill="#EB680A"/>
<path d="M54.1518 12.1122C52.9036 12.1122 51.8921 11.0886 51.8921 9.82568C51.8921 8.56275 52.9036 7.53918 54.1518 7.53918C55.4002 7.53918 56.4117 8.56275 56.4117 9.82568C56.4117 11.0886 55.4002 12.1122 54.1518 12.1122Z" fill="#88B825"/>
<path d="M96.2737 28.6555H101.173V35.4535C100.438 35.7028 99.6806 35.8881 98.9008 36.0096C98.1274 36.131 97.2612 36.1918 96.3024 36.1918C94.845 36.1918 93.6146 35.9009 92.611 35.3192C91.6139 34.7376 90.8564 33.9098 90.3386 32.8359C89.8209 31.7557 89.562 30.4741 89.562 28.9911C89.562 27.5401 89.8465 26.2745 90.4153 25.1942C90.9906 24.114 91.8184 23.2766 92.8987 22.6822C93.9853 22.0813 95.2893 21.7809 96.8106 21.7809C97.5904 21.7809 98.3287 21.8544 99.0254 22.0014C99.7286 22.142 100.381 22.3434 100.981 22.6055L100.358 24.0245C99.8404 23.8008 99.2683 23.609 98.6419 23.4492C98.0219 23.2894 97.3795 23.2095 96.7147 23.2095C95.5705 23.2095 94.5894 23.446 93.7712 23.919C92.9594 24.392 92.3362 25.06 91.9015 25.9229C91.4732 26.7859 91.2591 27.8086 91.2591 28.9911C91.2591 30.1609 91.4477 31.1804 91.8248 32.0497C92.2019 32.9126 92.79 33.5838 93.589 34.0632C94.388 34.5426 95.4171 34.7823 96.6764 34.7823C97.3092 34.7823 97.8525 34.7472 98.3063 34.6768C98.7602 34.6001 99.1725 34.5107 99.5432 34.4084V30.1129H96.2737V28.6555Z" fill="#275368"/>
<path d="M112.88 35.9808L111.011 29.8636C110.927 29.6016 110.848 29.3459 110.771 29.0966C110.701 28.8409 110.633 28.598 110.569 28.3679C110.512 28.1314 110.458 27.9141 110.406 27.7159C110.362 27.5114 110.323 27.3356 110.291 27.1886H110.224C110.199 27.3356 110.164 27.5114 110.119 27.7159C110.074 27.9141 110.02 28.1314 109.956 28.3679C109.898 28.6044 109.834 28.8537 109.764 29.1158C109.694 29.3714 109.614 29.6303 109.524 29.8924L107.568 35.9808H105.775L102.88 25.4723H104.529L106.044 31.2731C106.146 31.6566 106.242 32.0369 106.332 32.4141C106.427 32.7848 106.507 33.1364 106.571 33.4687C106.642 33.7947 106.693 34.0792 106.725 34.3221H106.801C106.84 34.1623 106.881 33.9705 106.926 33.7468C106.977 33.5231 107.031 33.2866 107.089 33.0373C107.153 32.7816 107.22 32.5291 107.29 32.2798C107.361 32.0241 107.431 31.7844 107.501 31.5607L109.438 25.4723H111.154L113.024 31.5511C113.12 31.858 113.213 32.1776 113.302 32.5099C113.398 32.8423 113.484 33.1651 113.561 33.4783C113.638 33.7852 113.692 34.06 113.724 34.3029H113.801C113.826 34.0856 113.874 33.8171 113.944 33.4975C114.015 33.1779 114.095 32.8263 114.184 32.4428C114.28 32.0593 114.379 31.6694 114.481 31.2731L116.015 25.4723H117.636L114.731 35.9808H112.88Z" fill="#275368"/>
<path d="M121.145 25.4915V36H119.553V25.4915H121.145ZM120.368 21.5604C120.631 21.5604 120.854 21.6467 121.04 21.8192C121.231 21.9854 121.327 22.2475 121.327 22.6055C121.327 22.957 121.231 23.2191 121.04 23.3917C120.854 23.5643 120.631 23.6506 120.368 23.6506C120.094 23.6506 119.864 23.5643 119.678 23.3917C119.499 23.2191 119.41 22.957 119.41 22.6055C119.41 22.2475 119.499 21.9854 119.678 21.8192C119.864 21.6467 120.094 21.5604 120.368 21.5604Z" fill="#275368"/>
<path d="M129.199 26.7379H126.582V36H124.99V26.7379H123.13V25.9709L124.99 25.4435V24.7436C124.99 23.8615 125.121 23.1456 125.383 22.5959C125.645 22.0398 126.025 21.6307 126.524 21.3686C127.023 21.1065 127.63 20.9755 128.346 20.9755C128.748 20.9755 129.116 21.0107 129.448 21.081C129.787 21.1513 130.084 21.2312 130.34 21.3207L129.928 22.5767C129.71 22.5064 129.464 22.4425 129.189 22.3849C128.921 22.321 128.646 22.2891 128.365 22.2891C127.758 22.2891 127.307 22.4872 127.013 22.8835C126.725 23.2734 126.582 23.8871 126.582 24.7244V25.4915H129.199V26.7379Z" fill="#275368"/>
<path d="M140.197 30.7266C140.197 31.5895 140.085 32.3597 139.861 33.0373C139.637 33.7148 139.314 34.2869 138.893 34.7535C138.471 35.2202 137.959 35.5781 137.359 35.8274C136.764 36.0703 136.09 36.1918 135.335 36.1918C134.632 36.1918 133.987 36.0703 133.399 35.8274C132.817 35.5781 132.312 35.2202 131.884 34.7535C131.462 34.2869 131.133 33.7148 130.896 33.0373C130.666 32.3597 130.551 31.5895 130.551 30.7266C130.551 29.576 130.746 28.598 131.136 27.7926C131.526 26.9808 132.082 26.364 132.804 25.9421C133.533 25.5138 134.399 25.2997 135.403 25.2997C136.361 25.2997 137.199 25.5138 137.915 25.9421C138.637 26.3704 139.196 26.9904 139.593 27.8022C139.995 28.6076 140.197 29.5824 140.197 30.7266ZM132.2 30.7266C132.2 31.5703 132.312 32.3022 132.536 32.9222C132.759 33.5423 133.105 34.0217 133.571 34.3604C134.038 34.6992 134.639 34.8686 135.374 34.8686C136.102 34.8686 136.7 34.6992 137.167 34.3604C137.64 34.0217 137.988 33.5423 138.212 32.9222C138.436 32.3022 138.547 31.5703 138.547 30.7266C138.547 29.8892 138.436 29.1669 138.212 28.5597C137.988 27.946 137.643 27.473 137.176 27.1406C136.71 26.8082 136.106 26.642 135.364 26.642C134.271 26.642 133.469 27.0032 132.958 27.7255C132.453 28.4478 132.2 29.4482 132.2 30.7266Z" fill="#275368"/>
<path d="M146.688 36.1918C145.358 36.1918 144.303 35.7379 143.524 34.8303C142.75 33.9226 142.364 32.5739 142.364 30.7841C142.364 28.9751 142.76 27.6104 143.552 26.69C144.345 25.7631 145.4 25.2997 146.716 25.2997C147.273 25.2997 147.758 25.3732 148.174 25.5202C148.589 25.6673 148.947 25.8654 149.248 26.1147C149.548 26.3576 149.801 26.6357 150.005 26.9489H150.12C150.095 26.7507 150.069 26.479 150.044 26.1339C150.018 25.7887 150.005 25.5075 150.005 25.2901V21.081H151.597V36H150.312L150.072 34.5043H150.005C149.807 34.8175 149.555 35.1019 149.248 35.3576C148.947 35.6133 148.586 35.8178 148.164 35.9712C147.749 36.1182 147.257 36.1918 146.688 36.1918ZM146.937 34.8686C148.062 34.8686 148.858 34.549 149.324 33.9098C149.791 33.2706 150.024 32.3214 150.024 31.0621V30.7745C150.024 29.4386 149.801 28.4126 149.353 27.6967C148.912 26.9808 148.107 26.6229 146.937 26.6229C145.959 26.6229 145.227 27 144.741 27.7543C144.256 28.5021 144.013 29.5249 144.013 30.8224C144.013 32.1136 144.252 33.1108 144.732 33.8139C145.218 34.517 145.953 34.8686 146.937 34.8686Z" fill="#275368"/>
<path d="M158.711 36.1918C157.382 36.1918 156.327 35.7379 155.547 34.8303C154.774 33.9226 154.387 32.5739 154.387 30.7841C154.387 28.9751 154.783 27.6104 155.576 26.69C156.368 25.7631 157.423 25.2997 158.74 25.2997C159.296 25.2997 159.782 25.3732 160.197 25.5202C160.613 25.6673 160.971 25.8654 161.271 26.1147C161.572 26.3576 161.824 26.6357 162.029 26.9489H162.144C162.118 26.7507 162.093 26.479 162.067 26.1339C162.041 25.7887 162.029 25.5075 162.029 25.2901V21.081H163.62V36H162.335L162.096 34.5043H162.029C161.83 34.8175 161.578 35.1019 161.271 35.3576C160.971 35.6133 160.61 35.8178 160.188 35.9712C159.772 36.1182 159.28 36.1918 158.711 36.1918ZM158.96 34.8686C160.085 34.8686 160.881 34.549 161.348 33.9098C161.814 33.2706 162.048 32.3214 162.048 31.0621V30.7745C162.048 29.4386 161.824 28.4126 161.377 27.6967C160.936 26.9808 160.13 26.6229 158.96 26.6229C157.982 26.6229 157.251 27 156.765 27.7543C156.279 28.5021 156.036 29.5249 156.036 30.8224C156.036 32.1136 156.276 33.1108 156.755 33.8139C157.241 34.517 157.976 34.8686 158.96 34.8686Z" fill="#275368"/>
<path d="M176.056 30.7266C176.056 31.5895 175.944 32.3597 175.72 33.0373C175.497 33.7148 175.174 34.2869 174.752 34.7535C174.33 35.2202 173.819 35.5781 173.218 35.8274C172.623 36.0703 171.949 36.1918 171.195 36.1918C170.492 36.1918 169.846 36.0703 169.258 35.8274C168.676 35.5781 168.171 35.2202 167.743 34.7535C167.321 34.2869 166.992 33.7148 166.756 33.0373C166.525 32.3597 166.41 31.5895 166.41 30.7266C166.41 29.576 166.605 28.598 166.995 27.7926C167.385 26.9808 167.941 26.364 168.664 25.9421C169.392 25.5138 170.258 25.2997 171.262 25.2997C172.221 25.2997 173.058 25.5138 173.774 25.9421C174.496 26.3704 175.056 26.9904 175.452 27.8022C175.855 28.6076 176.056 29.5824 176.056 30.7266ZM168.06 30.7266C168.06 31.5703 168.171 32.3022 168.395 32.9222C168.619 33.5423 168.964 34.0217 169.431 34.3604C169.897 34.6992 170.498 34.8686 171.233 34.8686C171.962 34.8686 172.56 34.6992 173.026 34.3604C173.499 34.0217 173.848 33.5423 174.071 32.9222C174.295 32.3022 174.407 31.5703 174.407 30.7266C174.407 29.8892 174.295 29.1669 174.071 28.5597C173.848 27.946 173.502 27.473 173.036 27.1406C172.569 26.8082 171.965 26.642 171.224 26.642C170.131 26.642 169.328 27.0032 168.817 27.7255C168.312 28.4478 168.06 29.4482 168.06 30.7266Z" fill="#275368"/>
<path d="M180.409 36H178.808V21.081H180.409V36Z" fill="#275368"/>
<path d="M185.366 25.4915V36H183.774V25.4915H185.366ZM184.589 21.5604C184.851 21.5604 185.075 21.6467 185.261 21.8192C185.452 21.9854 185.548 22.2475 185.548 22.6055C185.548 22.957 185.452 23.2191 185.261 23.3917C185.075 23.5643 184.851 23.6506 184.589 23.6506C184.314 23.6506 184.084 23.5643 183.899 23.3917C183.72 23.2191 183.631 22.957 183.631 22.6055C183.631 22.2475 183.72 21.9854 183.899 21.8192C184.084 21.6467 184.314 21.5604 184.589 21.5604Z" fill="#275368"/>
<path d="M199.882 24.2546C199.313 24.2546 198.808 24.3665 198.367 24.5902C197.933 24.8075 197.565 25.1239 197.265 25.5394C196.971 25.9549 196.747 26.4567 196.594 27.0447C196.44 27.6328 196.364 28.2944 196.364 29.0295C196.364 30.0202 196.485 30.8672 196.728 31.5703C196.977 32.267 197.361 32.8008 197.878 33.1715C198.396 33.5359 199.064 33.718 199.882 33.718C200.451 33.718 201.02 33.6541 201.589 33.5263C202.164 33.3984 202.788 33.2163 203.459 32.9798V35.4727C202.839 35.7283 202.228 35.9105 201.627 36.0192C201.026 36.1342 200.352 36.1918 199.604 36.1918C198.16 36.1918 196.971 35.8945 196.038 35.3001C195.111 34.6992 194.424 33.8619 193.976 32.788C193.529 31.7077 193.305 30.4485 193.305 29.0103C193.305 27.9492 193.449 26.9776 193.736 26.0955C194.024 25.2134 194.446 24.4496 195.002 23.804C195.558 23.1584 196.245 22.6598 197.063 22.3082C197.882 21.9567 198.821 21.7809 199.882 21.7809C200.579 21.7809 201.276 21.8704 201.973 22.0494C202.676 22.2219 203.347 22.4616 203.986 22.7685L203.027 25.1847C202.503 24.9354 201.976 24.718 201.445 24.5327C200.915 24.3473 200.394 24.2546 199.882 24.2546Z" fill="#275368"/>
<path d="M204.686 25.2805H207.888L209.911 31.3114C209.975 31.5032 210.03 31.6982 210.074 31.8963C210.119 32.0945 210.158 32.299 210.189 32.5099C210.221 32.7209 210.247 32.9414 210.266 33.1715H210.324C210.362 32.8263 210.413 32.5035 210.477 32.2031C210.547 31.9027 210.634 31.6055 210.736 31.3114L212.721 25.2805H215.856L211.321 37.3711C211.046 38.1126 210.688 38.7294 210.247 39.2216C209.806 39.7202 209.298 40.0941 208.723 40.3434C208.154 40.5927 207.527 40.7173 206.843 40.7173C206.511 40.7173 206.223 40.6982 205.98 40.6598C205.737 40.6278 205.53 40.5927 205.357 40.5543V38.234C205.491 38.266 205.661 38.2947 205.865 38.3203C206.07 38.3459 206.284 38.3587 206.508 38.3587C206.917 38.3587 207.268 38.2724 207.562 38.0998C207.856 37.9272 208.102 37.6939 208.301 37.3999C208.499 37.1122 208.655 36.7958 208.77 36.4506L208.943 35.9233L204.686 25.2805Z" fill="#275368"/>
<path d="M229.989 25.0792C231.203 25.0792 232.121 25.3924 232.741 26.0188C233.367 26.6388 233.68 27.636 233.68 29.0103V36H230.746V29.739C230.746 28.9719 230.615 28.3935 230.353 28.0035C230.091 27.6136 229.685 27.4187 229.136 27.4187C228.362 27.4187 227.812 27.6967 227.486 28.2528C227.16 28.8026 226.997 29.592 226.997 30.6211V36H224.073V29.739C224.073 29.2276 224.015 28.7994 223.9 28.4542C223.785 28.109 223.61 27.8501 223.373 27.6776C223.137 27.505 222.833 27.4187 222.462 27.4187C221.919 27.4187 221.491 27.5561 221.177 27.831C220.871 28.0994 220.65 28.4989 220.516 29.0295C220.388 29.5536 220.324 30.196 220.324 30.9567V36H217.4V25.2805H219.634L220.027 26.6516H220.19C220.407 26.2809 220.679 25.9805 221.005 25.7504C221.337 25.5202 221.702 25.3508 222.098 25.2422C222.494 25.1335 222.897 25.0792 223.306 25.0792C224.092 25.0792 224.757 25.207 225.3 25.4627C225.85 25.7184 226.272 26.1147 226.566 26.6516H226.825C227.144 26.1019 227.595 25.7024 228.177 25.4531C228.765 25.2038 229.369 25.0792 229.989 25.0792Z" fill="#275368"/>
<path d="M242.674 25.0792C242.821 25.0792 242.99 25.0888 243.182 25.108C243.38 25.1207 243.54 25.1399 243.661 25.1655L243.441 27.9077C243.345 27.8757 243.208 27.8533 243.029 27.8406C242.856 27.8214 242.706 27.8118 242.578 27.8118C242.201 27.8118 241.833 27.8597 241.475 27.9556C241.124 28.0515 240.807 28.2081 240.526 28.4254C240.245 28.6364 240.021 28.9176 239.855 29.2692C239.695 29.6143 239.615 30.0394 239.615 30.5444V36H236.691V25.2805H238.906L239.337 27.0831H239.481C239.692 26.7187 239.954 26.3864 240.267 26.0859C240.587 25.7791 240.948 25.5362 241.351 25.3572C241.76 25.1719 242.201 25.0792 242.674 25.0792Z" fill="#275368"/>
<path d="M255.445 25.2805V36H253.202L252.808 34.6289H252.655C252.425 34.9932 252.137 35.2905 251.792 35.5206C251.447 35.7507 251.067 35.9201 250.651 36.0288C250.236 36.1374 249.804 36.1918 249.357 36.1918C248.59 36.1918 247.922 36.0575 247.353 35.7891C246.784 35.5142 246.34 35.0891 246.02 34.5138C245.707 33.9386 245.55 33.1907 245.55 32.2702V25.2805H248.475V31.5415C248.475 32.3086 248.612 32.8871 248.887 33.277C249.162 33.6669 249.6 33.8619 250.201 33.8619C250.795 33.8619 251.262 33.7276 251.6 33.4592C251.939 33.1843 252.176 32.7848 252.31 32.2607C252.451 31.7301 252.521 31.0845 252.521 30.3239V25.2805H255.445Z" fill="#275368"/>
<path d="M100.071 59.6186L95.0371 73.6364H93.3975L88.3638 59.6186H90.0704L93.3496 68.8519C93.4838 69.2227 93.6021 69.5774 93.7043 69.9162C93.813 70.255 93.9089 70.581 93.992 70.8942C94.0751 71.2074 94.1486 71.511 94.2125 71.8051C94.2764 71.511 94.3499 71.2074 94.433 70.8942C94.5161 70.5746 94.612 70.2454 94.7207 69.9066C94.8293 69.5615 94.9508 69.2003 95.085 68.8232L98.3449 59.6186H100.071Z" fill="#275368"/>
<path d="M110.819 68.3629C110.819 69.2259 110.707 69.9961 110.483 70.6737C110.26 71.3512 109.937 71.9233 109.515 72.3899C109.093 72.8566 108.582 73.2145 107.981 73.4638C107.386 73.7067 106.712 73.8281 105.958 73.8281C105.255 73.8281 104.609 73.7067 104.021 73.4638C103.439 73.2145 102.934 72.8566 102.506 72.3899C102.084 71.9233 101.755 71.3512 101.519 70.6737C101.288 69.9961 101.173 69.2259 101.173 68.3629C101.173 67.2124 101.368 66.2344 101.758 65.429C102.148 64.6172 102.704 64.0004 103.427 63.5785C104.155 63.1502 105.021 62.9361 106.025 62.9361C106.984 62.9361 107.821 63.1502 108.537 63.5785C109.259 64.0068 109.819 64.6268 110.215 65.4386C110.618 66.244 110.819 67.2188 110.819 68.3629ZM102.823 68.3629C102.823 69.2067 102.934 69.9386 103.158 70.5586C103.382 71.1786 103.727 71.658 104.194 71.9968C104.66 72.3356 105.261 72.505 105.996 72.505C106.725 72.505 107.323 72.3356 107.789 71.9968C108.262 71.658 108.611 71.1786 108.834 70.5586C109.058 69.9386 109.17 69.2067 109.17 68.3629C109.17 67.5256 109.058 66.8033 108.834 66.196C108.611 65.5824 108.265 65.1094 107.799 64.777C107.332 64.4446 106.728 64.2784 105.987 64.2784C104.894 64.2784 104.091 64.6396 103.58 65.3619C103.075 66.0842 102.823 67.0845 102.823 68.3629Z" fill="#275368"/>
<path d="M115.172 73.6364H113.571V58.7173H115.172V73.6364Z" fill="#275368"/>
<path d="M127.215 63.1279V73.6364H125.911L125.681 72.1598H125.594C125.377 72.5242 125.096 72.831 124.75 73.0803C124.405 73.3296 124.015 73.5149 123.581 73.6364C123.152 73.7642 122.695 73.8281 122.21 73.8281C121.379 73.8281 120.682 73.6939 120.119 73.4254C119.557 73.157 119.132 72.7415 118.844 72.179C118.563 71.6165 118.422 70.8942 118.422 70.0121V63.1279H120.033V69.897C120.033 70.7727 120.231 71.4279 120.628 71.8626C121.024 72.2909 121.628 72.505 122.44 72.505C123.22 72.505 123.84 72.358 124.3 72.0639C124.766 71.7699 125.102 71.3384 125.307 70.7695C125.511 70.1943 125.613 69.4911 125.613 68.6602V63.1279H127.215Z" fill="#275368"/>
<path d="M135.556 62.9361C136.803 62.9361 137.746 63.2429 138.385 63.8566C139.024 64.4638 139.344 65.4418 139.344 66.7905V73.6364H137.771V66.896C137.771 66.0203 137.57 65.3651 137.167 64.9304C136.771 64.4958 136.16 64.2784 135.336 64.2784C134.172 64.2784 133.354 64.6076 132.881 65.266C132.408 65.9244 132.172 66.88 132.172 68.1328V73.6364H130.58V63.1279H131.865L132.105 64.6428H132.191C132.415 64.272 132.699 63.962 133.044 63.7127C133.389 63.457 133.776 63.2653 134.204 63.1374C134.633 63.0032 135.083 62.9361 135.556 62.9361Z" fill="#275368"/>
<path d="M146.017 72.5242C146.279 72.5242 146.547 72.5018 146.822 72.457C147.097 72.4123 147.321 72.358 147.493 72.2941V73.5309C147.308 73.614 147.049 73.6843 146.717 73.7418C146.391 73.7994 146.071 73.8281 145.758 73.8281C145.202 73.8281 144.697 73.7323 144.243 73.5405C143.789 73.3423 143.425 73.01 143.15 72.5433C142.882 72.0767 142.747 71.4311 142.747 70.6066V64.3743H141.252V63.5977L142.757 62.9744L143.39 60.6925H144.348V63.1279H147.426V64.3743H144.348V70.5586C144.348 71.217 144.499 71.7092 144.799 72.0352C145.106 72.3612 145.512 72.5242 146.017 72.5242Z" fill="#275368"/>
<path d="M153.668 62.9361C154.563 62.9361 155.33 63.1342 155.969 63.5306C156.608 63.9269 157.097 64.483 157.436 65.1989C157.775 65.9084 157.944 66.7394 157.944 67.6918V68.6793H150.686C150.705 69.913 151.012 70.8526 151.607 71.4982C152.201 72.1438 153.038 72.4666 154.119 72.4666C154.784 72.4666 155.372 72.4059 155.883 72.2845C156.394 72.163 156.925 71.984 157.475 71.7475V73.1474C156.944 73.3839 156.417 73.5565 155.893 73.6651C155.375 73.7738 154.761 73.8281 154.052 73.8281C153.042 73.8281 152.16 73.6236 151.405 73.2145C150.657 72.799 150.076 72.1918 149.66 71.3928C149.245 70.5938 149.037 69.6158 149.037 68.4588C149.037 67.3274 149.226 66.3494 149.603 65.5249C149.986 64.6939 150.523 64.0547 151.214 63.6073C151.91 63.1598 152.728 62.9361 153.668 62.9361ZM153.649 64.2401C152.799 64.2401 152.121 64.5181 151.616 65.0742C151.111 65.6303 150.811 66.407 150.715 67.4041H156.276C156.27 66.7777 156.171 66.228 155.979 65.755C155.793 65.2756 155.509 64.9048 155.125 64.6428C154.742 64.3743 154.25 64.2401 153.649 64.2401Z" fill="#275368"/>
<path d="M164.694 62.9361C165.589 62.9361 166.356 63.1342 166.996 63.5306C167.635 63.9269 168.124 64.483 168.462 65.1989C168.801 65.9084 168.971 66.7394 168.971 67.6918V68.6793H161.712C161.732 69.913 162.038 70.8526 162.633 71.4982C163.227 72.1438 164.065 72.4666 165.145 72.4666C165.81 72.4666 166.398 72.4059 166.909 72.2845C167.421 72.163 167.951 71.984 168.501 71.7475V73.1474C167.97 73.3839 167.443 73.5565 166.919 73.6651C166.401 73.7738 165.787 73.8281 165.078 73.8281C164.068 73.8281 163.186 73.6236 162.432 73.2145C161.684 72.799 161.102 72.1918 160.687 71.3928C160.271 70.5938 160.063 69.6158 160.063 68.4588C160.063 67.3274 160.252 66.3494 160.629 65.5249C161.013 64.6939 161.549 64.0547 162.24 63.6073C162.937 63.1598 163.755 62.9361 164.694 62.9361ZM164.675 64.2401C163.825 64.2401 163.148 64.5181 162.643 65.0742C162.138 65.6303 161.837 66.407 161.741 67.4041H167.302C167.296 66.7777 167.197 66.228 167.005 65.755C166.82 65.2756 166.535 64.9048 166.152 64.6428C165.768 64.3743 165.276 64.2401 164.675 64.2401Z" fill="#275368"/>
<path d="M176.449 62.9361C176.66 62.9361 176.881 62.9489 177.111 62.9744C177.341 62.9936 177.546 63.0224 177.725 63.0607L177.523 64.5373C177.351 64.4926 177.159 64.4574 176.948 64.4318C176.737 64.4063 176.539 64.3935 176.353 64.3935C175.932 64.3935 175.532 64.4798 175.155 64.6524C174.784 64.8186 174.458 65.0615 174.177 65.3811C173.896 65.6943 173.675 66.0746 173.515 66.522C173.356 66.9631 173.276 67.4553 173.276 67.9986V73.6364H171.674V63.1279H172.998L173.17 65.0646H173.237C173.455 64.6747 173.717 64.32 174.024 64.0004C174.33 63.6744 174.685 63.4155 175.088 63.2237C175.497 63.032 175.951 62.9361 176.449 62.9361Z" fill="#275368"/>
<path d="M181.301 63.1279V73.6364H179.709V63.1279H181.301ZM180.524 59.1967C180.786 59.1967 181.01 59.283 181.195 59.4556C181.387 59.6218 181.483 59.8839 181.483 60.2418C181.483 60.5934 181.387 60.8555 181.195 61.0281C181.01 61.2007 180.786 61.2869 180.524 61.2869C180.249 61.2869 180.019 61.2007 179.834 61.0281C179.655 60.8555 179.565 60.5934 179.565 60.2418C179.565 59.8839 179.655 59.6218 179.834 59.4556C180.019 59.283 180.249 59.1967 180.524 59.1967Z" fill="#275368"/>
<path d="M189.652 62.9361C190.899 62.9361 191.841 63.2429 192.481 63.8566C193.12 64.4638 193.439 65.4418 193.439 66.7905V73.6364H191.867V66.896C191.867 66.0203 191.666 65.3651 191.263 64.9304C190.867 64.4958 190.256 64.2784 189.432 64.2784C188.268 64.2784 187.45 64.6076 186.977 65.266C186.504 65.9244 186.268 66.88 186.268 68.1328V73.6364H184.676V63.1279H185.961L186.2 64.6428H186.287C186.51 64.272 186.795 63.962 187.14 63.7127C187.485 63.457 187.872 63.2653 188.3 63.1374C188.728 63.0032 189.179 62.9361 189.652 62.9361Z" fill="#275368"/>
<path d="M199.652 78.3537C198.272 78.3537 197.208 78.0948 196.46 77.5771C195.712 77.0657 195.338 76.3466 195.338 75.4198C195.338 74.7614 195.546 74.1989 195.961 73.7323C196.383 73.2656 196.965 72.9556 197.706 72.8022C197.431 72.6744 197.195 72.4826 196.997 72.2269C196.805 71.9713 196.709 71.6772 196.709 71.3448C196.709 70.9613 196.814 70.6257 197.025 70.3381C197.243 70.0441 197.572 69.7628 198.013 69.4943C197.463 69.2706 197.016 68.8935 196.671 68.3629C196.332 67.826 196.162 67.2028 196.162 66.4933C196.162 65.739 196.319 65.0966 196.632 64.5661C196.945 64.0291 197.399 63.62 197.994 63.3388C198.588 63.0575 199.307 62.9169 200.151 62.9169C200.336 62.9169 200.522 62.9265 200.707 62.9457C200.899 62.9585 201.081 62.9808 201.254 63.0128C201.426 63.0384 201.576 63.0703 201.704 63.1087H205.309V64.1346L203.373 64.3743C203.564 64.6236 203.724 64.924 203.852 65.2756C203.98 65.6271 204.044 66.0171 204.044 66.4453C204.044 67.4936 203.689 68.3278 202.98 68.9478C202.27 69.5615 201.295 69.8683 200.055 69.8683C199.761 69.8683 199.461 69.8427 199.154 69.7916C198.841 69.9642 198.601 70.1559 198.435 70.3668C198.275 70.5778 198.195 70.8207 198.195 71.0955C198.195 71.3001 198.256 71.4631 198.377 71.5845C198.505 71.706 198.687 71.7955 198.924 71.853C199.16 71.9041 199.445 71.9297 199.777 71.9297H201.628C202.772 71.9297 203.648 72.1694 204.255 72.6488C204.868 73.1282 205.175 73.8281 205.175 74.7486C205.175 75.9119 204.702 76.8036 203.756 77.4237C202.81 78.0437 201.442 78.3537 199.652 78.3537ZM199.7 77.1073C200.57 77.1073 201.289 77.0178 201.858 76.8388C202.433 76.6662 202.861 76.4137 203.143 76.0813C203.43 75.7553 203.574 75.3654 203.574 74.9116C203.574 74.4897 203.478 74.1701 203.286 73.9528C203.095 73.7418 202.813 73.6012 202.443 73.5309C202.072 73.4542 201.618 73.4159 201.081 73.4159H199.259C198.786 73.4159 198.374 73.4894 198.023 73.6364C197.671 73.7834 197.399 74.0007 197.208 74.2884C197.022 74.576 196.929 74.934 196.929 75.3622C196.929 75.9311 197.169 76.3626 197.649 76.6566C198.128 76.957 198.812 77.1073 199.7 77.1073ZM200.113 68.7081C200.873 68.7081 201.445 68.5164 201.829 68.1328C202.212 67.7493 202.404 67.19 202.404 66.4549C202.404 65.6687 202.209 65.0806 201.819 64.6907C201.429 64.2944 200.854 64.0963 200.094 64.0963C199.365 64.0963 198.802 64.3008 198.406 64.7099C198.016 65.1126 197.821 65.7039 197.821 66.4837C197.821 67.1996 198.019 67.7493 198.416 68.1328C198.812 68.5164 199.378 68.7081 200.113 68.7081Z" fill="#275368"/>
<path d="M229.788 59.6186L226.221 73.6364H222.836L220.938 66.2727C220.9 66.1321 220.848 65.918 220.785 65.6303C220.721 65.3427 220.654 65.0295 220.583 64.6907C220.513 64.3455 220.449 64.0227 220.391 63.7223C220.34 63.4155 220.305 63.1726 220.286 62.9936C220.267 63.1726 220.228 63.4123 220.171 63.7127C220.12 64.0132 220.059 64.3328 219.989 64.6715C219.925 65.0103 219.861 65.3267 219.797 65.6208C219.733 65.9148 219.682 66.1385 219.644 66.2919L217.755 73.6364H214.38L210.803 59.6186H213.728L215.521 67.2699C215.572 67.5 215.629 67.7749 215.693 68.0945C215.764 68.4141 215.831 68.7497 215.895 69.1012C215.965 69.4464 216.026 69.782 216.077 70.108C216.134 70.4276 216.176 70.7056 216.201 70.9421C216.233 70.6992 216.275 70.418 216.326 70.0984C216.377 69.7724 216.432 69.4432 216.489 69.1108C216.553 68.772 216.617 68.4588 216.681 68.1712C216.745 67.8835 216.802 67.6502 216.853 67.4713L218.896 59.6186H221.705L223.747 67.4713C223.792 67.6438 223.843 67.8771 223.901 68.1712C223.965 68.4588 224.029 68.772 224.092 69.1108C224.156 69.4496 224.214 69.782 224.265 70.108C224.323 70.4276 224.364 70.7056 224.39 70.9421C224.434 70.6225 224.495 70.2358 224.572 69.782C224.655 69.3217 224.741 68.8647 224.831 68.4109C224.927 67.957 225.01 67.5767 225.08 67.2699L226.863 59.6186H229.788Z" fill="#275368"/>
<path d="M235.713 62.6964C237.151 62.6964 238.254 63.0096 239.021 63.636C239.788 64.2624 240.172 65.2149 240.172 66.4933V73.6364H238.129L237.564 72.179H237.487C237.18 72.5625 236.867 72.8757 236.547 73.1186C236.228 73.3615 235.86 73.5405 235.445 73.6556C235.029 73.7706 234.524 73.8281 233.93 73.8281C233.297 73.8281 232.728 73.7067 232.223 73.4638C231.725 73.2209 231.331 72.8502 231.044 72.3516C230.756 71.8466 230.612 71.2074 230.612 70.434C230.612 69.2962 231.012 68.4588 231.811 67.9219C232.61 67.3786 233.808 67.0781 235.406 67.0206L237.266 66.9631V66.4933C237.266 65.9308 237.119 65.5185 236.825 65.2564C236.531 64.9943 236.122 64.8633 235.598 64.8633C235.08 64.8633 234.572 64.9368 234.074 65.0838C233.575 65.2308 233.076 65.4162 232.578 65.6399L231.61 63.6648C232.178 63.3644 232.814 63.1279 233.518 62.9553C234.227 62.7827 234.959 62.6964 235.713 62.6964ZM237.266 68.6698L236.135 68.7081C235.189 68.7337 234.531 68.9031 234.16 69.2163C233.796 69.5295 233.613 69.9418 233.613 70.4531C233.613 70.9006 233.744 71.2202 234.007 71.4119C234.269 71.5973 234.611 71.69 235.032 71.69C235.659 71.69 236.186 71.5046 236.614 71.1339C237.049 70.7632 237.266 70.2358 237.266 69.5519V68.6698Z" fill="#275368"/>
<path d="M246.116 73.6364H243.192V58.7173H246.116V73.6364Z" fill="#275368"/>
<path d="M253.614 62.7156C254.605 62.7156 255.458 62.9073 256.174 63.2909C256.89 63.668 257.443 64.2177 257.833 64.94C258.223 65.6623 258.418 66.5444 258.418 67.5863V69.0053H251.505C251.537 69.8299 251.783 70.4787 252.243 70.9517C252.71 71.4183 253.355 71.6517 254.18 71.6517C254.864 71.6517 255.49 71.5813 256.059 71.4407C256.628 71.3001 257.213 71.0892 257.814 70.8079V73.0707C257.283 73.3328 256.727 73.5245 256.145 73.646C255.57 73.7674 254.87 73.8281 254.046 73.8281C252.972 73.8281 252.019 73.63 251.188 73.2337C250.364 72.8374 249.715 72.2333 249.242 71.4215C248.775 70.6097 248.542 69.587 248.542 68.3534C248.542 67.1005 248.753 66.0586 249.175 65.2276C249.603 64.3903 250.198 63.7639 250.958 63.3484C251.719 62.9265 252.604 62.7156 253.614 62.7156ZM253.633 64.7962C253.064 64.7962 252.591 64.9784 252.214 65.3427C251.844 65.707 251.629 66.2791 251.572 67.059H255.676C255.669 66.6243 255.589 66.2376 255.436 65.8988C255.289 65.56 255.065 65.2916 254.765 65.0934C254.471 64.8953 254.094 64.7962 253.633 64.7962Z" fill="#275368"/>
<path d="M268.274 70.4531C268.274 71.1818 268.102 71.7987 267.757 72.3036C267.418 72.8022 266.91 73.1825 266.232 73.4446C265.554 73.7003 264.711 73.8281 263.701 73.8281C262.953 73.8281 262.311 73.7802 261.774 73.6843C261.243 73.5884 260.706 73.4286 260.163 73.2049V70.7887C260.744 71.0508 261.368 71.2681 262.032 71.4407C262.704 71.6069 263.292 71.69 263.797 71.69C264.366 71.69 264.771 71.6069 265.014 71.4407C265.264 71.2681 265.388 71.0444 265.388 70.7695C265.388 70.5906 265.337 70.4308 265.235 70.2901C265.139 70.1431 264.928 69.9801 264.602 69.8012C264.276 69.6158 263.765 69.3761 263.068 69.082C262.397 68.8008 261.844 68.5164 261.409 68.2287C260.981 67.9411 260.661 67.6023 260.45 67.2124C260.246 66.8161 260.144 66.3143 260.144 65.707C260.144 64.7163 260.527 63.9716 261.294 63.473C262.068 62.9681 263.1 62.7156 264.391 62.7156C265.056 62.7156 265.689 62.7827 266.29 62.9169C266.897 63.0512 267.52 63.2653 268.159 63.5593L267.277 65.6687C266.747 65.4386 266.245 65.25 265.772 65.103C265.305 64.956 264.829 64.8825 264.343 64.8825C263.915 64.8825 263.592 64.94 263.375 65.0551C263.157 65.1701 263.049 65.3459 263.049 65.5824C263.049 65.755 263.103 65.9084 263.212 66.0426C263.327 66.1769 263.544 66.3271 263.864 66.4933C264.19 66.6531 264.666 66.8608 265.292 67.1165C265.9 67.3658 266.427 67.6279 266.874 67.9027C267.322 68.1712 267.667 68.5068 267.91 68.9095C268.153 69.3058 268.274 69.8203 268.274 70.4531Z" fill="#275368"/>
<line opacity="0.5" x1="88.3638" y1="48.5909" x2="270" y2="48.5909" stroke="#275368"/>
</svg>
