<svg width="165" height="55" viewBox="0 0 165 55" fill="none" xmlns="http://www.w3.org/2000/svg">
<path d="M34.1897 55L29.2914 54.8698L24.577 49.5332L21.6997 49.4653L17.7282 50.2917L16.8983 48.9509L18.083 47.1291L15.4877 46.494L14.6413 44.3934L5.11433 48.2189L3.50539 46.1133L1.85189 46.2084L1.86318 45.0002L3.6927 42.8254L3.16021 41.4579L0 41.2004L5.69076 37.7705L15.4599 33.711L20.417 29.5252L21.2896 20.7602L19.3317 14.2058L14.9996 15.8806L14.6617 17.9132L13.1989 16.5879L10.367 17.1259L20.2458 6.91635L33.2825 3.43686L39.7666 7.33907L42.8679 13.3928L41.1564 14.7379L37.8393 13.9033L36.3921 18.4167L38.3365 24.772L34.8803 28.5451L37.605 30.1313L35.8838 37.5918L38.2054 41.3707L43 43.1096L42.1937 49.9625L37.0098 52.2527L34.1897 55Z" fill="#EAF0F6"/>
<path d="M15.9796 13.7464L21.1116 9.79807L25.6808 13.6374L25.7526 13.5501L21.1149 9.65302L15.9116 13.656" fill="#1D1D1B"/>
<path d="M33.5494 12.1404L25.636 13.5505L29.0323 21.3223L24.0511 30.2908L22.8827 39.3779L11.2388 40.7454L5.12062 40.3625L5.11377 40.4757L11.2419 40.8591L22.9827 39.4803L24.1595 30.3272L29.1577 21.3284L25.7967 13.637L33.5688 12.2522" fill="#1D1D1B"/>
<path d="M6.13455 45.8024L11.2795 40.8434L11.2021 40.7611L6.05713 45.7201" fill="#1D1D1B"/>
<path d="M19.5997 48.2601L25.7306 46.6402L25.7024 46.5305L19.5713 48.1504" fill="#1D1D1B"/>
<path d="M32.3006 40.1091L39.1539 45.5371L32.3319 49.9106L25.8054 46.5672L31.7835 39.4314L25.1789 30.3896L34.1202 31.985L29.146 21.3011L29.0444 21.3494L33.9265 31.8352L24.9219 30.2284L31.6403 39.4267L25.628 46.6035L32.3381 50.041L39.3481 45.5469L32.3696 40.0199" fill="#1D1D1B"/>
<path d="M19.7599 6.8735H17.9969L15.3579 3.71084L15.418 0.909298L19.3641 0L23.0963 3.54722L19.7599 6.8735Z" fill="#EAF0F6"/>
<path d="M23.1047 44.8147C20.165 45.3313 17.3684 43.3387 16.8578 40.3643C16.3475 37.3898 18.3166 34.5601 21.2562 34.0433C24.1957 33.5269 26.9923 35.5196 27.5031 38.4939C28.0134 41.4683 26.0443 44.2984 23.1047 44.8147Z" fill="#D20466"/>
<path d="M32.3351 54.0715C30.0996 54.0715 28.2876 52.2376 28.2876 49.9759C28.2876 47.714 30.0996 45.8801 32.3351 45.8801C34.5703 45.8801 36.3825 47.714 36.3825 49.9759C36.3825 52.2376 34.5703 54.0715 32.3351 54.0715Z" fill="#9BB7DD"/>
<path d="M11.2405 44.5681C9.18496 44.5681 7.51855 42.8821 7.51855 40.8023C7.51855 38.7224 9.18496 37.0364 11.2405 37.0364C13.296 37.0364 14.9622 38.7224 14.9622 40.8023C14.9622 42.8821 13.296 44.5681 11.2405 44.5681Z" fill="#A0C765"/>
<path d="M15.9453 14.7601C15.3675 14.7601 14.8989 14.286 14.8989 13.7011C14.8989 13.1164 15.3675 12.6422 15.9453 12.6422C16.5234 12.6422 16.992 13.1164 16.992 13.7011C16.992 14.286 16.5234 14.7601 15.9453 14.7601Z" fill="#E67B9F"/>
<path d="M25.7166 48.2053C24.8325 48.2053 24.1157 47.48 24.1157 46.5854C24.1157 45.6906 24.8325 44.9653 25.7166 44.9653C26.6009 44.9653 27.3179 45.6906 27.3179 46.5854C27.3179 47.48 26.6009 48.2053 25.7166 48.2053Z" fill="#A43F66"/>
<path d="M32.3351 43.0218C30.7209 43.0218 29.4126 41.698 29.4126 40.0646C29.4126 38.4313 30.7209 37.1074 32.3351 37.1074C33.9493 37.1074 35.2576 38.4313 35.2576 40.0646C35.2576 41.698 33.9493 43.0218 32.3351 43.0218Z" fill="#107FA2"/>
<path d="M34.0235 34.2492C32.7466 34.2492 31.7119 33.2017 31.7119 31.9101C31.7119 30.6183 32.7466 29.5711 34.0235 29.5711C35.3 29.5711 36.3351 30.6183 36.3351 31.9101C36.3351 33.2017 35.3 34.2492 34.0235 34.2492Z" fill="#9BB7DD"/>
<path d="M39.251 47.6379C37.9912 47.6379 36.9702 46.6043 36.9702 45.3301C36.9702 44.0554 37.9912 43.0218 39.251 43.0218C40.5107 43.0218 41.5319 44.0554 41.5319 45.3301C41.5319 46.6043 40.5107 47.6379 39.251 47.6379Z" fill="#88B825"/>
<path d="M6.0953 46.9544C5.44406 46.9544 4.91602 46.4203 4.91602 45.7611C4.91602 45.1024 5.44406 44.5681 6.0953 44.5681C6.74633 44.5681 7.27438 45.1024 7.27438 45.7611C7.27438 46.4203 6.74633 46.9544 6.0953 46.9544Z" fill="#EC690B"/>
<path d="M19.5856 49.1594C19.0648 49.1594 18.6426 48.7322 18.6426 48.2052C18.6426 47.6785 19.0648 47.2511 19.5856 47.2511C20.1063 47.2511 20.5285 47.6785 20.5285 48.2052C20.5285 48.7322 20.1063 49.1594 19.5856 49.1594Z" fill="#88B825"/>
<path d="M5.11723 41.4085C4.57688 41.4085 4.13916 40.9656 4.13916 40.419C4.13916 39.8722 4.57688 39.4291 5.11723 39.4291C5.65737 39.4291 6.09549 39.8722 6.09549 40.419C6.09549 40.9656 5.65737 41.4085 5.11723 41.4085Z" fill="#107FA2"/>
<path d="M25.7164 14.9217C24.9918 14.9217 24.4043 14.327 24.4043 13.5938C24.4043 12.8603 24.9918 12.2658 25.7164 12.2658C26.4415 12.2658 27.029 12.8603 27.029 13.5938C27.029 14.327 26.4415 14.9217 25.7164 14.9217Z" fill="#FECE21"/>
<path d="M21.1659 9.70688L18.9989 3.41809L18.8931 3.45543L21.0599 9.74421" fill="#1D1D1B"/>
<path d="M18.946 5.41417C17.8665 5.41417 16.9917 4.52894 16.9917 3.43685C16.9917 2.34475 17.8665 1.45932 18.946 1.45932C20.0253 1.45932 20.9001 2.34475 20.9001 3.43685C20.9001 4.52894 20.0253 5.41417 18.946 5.41417Z" fill="#EB680A"/>
<path d="M21.113 11.6938C20.0388 11.6938 19.168 10.8126 19.168 9.72564C19.168 8.63864 20.0388 7.75729 21.113 7.75729C22.1872 7.75729 23.0583 8.63864 23.0583 9.72564C23.0583 10.8126 22.1872 11.6938 21.113 11.6938Z" fill="#107FA2"/>
<path d="M33.509 12.1712L29.0449 21.3001L29.1455 21.3505L33.6094 12.2216" fill="#1D1D1B"/>
<path d="M29.0952 27.5609C25.6916 27.5609 22.9326 24.7691 22.9326 21.3254C22.9326 17.8816 25.6916 15.0898 29.0952 15.0898C32.4983 15.0898 35.2573 17.8816 35.2573 21.3254C35.2573 24.7691 32.4983 27.5609 29.0952 27.5609Z" fill="#198BB3"/>
<path d="M40.1873 12.1534L33.1293 5.96173L33.0562 6.04742L40.1139 12.2391" fill="#1D1D1B"/>
<path d="M40.1511 13.5938C39.3882 13.5938 38.77 12.968 38.77 12.1963C38.77 11.4247 39.3882 10.799 40.1511 10.799C40.9139 10.799 41.532 11.4247 41.532 12.1963C41.532 12.968 40.9139 13.5938 40.1511 13.5938Z" fill="#FECE21"/>
<path d="M33.6151 12.192L33.1431 5.92667L27.1187 8.06271L27.156 8.16982L33.0425 6.08253L33.5034 12.2006" fill="#1D1D1B"/>
<path d="M27.1373 10.2281C25.9846 10.2281 25.0503 9.2827 25.0503 8.11635C25.0503 6.95019 25.9846 6.00458 27.1373 6.00458C28.2901 6.00458 29.2243 6.95019 29.2243 8.11635C29.2243 9.2827 28.2901 10.2281 27.1373 10.2281Z" fill="#8F1554"/>
<path d="M33.559 14.6671C32.2106 14.6671 31.1172 13.5609 31.1172 12.1962C31.1172 10.8318 32.2106 9.72562 33.559 9.72562C34.9077 9.72562 36.0009 10.8318 36.0009 12.1962C36.0009 13.5609 34.9077 14.6671 33.559 14.6671Z" fill="#EB680A"/>
<path d="M33.0928 7.40191C32.3301 7.40191 31.7119 6.7764 31.7119 6.0046C31.7119 5.23281 32.3301 4.6073 33.0928 4.6073C33.8558 4.6073 34.4739 5.23281 34.4739 6.0046C34.4739 6.7764 33.8558 7.40191 33.0928 7.40191Z" fill="#88B825"/>
<path d="M58.834 17.5117H61.8281V21.666C61.3789 21.8184 60.916 21.9316 60.4395 22.0059C59.9668 22.0801 59.4375 22.1172 58.8516 22.1172C57.9609 22.1172 57.209 21.9395 56.5957 21.584C55.9863 21.2285 55.5234 20.7227 55.207 20.0664C54.8906 19.4062 54.7324 18.623 54.7324 17.7168C54.7324 16.8301 54.9062 16.0566 55.2539 15.3965C55.6055 14.7363 56.1113 14.2246 56.7715 13.8613C57.4355 13.4941 58.2324 13.3105 59.1621 13.3105C59.6387 13.3105 60.0898 13.3555 60.5156 13.4453C60.9453 13.5312 61.3438 13.6543 61.7109 13.8145L61.3301 14.6816C61.0137 14.5449 60.6641 14.4277 60.2812 14.3301C59.9023 14.2324 59.5098 14.1836 59.1035 14.1836C58.4043 14.1836 57.8047 14.3281 57.3047 14.6172C56.8086 14.9062 56.4277 15.3145 56.1621 15.8418C55.9004 16.3691 55.7695 16.9941 55.7695 17.7168C55.7695 18.4316 55.8848 19.0547 56.1152 19.5859C56.3457 20.1133 56.7051 20.5234 57.1934 20.8164C57.6816 21.1094 58.3105 21.2559 59.0801 21.2559C59.4668 21.2559 59.7988 21.2344 60.0762 21.1914C60.3535 21.1445 60.6055 21.0898 60.832 21.0273V18.4023H58.834V17.5117ZM68.9824 21.9883L67.8398 18.25C67.7891 18.0898 67.7402 17.9336 67.6934 17.7812C67.6504 17.625 67.6094 17.4766 67.5703 17.3359C67.5352 17.1914 67.502 17.0586 67.4707 16.9375C67.4434 16.8125 67.4199 16.7051 67.4004 16.6152H67.3594C67.3438 16.7051 67.3223 16.8125 67.2949 16.9375C67.2676 17.0586 67.2344 17.1914 67.1953 17.3359C67.1602 17.4805 67.1211 17.6328 67.0781 17.793C67.0352 17.9492 66.9863 18.1074 66.9316 18.2676L65.7363 21.9883H64.6406L62.8711 15.5664H63.8789L64.8047 19.1113C64.8672 19.3457 64.9258 19.5781 64.9805 19.8086C65.0391 20.0352 65.0879 20.25 65.127 20.4531C65.1699 20.6523 65.2012 20.8262 65.2207 20.9746H65.2676C65.291 20.877 65.3164 20.7598 65.3438 20.623C65.375 20.4863 65.4082 20.3418 65.4434 20.1895C65.4824 20.0332 65.5234 19.8789 65.5664 19.7266C65.6094 19.5703 65.6523 19.4238 65.6953 19.2871L66.8789 15.5664H67.9277L69.0703 19.2812C69.1289 19.4688 69.1855 19.6641 69.2402 19.8672C69.2988 20.0703 69.3516 20.2676 69.3984 20.459C69.4453 20.6465 69.4785 20.8145 69.498 20.9629H69.5449C69.5605 20.8301 69.5898 20.666 69.6328 20.4707C69.6758 20.2754 69.7246 20.0605 69.7793 19.8262C69.8379 19.5918 69.8984 19.3535 69.9609 19.1113L70.8984 15.5664H71.8887L70.1133 21.9883H68.9824ZM74.0332 15.5781V22H73.0605V15.5781H74.0332ZM73.5586 13.1758C73.7188 13.1758 73.8555 13.2285 73.9688 13.334C74.0859 13.4355 74.1445 13.5957 74.1445 13.8145C74.1445 14.0293 74.0859 14.1895 73.9688 14.2949C73.8555 14.4004 73.7188 14.4531 73.5586 14.4531C73.3906 14.4531 73.25 14.4004 73.1367 14.2949C73.0273 14.1895 72.9727 14.0293 72.9727 13.8145C72.9727 13.5957 73.0273 13.4355 73.1367 13.334C73.25 13.2285 73.3906 13.1758 73.5586 13.1758ZM78.9551 16.3398H77.3555V22H76.3828V16.3398H75.2461V15.8711L76.3828 15.5488V15.1211C76.3828 14.582 76.4629 14.1445 76.623 13.8086C76.7832 13.4688 77.0156 13.2188 77.3203 13.0586C77.625 12.8984 77.9961 12.8184 78.4336 12.8184C78.6797 12.8184 78.9043 12.8398 79.1074 12.8828C79.3145 12.9258 79.4961 12.9746 79.6523 13.0293L79.4004 13.7969C79.2676 13.7539 79.1172 13.7148 78.9492 13.6797C78.7852 13.6406 78.6172 13.6211 78.4453 13.6211C78.0742 13.6211 77.7988 13.7422 77.6191 13.9844C77.4434 14.2227 77.3555 14.5977 77.3555 15.1094V15.5781H78.9551V16.3398ZM85.6758 18.7773C85.6758 19.3047 85.6074 19.7754 85.4707 20.1895C85.334 20.6035 85.1367 20.9531 84.8789 21.2383C84.6211 21.5234 84.3086 21.7422 83.9414 21.8945C83.5781 22.043 83.166 22.1172 82.7051 22.1172C82.2754 22.1172 81.8809 22.043 81.5215 21.8945C81.166 21.7422 80.8574 21.5234 80.5957 21.2383C80.3379 20.9531 80.1367 20.6035 79.9922 20.1895C79.8516 19.7754 79.7812 19.3047 79.7812 18.7773C79.7812 18.0742 79.9004 17.4766 80.1387 16.9844C80.377 16.4883 80.7168 16.1113 81.1582 15.8535C81.6035 15.5918 82.1328 15.4609 82.7461 15.4609C83.332 15.4609 83.8438 15.5918 84.2812 15.8535C84.7227 16.1152 85.0645 16.4941 85.3066 16.9902C85.5527 17.4824 85.6758 18.0781 85.6758 18.7773ZM80.7891 18.7773C80.7891 19.293 80.8574 19.7402 80.9941 20.1191C81.1309 20.498 81.3418 20.791 81.627 20.998C81.9121 21.2051 82.2793 21.3086 82.7285 21.3086C83.1738 21.3086 83.5391 21.2051 83.8242 20.998C84.1133 20.791 84.3262 20.498 84.4629 20.1191C84.5996 19.7402 84.668 19.293 84.668 18.7773C84.668 18.2656 84.5996 17.8242 84.4629 17.4531C84.3262 17.0781 84.1152 16.7891 83.8301 16.5859C83.5449 16.3828 83.1758 16.2812 82.7227 16.2812C82.0547 16.2812 81.5645 16.502 81.252 16.9434C80.9434 17.3848 80.7891 17.9961 80.7891 18.7773ZM89.6426 22.1172C88.8301 22.1172 88.1855 21.8398 87.709 21.2852C87.2363 20.7305 87 19.9062 87 18.8125C87 17.707 87.2422 16.873 87.7266 16.3105C88.2109 15.7441 88.8555 15.4609 89.6602 15.4609C90 15.4609 90.2969 15.5059 90.5508 15.5957C90.8047 15.6855 91.0234 15.8066 91.207 15.959C91.3906 16.1074 91.5449 16.2773 91.6699 16.4688H91.7402C91.7246 16.3477 91.709 16.1816 91.6934 15.9707C91.6777 15.7598 91.6699 15.5879 91.6699 15.4551V12.8828H92.6426V22H91.8574L91.7109 21.0859H91.6699C91.5488 21.2773 91.3945 21.4512 91.207 21.6074C91.0234 21.7637 90.8027 21.8887 90.5449 21.9824C90.291 22.0723 89.9902 22.1172 89.6426 22.1172ZM89.7949 21.3086C90.4824 21.3086 90.9688 21.1133 91.2539 20.7227C91.5391 20.332 91.6816 19.752 91.6816 18.9824V18.8066C91.6816 17.9902 91.5449 17.3633 91.2715 16.9258C91.002 16.4883 90.5098 16.2695 89.7949 16.2695C89.1973 16.2695 88.75 16.5 88.4531 16.9609C88.1562 17.418 88.0078 18.043 88.0078 18.8359C88.0078 19.625 88.1543 20.2344 88.4473 20.6641C88.7441 21.0938 89.1934 21.3086 89.7949 21.3086ZM96.9902 22.1172C96.1777 22.1172 95.5332 21.8398 95.0566 21.2852C94.584 20.7305 94.3477 19.9062 94.3477 18.8125C94.3477 17.707 94.5898 16.873 95.0742 16.3105C95.5586 15.7441 96.2031 15.4609 97.0078 15.4609C97.3477 15.4609 97.6445 15.5059 97.8984 15.5957C98.1523 15.6855 98.3711 15.8066 98.5547 15.959C98.7383 16.1074 98.8926 16.2773 99.0176 16.4688H99.0879C99.0723 16.3477 99.0566 16.1816 99.041 15.9707C99.0254 15.7598 99.0176 15.5879 99.0176 15.4551V12.8828H99.9902V22H99.2051L99.0586 21.0859H99.0176C98.8965 21.2773 98.7422 21.4512 98.5547 21.6074C98.3711 21.7637 98.1504 21.8887 97.8926 21.9824C97.6387 22.0723 97.3379 22.1172 96.9902 22.1172ZM97.1426 21.3086C97.8301 21.3086 98.3164 21.1133 98.6016 20.7227C98.8867 20.332 99.0293 19.752 99.0293 18.9824V18.8066C99.0293 17.9902 98.8926 17.3633 98.6191 16.9258C98.3496 16.4883 97.8574 16.2695 97.1426 16.2695C96.5449 16.2695 96.0977 16.5 95.8008 16.9609C95.5039 17.418 95.3555 18.043 95.3555 18.8359C95.3555 19.625 95.502 20.2344 95.7949 20.6641C96.0918 21.0938 96.541 21.3086 97.1426 21.3086ZM107.59 18.7773C107.59 19.3047 107.521 19.7754 107.385 20.1895C107.248 20.6035 107.051 20.9531 106.793 21.2383C106.535 21.5234 106.223 21.7422 105.855 21.8945C105.492 22.043 105.08 22.1172 104.619 22.1172C104.189 22.1172 103.795 22.043 103.436 21.8945C103.08 21.7422 102.771 21.5234 102.51 21.2383C102.252 20.9531 102.051 20.6035 101.906 20.1895C101.766 19.7754 101.695 19.3047 101.695 18.7773C101.695 18.0742 101.814 17.4766 102.053 16.9844C102.291 16.4883 102.631 16.1113 103.072 15.8535C103.518 15.5918 104.047 15.4609 104.66 15.4609C105.246 15.4609 105.758 15.5918 106.195 15.8535C106.637 16.1152 106.979 16.4941 107.221 16.9902C107.467 17.4824 107.59 18.0781 107.59 18.7773ZM102.703 18.7773C102.703 19.293 102.771 19.7402 102.908 20.1191C103.045 20.498 103.256 20.791 103.541 20.998C103.826 21.2051 104.193 21.3086 104.643 21.3086C105.088 21.3086 105.453 21.2051 105.738 20.998C106.027 20.791 106.24 20.498 106.377 20.1191C106.514 19.7402 106.582 19.293 106.582 18.7773C106.582 18.2656 106.514 17.8242 106.377 17.4531C106.24 17.0781 106.029 16.7891 105.744 16.5859C105.459 16.3828 105.09 16.2812 104.637 16.2812C103.969 16.2812 103.479 16.502 103.166 16.9434C102.857 17.3848 102.703 17.9961 102.703 18.7773ZM110.25 22H109.271V12.8828H110.25V22ZM113.279 15.5781V22H112.307V15.5781H113.279ZM112.805 13.1758C112.965 13.1758 113.102 13.2285 113.215 13.334C113.332 13.4355 113.391 13.5957 113.391 13.8145C113.391 14.0293 113.332 14.1895 113.215 14.2949C113.102 14.4004 112.965 14.4531 112.805 14.4531C112.637 14.4531 112.496 14.4004 112.383 14.2949C112.273 14.1895 112.219 14.0293 112.219 13.8145C112.219 13.5957 112.273 13.4355 112.383 13.334C112.496 13.2285 112.637 13.1758 112.805 13.1758ZM122.15 14.8223C121.803 14.8223 121.494 14.8906 121.225 15.0273C120.959 15.1602 120.734 15.3535 120.551 15.6074C120.371 15.8613 120.234 16.168 120.141 16.5273C120.047 16.8867 120 17.291 120 17.7402C120 18.3457 120.074 18.8633 120.223 19.293C120.375 19.7188 120.609 20.0449 120.926 20.2715C121.242 20.4941 121.65 20.6055 122.15 20.6055C122.498 20.6055 122.846 20.5664 123.193 20.4883C123.545 20.4102 123.926 20.2988 124.336 20.1543V21.6777C123.957 21.834 123.584 21.9453 123.217 22.0117C122.85 22.082 122.438 22.1172 121.98 22.1172C121.098 22.1172 120.371 21.9355 119.801 21.5723C119.234 21.2051 118.814 20.6934 118.541 20.0371C118.268 19.377 118.131 18.6074 118.131 17.7285C118.131 17.0801 118.219 16.4863 118.395 15.9473C118.57 15.4082 118.828 14.9414 119.168 14.5469C119.508 14.1523 119.928 13.8477 120.428 13.6328C120.928 13.418 121.502 13.3105 122.15 13.3105C122.576 13.3105 123.002 13.3652 123.428 13.4746C123.857 13.5801 124.268 13.7266 124.658 13.9141L124.072 15.3906C123.752 15.2383 123.43 15.1055 123.105 14.9922C122.781 14.8789 122.463 14.8223 122.15 14.8223ZM125.086 15.4492H127.043L128.279 19.1348C128.318 19.252 128.352 19.3711 128.379 19.4922C128.406 19.6133 128.43 19.7383 128.449 19.8672C128.469 19.9961 128.484 20.1309 128.496 20.2715H128.531C128.555 20.0605 128.586 19.8633 128.625 19.6797C128.668 19.4961 128.721 19.3145 128.783 19.1348L129.996 15.4492H131.912L129.141 22.8379C128.973 23.291 128.754 23.668 128.484 23.9688C128.215 24.2734 127.904 24.502 127.553 24.6543C127.205 24.8066 126.822 24.8828 126.404 24.8828C126.201 24.8828 126.025 24.8711 125.877 24.8477C125.729 24.8281 125.602 24.8066 125.496 24.7832V23.3652C125.578 23.3848 125.682 23.4023 125.807 23.418C125.932 23.4336 126.062 23.4414 126.199 23.4414C126.449 23.4414 126.664 23.3887 126.844 23.2832C127.023 23.1777 127.174 23.0352 127.295 22.8555C127.416 22.6797 127.512 22.4863 127.582 22.2754L127.688 21.9531L125.086 15.4492ZM140.549 15.3262C141.291 15.3262 141.852 15.5176 142.23 15.9004C142.613 16.2793 142.805 16.8887 142.805 17.7285V22H141.012V18.1738C141.012 17.7051 140.932 17.3516 140.771 17.1133C140.611 16.875 140.363 16.7559 140.027 16.7559C139.555 16.7559 139.219 16.9258 139.02 17.2656C138.82 17.6016 138.721 18.084 138.721 18.7129V22H136.934V18.1738C136.934 17.8613 136.898 17.5996 136.828 17.3887C136.758 17.1777 136.65 17.0195 136.506 16.9141C136.361 16.8086 136.176 16.7559 135.949 16.7559C135.617 16.7559 135.355 16.8398 135.164 17.0078C134.977 17.1719 134.842 17.416 134.76 17.7402C134.682 18.0605 134.643 18.4531 134.643 18.918V22H132.855V15.4492H134.221L134.461 16.2871H134.561C134.693 16.0605 134.859 15.877 135.059 15.7363C135.262 15.5957 135.484 15.4922 135.727 15.4258C135.969 15.3594 136.215 15.3262 136.465 15.3262C136.945 15.3262 137.352 15.4043 137.684 15.5605C138.02 15.7168 138.277 15.959 138.457 16.2871H138.615C138.811 15.9512 139.086 15.707 139.441 15.5547C139.801 15.4023 140.17 15.3262 140.549 15.3262ZM148.301 15.3262C148.391 15.3262 148.494 15.332 148.611 15.3438C148.732 15.3516 148.83 15.3633 148.904 15.3789L148.77 17.0547C148.711 17.0352 148.627 17.0215 148.518 17.0137C148.412 17.002 148.32 16.9961 148.242 16.9961C148.012 16.9961 147.787 17.0254 147.568 17.084C147.354 17.1426 147.16 17.2383 146.988 17.3711C146.816 17.5 146.68 17.6719 146.578 17.8867C146.48 18.0977 146.432 18.3574 146.432 18.666V22H144.645V15.4492H145.998L146.262 16.5508H146.35C146.479 16.3281 146.639 16.125 146.83 15.9414C147.025 15.7539 147.246 15.6055 147.492 15.4961C147.742 15.3828 148.012 15.3262 148.301 15.3262ZM156.105 15.4492V22H154.734L154.494 21.1621H154.4C154.26 21.3848 154.084 21.5664 153.873 21.707C153.662 21.8477 153.43 21.9512 153.176 22.0176C152.922 22.084 152.658 22.1172 152.385 22.1172C151.916 22.1172 151.508 22.0352 151.16 21.8711C150.812 21.7031 150.541 21.4434 150.346 21.0918C150.154 20.7402 150.059 20.2832 150.059 19.7207V15.4492H151.846V19.2754C151.846 19.7441 151.93 20.0977 152.098 20.3359C152.266 20.5742 152.533 20.6934 152.9 20.6934C153.264 20.6934 153.549 20.6113 153.756 20.4473C153.963 20.2793 154.107 20.0352 154.189 19.7148C154.275 19.3906 154.318 18.9961 154.318 18.5312V15.4492H156.105Z" fill="#275368"/>
<path d="M61.1543 36.4336L58.0781 45H57.0762L54 36.4336H55.043L57.0469 42.0762C57.1289 42.3027 57.2012 42.5195 57.2637 42.7266C57.3301 42.9336 57.3887 43.1328 57.4395 43.3242C57.4902 43.5156 57.5352 43.7012 57.5742 43.8809C57.6133 43.7012 57.6582 43.5156 57.709 43.3242C57.7598 43.1289 57.8184 42.9277 57.8848 42.7207C57.9512 42.5098 58.0254 42.2891 58.1074 42.0586L60.0996 36.4336H61.1543ZM67.7227 41.7773C67.7227 42.3047 67.6543 42.7754 67.5176 43.1895C67.3809 43.6035 67.1836 43.9531 66.9258 44.2383C66.668 44.5234 66.3555 44.7422 65.9883 44.8945C65.625 45.043 65.2129 45.1172 64.752 45.1172C64.3223 45.1172 63.9277 45.043 63.5684 44.8945C63.2129 44.7422 62.9043 44.5234 62.6426 44.2383C62.3848 43.9531 62.1836 43.6035 62.0391 43.1895C61.8984 42.7754 61.8281 42.3047 61.8281 41.7773C61.8281 41.0742 61.9473 40.4766 62.1855 39.9844C62.4238 39.4883 62.7637 39.1113 63.2051 38.8535C63.6504 38.5918 64.1797 38.4609 64.793 38.4609C65.3789 38.4609 65.8906 38.5918 66.3281 38.8535C66.7695 39.1152 67.1113 39.4941 67.3535 39.9902C67.5996 40.4824 67.7227 41.0781 67.7227 41.7773ZM62.8359 41.7773C62.8359 42.293 62.9043 42.7402 63.041 43.1191C63.1777 43.498 63.3887 43.791 63.6738 43.998C63.959 44.2051 64.3262 44.3086 64.7754 44.3086C65.2207 44.3086 65.5859 44.2051 65.8711 43.998C66.1602 43.791 66.373 43.498 66.5098 43.1191C66.6465 42.7402 66.7148 42.293 66.7148 41.7773C66.7148 41.2656 66.6465 40.8242 66.5098 40.4531C66.373 40.0781 66.1621 39.7891 65.877 39.5859C65.5918 39.3828 65.2227 39.2812 64.7695 39.2812C64.1016 39.2812 63.6113 39.502 63.2988 39.9434C62.9902 40.3848 62.8359 40.9961 62.8359 41.7773ZM70.3828 45H69.4043V35.8828H70.3828V45ZM77.7422 38.5781V45H76.9453L76.8047 44.0977H76.752C76.6191 44.3203 76.4473 44.5078 76.2363 44.6602C76.0254 44.8125 75.7871 44.9258 75.5215 45C75.2598 45.0781 74.9805 45.1172 74.6836 45.1172C74.1758 45.1172 73.75 45.0352 73.4062 44.8711C73.0625 44.707 72.8027 44.4531 72.627 44.1094C72.4551 43.7656 72.3691 43.3242 72.3691 42.7852V38.5781H73.3535V42.7148C73.3535 43.25 73.4746 43.6504 73.7168 43.916C73.959 44.1777 74.3281 44.3086 74.8242 44.3086C75.3008 44.3086 75.6797 44.2188 75.9609 44.0391C76.2461 43.8594 76.4512 43.5957 76.5762 43.248C76.7012 42.8965 76.7637 42.4668 76.7637 41.959V38.5781H77.7422ZM82.8398 38.4609C83.6016 38.4609 84.1777 38.6484 84.5684 39.0234C84.959 39.3945 85.1543 39.9922 85.1543 40.8164V45H84.1934V40.8809C84.1934 40.3457 84.0703 39.9453 83.8242 39.6797C83.582 39.4141 83.209 39.2812 82.7051 39.2812C81.9941 39.2812 81.4941 39.4824 81.2051 39.8848C80.916 40.2871 80.7715 40.8711 80.7715 41.6367V45H79.7988V38.5781H80.584L80.7305 39.5039H80.7832C80.9199 39.2773 81.0938 39.0879 81.3047 38.9355C81.5156 38.7793 81.752 38.6621 82.0137 38.584C82.2754 38.502 82.5508 38.4609 82.8398 38.4609ZM89.2324 44.3203C89.3926 44.3203 89.5566 44.3066 89.7246 44.2793C89.8926 44.252 90.0293 44.2188 90.1348 44.1797V44.9355C90.0215 44.9863 89.8633 45.0293 89.6602 45.0645C89.4609 45.0996 89.2656 45.1172 89.0742 45.1172C88.7344 45.1172 88.4258 45.0586 88.1484 44.9414C87.8711 44.8203 87.6484 44.6172 87.4805 44.332C87.3164 44.0469 87.2344 43.6523 87.2344 43.1484V39.3398H86.3203V38.8652L87.2402 38.4844L87.627 37.0898H88.2129V38.5781H90.0938V39.3398H88.2129V43.1191C88.2129 43.5215 88.3047 43.8223 88.4883 44.0215C88.6758 44.2207 88.9238 44.3203 89.2324 44.3203ZM93.9082 38.4609C94.4551 38.4609 94.9238 38.582 95.3145 38.8242C95.7051 39.0664 96.0039 39.4062 96.2109 39.8438C96.418 40.2773 96.5215 40.7852 96.5215 41.3672V41.9707H92.0859C92.0977 42.7246 92.2852 43.2988 92.6484 43.6934C93.0117 44.0879 93.5234 44.2852 94.1836 44.2852C94.5898 44.2852 94.9492 44.248 95.2617 44.1738C95.5742 44.0996 95.8984 43.9902 96.2344 43.8457V44.7012C95.9102 44.8457 95.5879 44.9512 95.2676 45.0176C94.9512 45.084 94.5762 45.1172 94.1426 45.1172C93.5254 45.1172 92.9863 44.9922 92.5254 44.7422C92.0684 44.4883 91.7129 44.1172 91.459 43.6289C91.2051 43.1406 91.0781 42.543 91.0781 41.8359C91.0781 41.1445 91.1934 40.5469 91.4238 40.043C91.6582 39.5352 91.9863 39.1445 92.4082 38.8711C92.834 38.5977 93.334 38.4609 93.9082 38.4609ZM93.8965 39.2578C93.377 39.2578 92.9629 39.4277 92.6543 39.7676C92.3457 40.1074 92.1621 40.582 92.1035 41.1914H95.502C95.498 40.8086 95.4375 40.4727 95.3203 40.1836C95.207 39.8906 95.0332 39.6641 94.7988 39.5039C94.5645 39.3398 94.2637 39.2578 93.8965 39.2578ZM100.646 38.4609C101.193 38.4609 101.662 38.582 102.053 38.8242C102.443 39.0664 102.742 39.4062 102.949 39.8438C103.156 40.2773 103.26 40.7852 103.26 41.3672V41.9707H98.8242C98.8359 42.7246 99.0234 43.2988 99.3867 43.6934C99.75 44.0879 100.262 44.2852 100.922 44.2852C101.328 44.2852 101.688 44.248 102 44.1738C102.312 44.0996 102.637 43.9902 102.973 43.8457V44.7012C102.648 44.8457 102.326 44.9512 102.006 45.0176C101.689 45.084 101.314 45.1172 100.881 45.1172C100.264 45.1172 99.7246 44.9922 99.2637 44.7422C98.8066 44.4883 98.4512 44.1172 98.1973 43.6289C97.9434 43.1406 97.8164 42.543 97.8164 41.8359C97.8164 41.1445 97.9316 40.5469 98.1621 40.043C98.3965 39.5352 98.7246 39.1445 99.1465 38.8711C99.5723 38.5977 100.072 38.4609 100.646 38.4609ZM100.635 39.2578C100.115 39.2578 99.7012 39.4277 99.3926 39.7676C99.084 40.1074 98.9004 40.582 98.8418 41.1914H102.24C102.236 40.8086 102.176 40.4727 102.059 40.1836C101.945 39.8906 101.771 39.6641 101.537 39.5039C101.303 39.3398 101.002 39.2578 100.635 39.2578ZM107.83 38.4609C107.959 38.4609 108.094 38.4688 108.234 38.4844C108.375 38.4961 108.5 38.5137 108.609 38.5371L108.486 39.4395C108.381 39.4121 108.264 39.3906 108.135 39.375C108.006 39.3594 107.885 39.3516 107.771 39.3516C107.514 39.3516 107.27 39.4043 107.039 39.5098C106.812 39.6113 106.613 39.7598 106.441 39.9551C106.27 40.1465 106.135 40.3789 106.037 40.6523C105.939 40.9219 105.891 41.2227 105.891 41.5547V45H104.912V38.5781H105.721L105.826 39.7617H105.867C106 39.5234 106.16 39.3066 106.348 39.1113C106.535 38.9121 106.752 38.7539 106.998 38.6367C107.248 38.5195 107.525 38.4609 107.83 38.4609ZM110.795 38.5781V45H109.822V38.5781H110.795ZM110.32 36.1758C110.48 36.1758 110.617 36.2285 110.73 36.334C110.848 36.4355 110.906 36.5957 110.906 36.8145C110.906 37.0293 110.848 37.1895 110.73 37.2949C110.617 37.4004 110.48 37.4531 110.32 37.4531C110.152 37.4531 110.012 37.4004 109.898 37.2949C109.789 37.1895 109.734 37.0293 109.734 36.8145C109.734 36.5957 109.789 36.4355 109.898 36.334C110.012 36.2285 110.152 36.1758 110.32 36.1758ZM115.898 38.4609C116.66 38.4609 117.236 38.6484 117.627 39.0234C118.018 39.3945 118.213 39.9922 118.213 40.8164V45H117.252V40.8809C117.252 40.3457 117.129 39.9453 116.883 39.6797C116.641 39.4141 116.268 39.2812 115.764 39.2812C115.053 39.2812 114.553 39.4824 114.264 39.8848C113.975 40.2871 113.83 40.8711 113.83 41.6367V45H112.857V38.5781H113.643L113.789 39.5039H113.842C113.979 39.2773 114.152 39.0879 114.363 38.9355C114.574 38.7793 114.811 38.6621 115.072 38.584C115.334 38.502 115.609 38.4609 115.898 38.4609ZM122.01 47.8828C121.166 47.8828 120.516 47.7246 120.059 47.4082C119.602 47.0957 119.373 46.6562 119.373 46.0898C119.373 45.6875 119.5 45.3438 119.754 45.0586C120.012 44.7734 120.367 44.584 120.82 44.4902C120.652 44.4121 120.508 44.2949 120.387 44.1387C120.27 43.9824 120.211 43.8027 120.211 43.5996C120.211 43.3652 120.275 43.1602 120.404 42.9844C120.537 42.8047 120.738 42.6328 121.008 42.4688C120.672 42.332 120.398 42.1016 120.188 41.7773C119.98 41.4492 119.877 41.0684 119.877 40.6348C119.877 40.1738 119.973 39.7812 120.164 39.457C120.355 39.1289 120.633 38.8789 120.996 38.707C121.359 38.5352 121.799 38.4492 122.314 38.4492C122.428 38.4492 122.541 38.4551 122.654 38.4668C122.771 38.4746 122.883 38.4883 122.988 38.5078C123.094 38.5234 123.186 38.543 123.264 38.5664H125.467V39.1934L124.283 39.3398C124.4 39.4922 124.498 39.6758 124.576 39.8906C124.654 40.1055 124.693 40.3438 124.693 40.6055C124.693 41.2461 124.477 41.7559 124.043 42.1348C123.609 42.5098 123.014 42.6973 122.256 42.6973C122.076 42.6973 121.893 42.6816 121.705 42.6504C121.514 42.7559 121.367 42.873 121.266 43.002C121.168 43.1309 121.119 43.2793 121.119 43.4473C121.119 43.5723 121.156 43.6719 121.23 43.7461C121.309 43.8203 121.42 43.875 121.564 43.9102C121.709 43.9414 121.883 43.957 122.086 43.957H123.217C123.916 43.957 124.451 44.1035 124.822 44.3965C125.197 44.6895 125.385 45.1172 125.385 45.6797C125.385 46.3906 125.096 46.9355 124.518 47.3145C123.939 47.6934 123.104 47.8828 122.01 47.8828ZM122.039 47.1211C122.57 47.1211 123.01 47.0664 123.357 46.957C123.709 46.8516 123.971 46.6973 124.143 46.4941C124.318 46.2949 124.406 46.0566 124.406 45.7793C124.406 45.5215 124.348 45.3262 124.23 45.1934C124.113 45.0645 123.941 44.9785 123.715 44.9355C123.488 44.8887 123.211 44.8652 122.883 44.8652H121.77C121.48 44.8652 121.229 44.9102 121.014 45C120.799 45.0898 120.633 45.2227 120.516 45.3984C120.402 45.5742 120.346 45.793 120.346 46.0547C120.346 46.4023 120.492 46.666 120.785 46.8457C121.078 47.0293 121.496 47.1211 122.039 47.1211ZM122.291 41.9883C122.756 41.9883 123.105 41.8711 123.34 41.6367C123.574 41.4023 123.691 41.0605 123.691 40.6113C123.691 40.1309 123.572 39.7715 123.334 39.5332C123.096 39.291 122.744 39.1699 122.279 39.1699C121.834 39.1699 121.49 39.2949 121.248 39.5449C121.01 39.791 120.891 40.1523 120.891 40.6289C120.891 41.0664 121.012 41.4023 121.254 41.6367C121.496 41.8711 121.842 41.9883 122.291 41.9883ZM140.426 36.4336L138.246 45H136.178L135.018 40.5C134.994 40.4141 134.963 40.2832 134.924 40.1074C134.885 39.9316 134.844 39.7402 134.801 39.5332C134.758 39.3223 134.719 39.125 134.684 38.9414C134.652 38.7539 134.631 38.6055 134.619 38.4961C134.607 38.6055 134.584 38.752 134.549 38.9355C134.518 39.1191 134.48 39.3145 134.438 39.5215C134.398 39.7285 134.359 39.9219 134.32 40.1016C134.281 40.2812 134.25 40.418 134.227 40.5117L133.072 45H131.01L128.824 36.4336H130.611L131.707 41.1094C131.738 41.25 131.773 41.418 131.812 41.6133C131.855 41.8086 131.896 42.0137 131.936 42.2285C131.979 42.4395 132.016 42.6445 132.047 42.8438C132.082 43.0391 132.107 43.209 132.123 43.3535C132.143 43.2051 132.168 43.0332 132.199 42.8379C132.23 42.6387 132.264 42.4375 132.299 42.2344C132.338 42.0273 132.377 41.8359 132.416 41.6602C132.455 41.4844 132.49 41.3418 132.521 41.2324L133.77 36.4336H135.486L136.734 41.2324C136.762 41.3379 136.793 41.4805 136.828 41.6602C136.867 41.8359 136.906 42.0273 136.945 42.2344C136.984 42.4414 137.02 42.6445 137.051 42.8438C137.086 43.0391 137.111 43.209 137.127 43.3535C137.154 43.1582 137.191 42.9219 137.238 42.6445C137.289 42.3633 137.342 42.084 137.396 41.8066C137.455 41.5293 137.506 41.2969 137.549 41.1094L138.639 36.4336H140.426ZM144.047 38.3145C144.926 38.3145 145.6 38.5059 146.068 38.8887C146.537 39.2715 146.771 39.8535 146.771 40.6348V45H145.523L145.178 44.1094H145.131C144.943 44.3438 144.752 44.5352 144.557 44.6836C144.361 44.832 144.137 44.9414 143.883 45.0117C143.629 45.082 143.32 45.1172 142.957 45.1172C142.57 45.1172 142.223 45.043 141.914 44.8945C141.609 44.7461 141.369 44.5195 141.193 44.2148C141.018 43.9062 140.93 43.5156 140.93 43.043C140.93 42.3477 141.174 41.8359 141.662 41.5078C142.15 41.1758 142.883 40.9922 143.859 40.957L144.996 40.9219V40.6348C144.996 40.291 144.906 40.0391 144.727 39.8789C144.547 39.7188 144.297 39.6387 143.977 39.6387C143.66 39.6387 143.35 39.6836 143.045 39.7734C142.74 39.8633 142.436 39.9766 142.131 40.1133L141.539 38.9062C141.887 38.7227 142.275 38.5781 142.705 38.4727C143.139 38.3672 143.586 38.3145 144.047 38.3145ZM144.996 41.9648L144.305 41.9883C143.727 42.0039 143.324 42.1074 143.098 42.2988C142.875 42.4902 142.764 42.7422 142.764 43.0547C142.764 43.3281 142.844 43.5234 143.004 43.6406C143.164 43.7539 143.373 43.8105 143.631 43.8105C144.014 43.8105 144.336 43.6973 144.598 43.4707C144.863 43.2441 144.996 42.9219 144.996 42.5039V41.9648ZM150.404 45H148.617V35.8828H150.404V45ZM154.986 38.3262C155.592 38.3262 156.113 38.4434 156.551 38.6777C156.988 38.9082 157.326 39.2441 157.564 39.6855C157.803 40.127 157.922 40.666 157.922 41.3027V42.1699H153.697C153.717 42.6738 153.867 43.0703 154.148 43.3594C154.434 43.6445 154.828 43.7871 155.332 43.7871C155.75 43.7871 156.133 43.7441 156.48 43.6582C156.828 43.5723 157.186 43.4434 157.553 43.2715V44.6543C157.229 44.8145 156.889 44.9316 156.533 45.0059C156.182 45.0801 155.754 45.1172 155.25 45.1172C154.594 45.1172 154.012 44.9961 153.504 44.7539C153 44.5117 152.604 44.1426 152.314 43.6465C152.029 43.1504 151.887 42.5254 151.887 41.7715C151.887 41.0059 152.016 40.3691 152.273 39.8613C152.535 39.3496 152.898 38.9668 153.363 38.7129C153.828 38.4551 154.369 38.3262 154.986 38.3262ZM154.998 39.5977C154.65 39.5977 154.361 39.709 154.131 39.9316C153.904 40.1543 153.773 40.5039 153.738 40.9805H156.246C156.242 40.7148 156.193 40.4785 156.1 40.2715C156.01 40.0645 155.873 39.9004 155.689 39.7793C155.51 39.6582 155.279 39.5977 154.998 39.5977ZM163.945 43.0547C163.945 43.5 163.84 43.877 163.629 44.1855C163.422 44.4902 163.111 44.7227 162.697 44.8828C162.283 45.0391 161.768 45.1172 161.15 45.1172C160.693 45.1172 160.301 45.0879 159.973 45.0293C159.648 44.9707 159.32 44.873 158.988 44.7363V43.2598C159.344 43.4199 159.725 43.5527 160.131 43.6582C160.541 43.7598 160.9 43.8105 161.209 43.8105C161.557 43.8105 161.805 43.7598 161.953 43.6582C162.105 43.5527 162.182 43.416 162.182 43.248C162.182 43.1387 162.15 43.041 162.088 42.9551C162.029 42.8652 161.9 42.7656 161.701 42.6562C161.502 42.543 161.189 42.3965 160.764 42.2168C160.354 42.0449 160.016 41.8711 159.75 41.6953C159.488 41.5195 159.293 41.3125 159.164 41.0742C159.039 40.832 158.977 40.5254 158.977 40.1543C158.977 39.5488 159.211 39.0938 159.68 38.7891C160.152 38.4805 160.783 38.3262 161.572 38.3262C161.979 38.3262 162.365 38.3672 162.732 38.4492C163.104 38.5312 163.484 38.6621 163.875 38.8418L163.336 40.1309C163.012 39.9902 162.705 39.875 162.416 39.7852C162.131 39.6953 161.84 39.6504 161.543 39.6504C161.281 39.6504 161.084 39.6855 160.951 39.7559C160.818 39.8262 160.752 39.9336 160.752 40.0781C160.752 40.1836 160.785 40.2773 160.852 40.3594C160.922 40.4414 161.055 40.5332 161.25 40.6348C161.449 40.7324 161.74 40.8594 162.123 41.0156C162.494 41.168 162.816 41.3281 163.09 41.4961C163.363 41.6602 163.574 41.8652 163.723 42.1113C163.871 42.3535 163.945 42.668 163.945 43.0547Z" fill="#275368"/>
<line opacity="0.5" x1="54" y1="29.5" x2="165" y2="29.5" stroke="#275368"/>
</svg>
