<svg width="93" height="118" viewBox="0 0 93 118" fill="none" xmlns="http://www.w3.org/2000/svg">
<path d="M73.7278 117.486L63.1648 117.209L52.9987 105.836L46.7939 105.691L38.2296 107.452L36.44 104.595L38.9948 100.712L33.3983 99.3587L31.573 94.8822L11.0287 103.035L7.55913 98.5474L3.99348 98.75L4.01783 96.1752L7.96304 91.5404L6.81478 88.6261L0 88.0774L12.2717 80.7678L33.3383 72.1165L44.0278 63.1961L45.9096 44.517L41.6874 30.5487L32.3457 34.1178L31.617 38.4496L28.4626 35.6252L22.3557 36.7717L43.6587 15.0139L71.7713 7.59869L85.7539 15.9148L92.4417 28.8161L88.7509 31.6826L81.5978 29.9039L78.477 39.5226L82.67 53.0665L75.2169 61.1074L81.0926 64.4878L77.3809 80.3869L82.3874 88.4404L92.7265 92.1461L90.9878 106.75L79.8091 111.631L73.7278 117.486Z" fill="#EAF0F6"/>
<path d="M34.4585 29.5696L45.5255 21.1552L55.3785 29.3374L55.5333 29.1513L45.5324 20.8461L34.312 29.377" fill="#1D1D1B"/>
<path d="M72.3474 26.147L55.2826 29.1522L62.6065 45.7148L51.8648 64.8278L49.3452 84.1935L24.2361 87.1078L11.0426 86.2917L11.0278 86.5331L24.2426 87.35L49.5609 84.4118L52.0987 64.9052L62.877 45.7278L55.6291 29.3365L72.3891 26.3852" fill="#1D1D1B"/>
<path d="M13.2285 97.8848L24.3233 87.3165L24.1563 87.1413L13.0615 97.7096" fill="#1D1D1B"/>
<path d="M42.2654 103.123L55.4863 99.6704L55.4254 99.4365L42.2041 102.889" fill="#1D1D1B"/>
<path d="M69.6539 85.7517L84.4326 97.3196L69.7213 106.64L55.6474 99.5148L68.5387 84.3074L54.2965 65.0383L73.5778 68.4382L62.8513 45.6696L62.6322 45.7726L73.16 68.1191L53.7422 64.6948L68.23 84.2974L55.2648 99.5922L69.7348 106.918L84.8513 97.3404L69.8026 85.5617" fill="#1D1D1B"/>
<path d="M42.6108 14.9226H38.809L33.1182 8.18261L33.2477 2.21218L41.7573 0.274353L49.8056 7.83392L42.6108 14.9226Z" fill="#EAF0F6"/>
<path d="M49.8232 95.78C43.484 96.8809 37.4532 92.6344 36.3523 86.2957C35.2519 79.9565 39.498 73.9261 45.8371 72.8248C52.1758 71.7244 58.2066 75.9709 59.308 82.3096C60.4084 88.6483 56.1623 94.6796 49.8232 95.78Z" fill="#D20466"/>
<path d="M69.7283 115.507C64.9074 115.507 61 111.599 61 106.779C61 101.959 64.9074 98.0504 69.7283 98.0504C74.5483 98.0504 78.4561 101.959 78.4561 106.779C78.4561 111.599 74.5483 115.507 69.7283 115.507Z" fill="#9BB7DD"/>
<path d="M24.2395 95.2544C19.8069 95.2544 16.2134 91.6613 16.2134 87.2291C16.2134 82.7965 19.8069 79.2035 24.2395 79.2035C28.6721 79.2035 32.2651 82.7965 32.2651 87.2291C32.2651 91.6613 28.6721 95.2544 24.2395 95.2544Z" fill="#A0C765"/>
<path d="M34.3849 31.73C33.1389 31.73 32.1284 30.7196 32.1284 29.473C32.1284 28.227 33.1389 27.2165 34.3849 27.2165C35.6315 27.2165 36.6419 28.227 36.6419 29.473C36.6419 30.7196 35.6315 31.73 34.3849 31.73Z" fill="#E67B9F"/>
<path d="M55.4556 103.006C53.5491 103.006 52.0034 101.46 52.0034 99.5535C52.0034 97.6465 53.5491 96.1009 55.4556 96.1009C57.3625 96.1009 58.9086 97.6465 58.9086 99.5535C58.9086 101.46 57.3625 103.006 55.4556 103.006Z" fill="#A43F66"/>
<path d="M69.7284 91.9591C66.2476 91.9591 63.4263 89.1378 63.4263 85.657C63.4263 82.1761 66.2476 79.3548 69.7284 79.3548C73.2093 79.3548 76.0306 82.1761 76.0306 85.657C76.0306 89.1378 73.2093 91.9591 69.7284 91.9591Z" fill="#107FA2"/>
<path d="M73.3691 73.2635C70.6156 73.2635 68.3843 71.0313 68.3843 68.2787C68.3843 65.5257 70.6156 63.2939 73.3691 63.2939C76.1217 63.2939 78.3538 65.5257 78.3538 68.2787C78.3538 71.0313 76.1217 73.2635 73.3691 73.2635Z" fill="#9BB7DD"/>
<path d="M84.6419 101.797C81.9254 101.797 79.7236 99.5939 79.7236 96.8783C79.7236 94.1617 81.9254 91.9591 84.6419 91.9591C87.3584 91.9591 89.5606 94.1617 89.5606 96.8783C89.5606 99.5939 87.3584 101.797 84.6419 101.797Z" fill="#88B825"/>
<path d="M13.1446 100.34C11.7403 100.34 10.6016 99.2017 10.6016 97.7969C10.6016 96.393 11.7403 95.2543 13.1446 95.2543C14.5485 95.2543 15.6872 96.393 15.6872 97.7969C15.6872 99.2017 14.5485 100.34 13.1446 100.34Z" fill="#EC690B"/>
<path d="M42.2347 105.039C41.1116 105.039 40.2012 104.129 40.2012 103.006C40.2012 101.883 41.1116 100.972 42.2347 100.972C43.3577 100.972 44.2681 101.883 44.2681 103.006C44.2681 104.129 43.3577 105.039 42.2347 105.039Z" fill="#88B825"/>
<path d="M11.0354 88.5209C9.87018 88.5209 8.92627 87.577 8.92627 86.4122C8.92627 85.247 9.87018 84.3026 11.0354 84.3026C12.2002 84.3026 13.145 85.247 13.145 86.4122C13.145 87.577 12.2002 88.5209 11.0354 88.5209Z" fill="#107FA2"/>
<path d="M55.4555 32.0744C53.8929 32.0744 52.626 30.807 52.626 29.2444C52.626 27.6813 53.8929 26.4144 55.4555 26.4144C57.019 26.4144 58.286 27.6813 58.286 29.2444C58.286 30.807 57.019 32.0744 55.4555 32.0744Z" fill="#FECE21"/>
<path d="M45.643 20.9609L40.97 7.55872L40.7417 7.63828L45.4143 21.0405" fill="#1D1D1B"/>
<path d="M40.8559 11.8126C38.5281 11.8126 36.6416 9.92608 36.6416 7.59869C36.6416 5.2713 38.5281 3.38434 40.8559 3.38434C43.1833 3.38434 45.0699 5.2713 45.0699 7.59869C45.0699 9.92608 43.1833 11.8126 40.8559 11.8126Z" fill="#EB680A"/>
<path d="M45.5288 25.1952C43.2123 25.1952 41.3345 23.3174 41.3345 21.0009C41.3345 18.6844 43.2123 16.8061 45.5288 16.8061C47.8453 16.8061 49.7236 18.6844 49.7236 21.0009C49.7236 23.3174 47.8453 25.1952 45.5288 25.1952Z" fill="#107FA2"/>
<path d="M72.2603 26.2126L62.6338 45.6674L62.8507 45.7748L72.4768 26.32" fill="#1D1D1B"/>
<path d="M62.7423 59.01C55.4027 59.01 49.4531 53.0604 49.4531 45.7213C49.4531 38.3822 55.4027 32.4326 62.7423 32.4326C70.0809 32.4326 76.0305 38.3822 76.0305 45.7213C76.0305 53.0604 70.0809 59.01 62.7423 59.01Z" fill="#198BB3"/>
<path d="M86.6615 26.1748L71.4415 12.9796L71.2837 13.1622L86.5033 26.3574" fill="#1D1D1B"/>
<path d="M86.5828 29.2444C84.9375 29.2444 83.6045 27.9109 83.6045 26.2661C83.6045 24.6217 84.9375 23.2883 86.5828 23.2883C88.2275 23.2883 89.5606 24.6217 89.5606 26.2661C89.5606 27.9109 88.2275 29.2444 86.5828 29.2444Z" fill="#FECE21"/>
<path d="M72.4886 26.257L71.4708 12.9048L58.4795 17.457L58.5599 17.6852L71.2538 13.237L72.2478 26.2752" fill="#1D1D1B"/>
<path d="M58.5195 22.0717C56.0338 22.0717 54.019 20.0569 54.019 17.5713C54.019 15.0861 56.0338 13.0709 58.5195 13.0709C61.0056 13.0709 63.0199 15.0861 63.0199 17.5713C63.0199 20.0569 61.0056 22.0717 58.5195 22.0717Z" fill="#8F1554"/>
<path d="M72.3682 31.5317C69.4604 31.5317 67.1025 29.1743 67.1025 26.2661C67.1025 23.3582 69.4604 21.0009 72.3682 21.0009C75.2764 21.0009 77.6338 23.3582 77.6338 26.2661C77.6338 29.1743 75.2764 31.5317 72.3682 31.5317Z" fill="#EB680A"/>
<path d="M71.3621 16.0487C69.7173 16.0487 68.3843 14.7157 68.3843 13.0709C68.3843 11.4261 69.7173 10.093 71.3621 10.093C73.0073 10.093 74.3404 11.4261 74.3404 13.0709C74.3404 14.7157 73.0073 16.0487 71.3621 16.0487Z" fill="#88B825"/>
</svg>
