<svg width="200" height="118" viewBox="0 0 200 118" fill="none" xmlns="http://www.w3.org/2000/svg">
<g clip-path="url(#clip0_13_270)">
<path d="M74.7513 117.486L64.1882 117.209L54.0221 105.836L47.8174 105.691L39.253 107.452L37.4634 104.595L40.0182 100.712L34.4217 99.3587L32.5965 94.8822L12.0521 103.035L8.58257 98.5474L5.01692 98.75L5.04126 96.1752L8.98648 91.5404L7.83822 88.6261L1.02344 88.0774L13.2952 80.7678L34.3617 72.1165L45.0513 63.1961L46.933 44.517L42.7108 30.5487L33.3691 34.1178L32.6404 38.4496L29.486 35.6252L23.3791 36.7717L44.6821 15.0139L72.7947 7.59869L86.7773 15.9148L93.4652 28.8161L89.7743 31.6826L82.6213 29.9039L79.5004 39.5226L83.6934 53.0665L76.2404 61.1074L82.116 64.4878L78.4043 80.3869L83.4108 88.4404L93.75 92.1461L92.0113 106.75L80.8326 111.631L74.7513 117.486Z" fill="#EAF0F6"/>
<path d="M35.4815 29.5696L46.5484 21.1552L56.4015 29.3374L56.5563 29.1513L46.5554 20.8461L35.335 29.377" fill="#1D1D1B"/>
<path d="M73.3708 26.147L56.306 29.1522L63.63 45.7148L52.8882 64.8278L50.3687 84.1935L25.2595 87.1078L12.0661 86.2917L12.0513 86.5331L25.2661 87.35L50.5843 84.4118L53.1221 64.9052L63.9004 45.7278L56.6526 29.3365L73.4126 26.3852" fill="#1D1D1B"/>
<path d="M14.2519 97.8848L25.3467 87.3165L25.1797 87.1413L14.085 97.7096" fill="#1D1D1B"/>
<path d="M43.2888 103.123L56.5097 99.6704L56.4488 99.4365L43.2275 102.889" fill="#1D1D1B"/>
<path d="M70.6774 85.7517L85.4561 97.3196L70.7448 106.64L56.6708 99.5148L69.5621 84.3074L55.32 65.0383L74.6013 68.4382L63.8748 45.6696L63.6556 45.7726L74.1834 68.1191L54.7656 64.6948L69.2535 84.2974L56.2882 99.5922L70.7582 106.918L85.8748 97.3404L70.8261 85.5617" fill="#1D1D1B"/>
<path d="M43.6342 14.9226H39.8325L34.1416 8.18261L34.2712 2.21218L42.7807 0.274353L50.829 7.83392L43.6342 14.9226Z" fill="#EAF0F6"/>
<path d="M50.8466 95.78C44.5075 96.8809 38.4766 92.6344 37.3757 86.2957C36.2753 79.9565 40.5214 73.9261 46.8605 72.8248C53.1992 71.7244 59.2301 75.9709 60.3314 82.3096C61.4318 88.6483 57.1857 94.6796 50.8466 95.78Z" fill="#D20466"/>
<path d="M70.7517 115.507C65.9308 115.507 62.0234 111.599 62.0234 106.779C62.0234 101.959 65.9308 98.0504 70.7517 98.0504C75.5717 98.0504 79.4795 101.959 79.4795 106.779C79.4795 111.599 75.5717 115.507 70.7517 115.507Z" fill="#9BB7DD"/>
<path d="M25.2629 95.2544C20.8303 95.2544 17.2368 91.6613 17.2368 87.2291C17.2368 82.7965 20.8303 79.2035 25.2629 79.2035C29.6955 79.2035 33.2886 82.7965 33.2886 87.2291C33.2886 91.6613 29.6955 95.2544 25.2629 95.2544Z" fill="#A0C765"/>
<path d="M35.4084 31.73C34.1623 31.73 33.1519 30.7196 33.1519 29.473C33.1519 28.227 34.1623 27.2165 35.4084 27.2165C36.6549 27.2165 37.6653 28.227 37.6653 29.473C37.6653 30.7196 36.6549 31.73 35.4084 31.73Z" fill="#E67B9F"/>
<path d="M56.479 103.006C54.5725 103.006 53.0269 101.46 53.0269 99.5535C53.0269 97.6465 54.5725 96.1009 56.479 96.1009C58.386 96.1009 59.9321 97.6465 59.9321 99.5535C59.9321 101.46 58.386 103.006 56.479 103.006Z" fill="#A43F66"/>
<path d="M70.7519 91.9591C67.271 91.9591 64.4497 89.1378 64.4497 85.657C64.4497 82.1761 67.271 79.3548 70.7519 79.3548C74.2328 79.3548 77.0541 82.1761 77.0541 85.657C77.0541 89.1378 74.2328 91.9591 70.7519 91.9591Z" fill="#107FA2"/>
<path d="M74.3925 73.2635C71.639 73.2635 69.4077 71.0313 69.4077 68.2787C69.4077 65.5257 71.639 63.2939 74.3925 63.2939C77.1451 63.2939 79.3773 65.5257 79.3773 68.2787C79.3773 71.0313 77.1451 73.2635 74.3925 73.2635Z" fill="#9BB7DD"/>
<path d="M85.6653 101.797C82.9488 101.797 80.7471 99.5939 80.7471 96.8783C80.7471 94.1617 82.9488 91.9591 85.6653 91.9591C88.3819 91.9591 90.584 94.1617 90.584 96.8783C90.584 99.5939 88.3819 101.797 85.6653 101.797Z" fill="#88B825"/>
<path d="M14.168 100.34C12.7637 100.34 11.625 99.2017 11.625 97.7969C11.625 96.393 12.7637 95.2543 14.168 95.2543C15.572 95.2543 16.7107 96.393 16.7107 97.7969C16.7107 99.2017 15.572 100.34 14.168 100.34Z" fill="#EC690B"/>
<path d="M43.2581 105.039C42.135 105.039 41.2246 104.129 41.2246 103.006C41.2246 101.883 42.135 100.972 43.2581 100.972C44.3811 100.972 45.2916 101.883 45.2916 103.006C45.2916 104.129 44.3811 105.039 43.2581 105.039Z" fill="#88B825"/>
<path d="M12.0588 88.5209C10.8936 88.5209 9.94971 87.577 9.94971 86.4122C9.94971 85.247 10.8936 84.3026 12.0588 84.3026C13.2236 84.3026 14.1684 85.247 14.1684 86.4122C14.1684 87.577 13.2236 88.5209 12.0588 88.5209Z" fill="#107FA2"/>
<path d="M56.479 32.0744C54.9164 32.0744 53.6494 30.807 53.6494 29.2444C53.6494 27.6813 54.9164 26.4144 56.479 26.4144C58.0425 26.4144 59.3094 27.6813 59.3094 29.2444C59.3094 30.807 58.0425 32.0744 56.479 32.0744Z" fill="#FECE21"/>
<path d="M46.6664 20.9609L41.9934 7.55872L41.7651 7.63828L46.4377 21.0405" fill="#1D1D1B"/>
<path d="M41.8794 11.8126C39.5516 11.8126 37.665 9.92611 37.665 7.59872C37.665 5.27133 39.5516 3.38437 41.8794 3.38437C44.2068 3.38437 46.0933 5.27133 46.0933 7.59872C46.0933 9.92611 44.2068 11.8126 41.8794 11.8126Z" fill="#EB680A"/>
<path d="M46.5523 25.1952C44.2357 25.1952 42.3579 23.3174 42.3579 21.0009C42.3579 18.6844 44.2357 16.8061 46.5523 16.8061C48.8688 16.8061 50.747 18.6844 50.747 21.0009C50.747 23.3174 48.8688 25.1952 46.5523 25.1952Z" fill="#107FA2"/>
<path d="M73.2833 26.2126L63.6567 45.6674L63.8737 45.7748L73.4998 26.32" fill="#1D1D1B"/>
<path d="M63.7657 59.01C56.4261 59.01 50.4766 53.0604 50.4766 45.7213C50.4766 38.3822 56.4261 32.4326 63.7657 32.4326C71.1044 32.4326 77.054 38.3822 77.054 45.7213C77.054 53.0604 71.1044 59.01 63.7657 59.01Z" fill="#198BB3"/>
<path d="M87.685 26.1748L72.465 12.9796L72.3071 13.1622L87.5267 26.3574" fill="#1D1D1B"/>
<path d="M87.6062 29.2444C85.961 29.2444 84.6279 27.9109 84.6279 26.2661C84.6279 24.6217 85.961 23.2883 87.6062 23.2883C89.251 23.2883 90.584 24.6217 90.584 26.2661C90.584 27.9109 89.251 29.2444 87.6062 29.2444Z" fill="#FECE21"/>
<path d="M73.5121 26.257L72.4942 12.9048L59.5029 17.457L59.5834 17.6852L72.2773 13.237L73.2712 26.2752" fill="#1D1D1B"/>
<path d="M59.5429 22.0717C57.0573 22.0717 55.0425 20.0569 55.0425 17.5713C55.0425 15.0861 57.0573 13.0709 59.5429 13.0709C62.029 13.0709 64.0434 15.0861 64.0434 17.5713C64.0434 20.0569 62.029 22.0717 59.5429 22.0717Z" fill="#8F1554"/>
<path d="M73.3916 31.5318C70.4838 31.5318 68.126 29.1744 68.126 26.2661C68.126 23.3583 70.4838 21.0009 73.3916 21.0009C76.2999 21.0009 78.6573 23.3583 78.6573 26.2661C78.6573 29.1744 76.2999 31.5318 73.3916 31.5318Z" fill="#EB680A"/>
<path d="M72.3855 16.0487C70.7408 16.0487 69.4077 14.7157 69.4077 13.0709C69.4077 11.4261 70.7408 10.093 72.3855 10.093C74.0308 10.093 75.3638 11.4261 75.3638 13.0709C75.3638 14.7157 74.0308 16.0487 72.3855 16.0487Z" fill="#88B825"/>
<path d="M198.736 61.0313H105.569V61.3304H198.736V61.0313Z" fill="#198BB3"/>
<path d="M111.835 31.1535C112.116 31.227 112.256 31.4057 112.256 31.6904V31.7091C112.256 31.8878 112.183 32.0339 112.037 32.1483C111.894 32.2578 111.736 32.2904 111.561 32.2457C111.276 32.1722 110.987 32.1361 110.695 32.1361C109.742 32.1361 108.929 32.4735 108.255 33.1487C107.579 33.8239 107.241 34.6391 107.241 35.5948C107.241 36.5509 107.579 37.3661 108.255 38.0413C108.929 38.7122 109.742 39.0478 110.695 39.0478C110.987 39.0478 111.276 39.0131 111.561 38.9439C111.736 38.8996 111.894 38.9318 112.037 39.0418C112.183 39.1518 112.256 39.2978 112.256 39.4809V39.4931C112.256 39.7822 112.116 39.9631 111.835 40.0365C111.461 40.13 111.08 40.1765 110.695 40.1765C109.429 40.1765 108.349 39.7291 107.455 38.8344C106.561 37.9396 106.113 36.86 106.113 35.5948C106.113 34.33 106.561 33.2504 107.455 32.3552C108.349 31.4609 109.429 31.0135 110.695 31.0135C111.08 31.0135 111.461 31.0604 111.835 31.1535Z" fill="#878787"/>
<path d="M116.381 34.6552C115.77 34.6552 115.25 34.8709 114.819 35.3022C114.391 35.7335 114.178 36.2539 114.178 36.8635C114.178 36.9735 114.186 37.0813 114.202 37.187L118.064 35.4422C117.625 34.9178 117.064 34.6552 116.381 34.6552ZM119.406 35.4604C119.471 35.5987 119.477 35.7409 119.425 35.8874C119.372 36.03 119.274 36.1339 119.132 36.1991C118.562 36.4552 117.814 36.7926 116.887 37.2117C115.736 37.7322 114.99 38.0696 114.648 38.2239C115.087 38.7852 115.665 39.0661 116.381 39.0661C116.856 39.0661 117.288 38.9256 117.673 38.6452C118.048 38.373 118.31 38.0187 118.461 37.5839C118.55 37.3317 118.729 37.2056 118.998 37.2056C119.189 37.2056 119.341 37.2843 119.455 37.4435C119.565 37.5978 119.587 37.7665 119.522 37.9496C119.295 38.6087 118.896 39.1413 118.327 39.5478C117.745 39.967 117.096 40.1765 116.381 40.1765C115.461 40.1765 114.676 39.8513 114.025 39.2004C113.375 38.5496 113.049 37.7643 113.049 36.8456C113.049 35.9261 113.375 35.1413 114.025 34.4909C114.676 33.84 115.461 33.5143 116.381 33.5143C117.043 33.5143 117.649 33.6956 118.198 34.0574C118.739 34.4113 119.142 34.8791 119.406 35.4604Z" fill="#878787"/>
<path d="M123.512 31.0135C123.666 31.0135 123.798 31.0661 123.908 31.1722C124.014 31.2818 124.067 31.4139 124.067 31.5683V31.5804C124.067 31.7352 124.014 31.8678 123.908 31.9774C123.798 32.0831 123.666 32.1361 123.512 32.1361H123.164C122.782 32.1361 122.457 32.27 122.188 32.5387C121.923 32.807 121.789 33.1322 121.785 33.5144V33.5209H123.512C123.666 33.5209 123.798 33.5757 123.908 33.6852C124.014 33.7913 124.067 33.9213 124.067 34.0757V34.0878C124.067 34.2426 124.014 34.3748 123.908 34.4848C123.798 34.5944 123.666 34.6491 123.512 34.6491H121.785V39.6213C121.785 39.7757 121.731 39.9061 121.621 40.0118C121.511 40.1218 121.38 40.1765 121.23 40.1765H121.212C121.061 40.1765 120.932 40.1218 120.821 40.0118C120.712 39.9061 120.657 39.7757 120.657 39.6213V33.5144C120.665 32.8191 120.909 32.2296 121.388 31.7457C121.877 31.2574 122.468 31.0135 123.164 31.0135" fill="#878787"/>
<path d="M126.05 39.6213C126.05 39.7756 125.995 39.9061 125.886 40.0117C125.776 40.1217 125.646 40.1765 125.495 40.1765H125.476C125.326 40.1765 125.196 40.1217 125.087 40.0117C124.976 39.9061 124.921 39.7756 124.921 39.6213V36.2843C124.921 35.52 125.192 34.8665 125.733 34.3256C126.274 33.7852 126.926 33.5143 127.691 33.5143C128.451 33.5143 129.103 33.7852 129.643 34.3256C130.184 34.8665 130.454 35.52 130.454 36.2843V39.6213C130.454 39.7756 130.4 39.9061 130.29 40.0117C130.184 40.1217 130.054 40.1765 129.899 40.1765H129.887C129.733 40.1765 129.601 40.1217 129.491 40.0117C129.381 39.9061 129.326 39.7756 129.326 39.6213V36.2843C129.326 35.8326 129.167 35.4465 128.85 35.1248C128.529 34.8039 128.143 34.6435 127.691 34.6435C127.236 34.6435 126.847 34.8039 126.526 35.1248C126.209 35.4465 126.05 35.8326 126.05 36.2843" fill="#878787"/>
<path d="M134.823 34.6552C134.213 34.6552 133.693 34.8709 133.261 35.3022C132.834 35.7335 132.62 36.2539 132.62 36.8635C132.62 37.4696 132.834 37.9883 133.261 38.4196C133.693 38.8504 134.213 39.0661 134.823 39.0661C135.433 39.0661 135.951 38.8504 136.378 38.4196C136.81 37.9883 137.025 37.4696 137.025 36.8635C137.025 36.2539 136.81 35.7335 136.378 35.3022C135.951 34.8709 135.433 34.6552 134.823 34.6552ZM134.823 33.5143C135.742 33.5143 136.527 33.84 137.178 34.4909C137.828 35.1413 138.153 35.9261 138.153 36.8456C138.153 37.7643 137.828 38.5496 137.178 39.2004C136.527 39.8513 135.742 40.1765 134.823 40.1765C133.904 40.1765 133.118 39.8513 132.468 39.2004C131.817 38.5496 131.492 37.7643 131.492 36.8456C131.492 35.9261 131.817 35.1413 132.468 34.4909C133.118 33.84 133.904 33.5143 134.823 33.5143Z" fill="#878787"/>
<path d="M144.541 36.8087C144.533 36.207 144.314 35.6965 143.882 35.2778C143.455 34.8543 142.94 34.6435 142.339 34.6435C141.728 34.6435 141.208 34.8591 140.777 35.29C140.35 35.7209 140.137 36.2396 140.137 36.8456C140.137 37.4556 140.35 37.9761 140.777 38.407C141.208 38.8343 141.728 39.0478 142.339 39.0478C142.949 39.0478 143.467 38.8343 143.894 38.407C144.326 37.9761 144.541 37.4556 144.541 36.8456V36.8087ZM142.339 41.5552C142.896 41.5552 143.398 41.3396 143.846 40.9087C144.31 40.4652 144.541 39.9465 144.541 39.353V39.3409C143.911 39.8978 143.176 40.1765 142.339 40.1765C141.419 40.1765 140.634 39.8513 139.983 39.2004C139.333 38.5496 139.008 37.7643 139.008 36.8456C139.008 35.9261 139.333 35.1413 139.983 34.4909C140.634 33.84 141.419 33.5143 142.339 33.5143C143.253 33.5143 144.036 33.8383 144.688 34.4848C145.338 35.1313 145.665 35.9139 145.669 36.8335V39.353C145.669 40.2517 145.32 41.0365 144.62 41.7078C143.945 42.3583 143.184 42.6839 142.339 42.6839C141.033 42.6839 140.057 42.1791 139.41 41.1709C139.313 41.0204 139.292 40.8596 139.35 40.6887C139.407 40.5178 139.52 40.4022 139.69 40.3409L139.71 40.3352C139.982 40.2417 140.2 40.3148 140.362 40.5548C140.802 41.2217 141.46 41.5552 142.339 41.5552Z" fill="#878787"/>
<path d="M147.689 33.5144C147.843 33.5144 147.973 33.5696 148.079 33.6796C148.189 33.7891 148.244 33.9213 148.244 34.0757V39.6213C148.244 39.7757 148.189 39.9061 148.079 40.0117C147.973 40.1217 147.843 40.1765 147.689 40.1765H147.676C147.522 40.1765 147.389 40.1217 147.28 40.0117C147.17 39.9061 147.116 39.7757 147.116 39.6213V34.0757C147.116 33.9213 147.17 33.7891 147.28 33.6796C147.389 33.5696 147.522 33.5144 147.676 33.5144H147.689ZM147.683 32.3552C147.496 32.3552 147.337 32.2904 147.207 32.16C147.077 32.03 147.011 31.8713 147.011 31.6844C147.011 31.5013 147.077 31.3448 147.207 31.2148C147.337 31.0844 147.496 31.0191 147.683 31.0191C147.866 31.0191 148.023 31.0844 148.153 31.2148C148.286 31.3448 148.354 31.5013 148.354 31.6844C148.354 31.8713 148.286 32.03 148.153 32.16C148.023 32.2904 147.866 32.3552 147.683 32.3552Z" fill="#878787"/>
<path d="M158.268 31.5804C158.268 31.7352 158.213 31.8678 158.103 31.9774C157.997 32.0831 157.867 32.1361 157.712 32.1361H156.041V39.6213C156.041 39.7757 155.988 39.9061 155.882 40.0118C155.773 40.1218 155.641 40.1765 155.485 40.1765H155.474C155.319 40.1765 155.187 40.1218 155.077 40.0118C154.971 39.9061 154.918 39.7757 154.918 39.6213V32.1361H153.247C153.096 32.1361 152.966 32.0831 152.856 31.9774C152.747 31.8678 152.692 31.7352 152.692 31.5804V31.5683C152.692 31.4139 152.747 31.2818 152.856 31.1722C152.966 31.0661 153.096 31.0135 153.247 31.0135H157.712C157.867 31.0135 157.997 31.0661 158.103 31.1722C158.213 31.2818 158.268 31.4139 158.268 31.5683" fill="#878787"/>
<path d="M161.976 33.5143C162.131 33.5143 162.263 33.5696 162.373 33.6796C162.479 33.7891 162.532 33.9213 162.532 34.0756V34.0878C162.532 34.2426 162.479 34.3726 162.373 34.4783C162.263 34.5878 162.131 34.6435 161.976 34.6435H161.629C161.246 34.6435 160.922 34.7774 160.653 35.0461C160.389 35.3143 160.254 35.6396 160.25 36.0217V39.6213C160.25 39.7756 160.195 39.9061 160.085 40.0117C159.976 40.1217 159.845 40.1765 159.695 40.1765H159.676C159.526 40.1765 159.396 40.1217 159.286 40.0117C159.176 39.9061 159.122 39.7756 159.122 39.6213V36.0217C159.129 35.3265 159.373 34.7343 159.854 34.247C160.342 33.7587 160.933 33.5143 161.629 33.5143" fill="#878787"/>
<path d="M164.331 37.2787C164.331 37.7304 164.49 38.1165 164.808 38.4378C165.128 38.7587 165.517 38.9196 165.973 38.9196C166.424 38.9196 166.808 38.7587 167.126 38.4378C167.447 38.1209 167.607 37.7343 167.607 37.2787V34.0756C167.607 33.9213 167.663 33.7891 167.772 33.6796C167.882 33.5696 168.014 33.5143 168.169 33.5143H168.18C168.335 33.5143 168.466 33.5696 168.571 33.6796C168.681 33.7891 168.737 33.9213 168.737 34.0756V39.9139C168.737 40.6661 168.451 41.3191 167.882 41.8722C167.329 42.4135 166.692 42.6839 165.973 42.6839C165.395 42.6839 164.87 42.5413 164.398 42.2569C163.943 41.9843 163.597 41.6161 163.361 41.1526C163.284 41.0017 163.278 40.8496 163.343 40.6952C163.404 40.5365 163.514 40.4304 163.673 40.3778L163.697 40.3656C163.827 40.3209 163.955 40.323 164.081 40.3717C164.207 40.4243 164.303 40.5122 164.368 40.6339C164.514 40.9109 164.732 41.1322 165.02 41.2991C165.314 41.4696 165.63 41.5552 165.973 41.5552C166.407 41.5552 166.787 41.3948 167.113 41.073C167.443 40.7478 167.607 40.3617 167.607 39.9139V39.5052C167.124 39.8635 166.579 40.0422 165.973 40.0422C165.208 40.0422 164.555 39.7717 164.014 39.2309C163.474 38.6939 163.203 38.043 163.203 37.2787V34.0756C163.203 33.9213 163.258 33.7891 163.368 33.6796C163.477 33.5696 163.607 33.5143 163.757 33.5143H163.777C163.927 33.5143 164.057 33.5696 164.167 33.6796C164.277 33.7891 164.331 33.9213 164.331 34.0756" fill="#878787"/>
<path d="M171.543 35.3022C171.116 35.7335 170.902 36.2539 170.902 36.8635C170.902 37.4696 171.116 37.9883 171.543 38.4196C171.973 38.8504 172.494 39.0661 173.104 39.0661C173.715 39.0661 174.233 38.8504 174.66 38.4196C175.091 37.9883 175.306 37.4696 175.306 36.8635C175.306 36.2539 175.091 35.7335 174.66 35.3022C174.233 34.8709 173.715 34.6552 173.104 34.6552C172.494 34.6552 171.973 34.8709 171.543 35.3022ZM175.88 31.0135C176.031 31.0135 176.16 31.0661 176.271 31.1722C176.38 31.2818 176.435 31.4139 176.435 31.5683V36.8635C176.431 37.7787 176.104 38.5596 175.453 39.2065C174.802 39.8531 174.02 40.1765 173.104 40.1765C172.185 40.1765 171.4 39.8513 170.749 39.2004C170.099 38.5496 169.773 37.7644 169.773 36.8457C169.773 35.9261 170.099 35.1413 170.749 34.4909C171.4 33.84 172.185 33.5144 173.104 33.5144C173.942 33.5144 174.676 33.7931 175.306 34.3504V31.5683C175.306 31.4139 175.361 31.2818 175.471 31.1722C175.581 31.0661 175.711 31.0135 175.862 31.0135" fill="#878787"/>
<path d="M178.784 37.2787C178.784 37.7304 178.943 38.1165 179.261 38.4378C179.581 38.7587 179.969 38.9196 180.425 38.9196C180.877 38.9196 181.261 38.7587 181.578 38.4378C181.9 38.1209 182.06 37.7343 182.06 37.2787V34.0756C182.06 33.9213 182.115 33.7891 182.225 33.6796C182.334 33.5696 182.467 33.5143 182.621 33.5143H182.634C182.788 33.5143 182.918 33.5696 183.024 33.6796C183.134 33.7891 183.189 33.9213 183.189 34.0756V39.9139C183.189 40.6661 182.904 41.3191 182.334 41.8722C181.781 42.4135 181.145 42.6839 180.425 42.6839C179.848 42.6839 179.324 42.5413 178.851 42.2569C178.396 41.9843 178.05 41.6161 177.814 41.1526C177.737 41.0017 177.731 40.8496 177.795 40.6952C177.856 40.5365 177.967 40.4304 178.125 40.3778L178.15 40.3656C178.28 40.3209 178.408 40.323 178.534 40.3717C178.66 40.4243 178.756 40.5122 178.821 40.6339C178.967 40.9109 179.184 41.1322 179.473 41.2991C179.766 41.4696 180.083 41.5552 180.425 41.5552C180.86 41.5552 181.241 41.3948 181.565 41.073C181.896 40.7478 182.06 40.3617 182.06 39.9139V39.5052C181.577 39.8635 181.031 40.0422 180.425 40.0422C179.66 40.0422 179.007 39.7717 178.467 39.2309C177.926 38.6939 177.656 38.043 177.656 37.2787V34.0756C177.656 33.9213 177.711 33.7891 177.82 33.6796C177.931 33.5696 178.06 33.5143 178.211 33.5143H178.229C178.379 33.5143 178.51 33.5696 178.619 33.6796C178.729 33.7891 178.784 33.9213 178.784 34.0756" fill="#878787"/>
<path d="M185.995 35.3022C185.568 35.7335 185.354 36.2539 185.354 36.8635C185.354 37.4696 185.568 37.9883 185.995 38.4196C186.426 38.8504 186.946 39.0661 187.556 39.0661C188.167 39.0661 188.686 38.8504 189.113 38.4196C189.543 37.9883 189.759 37.4696 189.759 36.8635C189.759 36.2539 189.543 35.7335 189.113 35.3022C188.686 34.8709 188.167 34.6552 187.556 34.6552C186.946 34.6552 186.426 34.8709 185.995 35.3022ZM190.333 31.0135C190.483 31.0135 190.613 31.0661 190.723 31.1722C190.833 31.2818 190.888 31.4139 190.888 31.5683V36.8635C190.883 37.7787 190.556 38.5596 189.906 39.2065C189.255 39.8531 188.472 40.1765 187.556 40.1765C186.638 40.1765 185.853 39.8513 185.202 39.2004C184.551 38.5496 184.226 37.7644 184.226 36.8457C184.226 35.9261 184.551 35.1413 185.202 34.4909C185.853 33.84 186.638 33.5144 187.556 33.5144C188.394 33.5144 189.129 33.7931 189.759 34.3504V31.5683C189.759 31.4139 189.814 31.2818 189.924 31.1722C190.033 31.0661 190.164 31.0135 190.314 31.0135" fill="#878787"/>
<path d="M193.694 35.3022C193.267 35.7335 193.054 36.2539 193.054 36.8635C193.054 37.4696 193.267 37.9883 193.694 38.4196C194.125 38.8504 194.645 39.0661 195.256 39.0661C195.866 39.0661 196.384 38.8504 196.811 38.4196C197.242 37.9883 197.458 37.4696 197.458 36.8635C197.458 36.2539 197.242 35.7335 196.811 35.3022C196.384 34.8709 195.866 34.6552 195.256 34.6552C194.645 34.6552 194.125 34.8709 193.694 35.3022ZM198.032 31.0135C198.182 31.0135 198.312 31.0661 198.422 31.1722C198.531 31.2818 198.587 31.4139 198.587 31.5683V36.8635C198.583 37.7787 198.255 38.5596 197.605 39.2065C196.953 39.8531 196.171 40.1765 195.256 40.1765C194.337 40.1765 193.552 39.8513 192.901 39.2004C192.25 38.5496 191.925 37.7644 191.925 36.8457C191.925 35.9261 192.25 35.1413 192.901 34.4909C193.552 33.84 194.337 33.5144 195.256 33.5144C196.093 33.5144 196.828 33.7931 197.458 34.3504V31.5683C197.458 31.4139 197.513 31.2818 197.623 31.1722C197.732 31.0661 197.863 31.0135 198.013 31.0135" fill="#878787"/>
<path d="M108.705 47.1165C108.307 47.1165 107.967 47.2565 107.687 47.5374C107.405 47.8178 107.265 48.1574 107.265 48.5561C107.265 49.04 107.485 49.4083 107.925 49.66C108.103 49.7622 108.608 49.9331 109.437 50.1731C110.104 50.3722 110.588 50.6078 110.889 50.8804C111.328 51.2791 111.548 51.8465 111.548 52.5822C111.548 53.2987 111.294 53.9083 110.785 54.4126C110.281 54.9165 109.673 55.1691 108.961 55.1691H106.638C106.486 55.1691 106.356 55.1139 106.247 55.0044C106.137 54.8948 106.082 54.7644 106.082 54.6139V54.5778C106.082 54.4274 106.137 54.297 106.247 54.187C106.356 54.077 106.486 54.0222 106.638 54.0222H109.023C109.417 54.0222 109.756 53.8822 110.041 53.6013C110.322 53.3204 110.462 52.9809 110.462 52.5822C110.462 52.107 110.242 51.737 109.804 51.4722C109.612 51.3587 109.108 51.1735 108.29 50.917C107.619 50.6978 107.135 50.4531 106.838 50.1852C106.399 49.7904 106.18 49.2478 106.18 48.5561C106.18 47.8404 106.432 47.23 106.936 46.7261C107.44 46.2217 108.05 45.9696 108.766 45.9696H110.407C110.562 45.9696 110.694 46.0244 110.804 46.1344C110.909 46.24 110.962 46.37 110.962 46.5248V46.5609C110.962 46.7117 110.909 46.8417 110.804 46.9513C110.694 47.0613 110.562 47.1165 110.407 47.1165" fill="#878787"/>
<path d="M115.734 49.6483C115.123 49.6483 114.603 49.8639 114.172 50.2948C113.745 50.7256 113.531 51.2465 113.531 51.857C113.531 51.9661 113.538 52.0739 113.555 52.18L117.418 50.4352C116.978 49.9104 116.417 49.6483 115.734 49.6483ZM118.759 50.453C118.824 50.5917 118.83 50.7339 118.778 50.8804C118.725 51.023 118.627 51.1265 118.485 51.1917C117.915 51.4478 117.166 51.7856 116.239 52.2039C115.089 52.7252 114.342 53.0626 114.001 53.217C114.44 53.7783 115.017 54.0587 115.734 54.0587C116.21 54.0587 116.641 53.9187 117.026 53.6378C117.401 53.3656 117.663 53.0113 117.814 52.5765C117.903 52.3239 118.082 52.1983 118.351 52.1983C118.542 52.1983 118.694 52.277 118.808 52.4356C118.918 52.5904 118.94 52.7596 118.875 52.9422C118.648 53.6013 118.249 54.1339 117.68 54.5409C117.098 54.9596 116.449 55.1691 115.734 55.1691C114.814 55.1691 114.029 54.8435 113.378 54.193C112.728 53.5426 112.403 52.7574 112.403 51.8383C112.403 50.9187 112.728 50.1343 113.378 49.483C114.029 48.8326 114.814 48.5074 115.734 48.5074C116.397 48.5074 117.002 48.6883 117.552 49.0504C118.093 49.4039 118.495 49.8717 118.759 50.453Z" fill="#878787"/>
<path d="M124.165 48.6656C124.425 48.747 124.555 48.9243 124.555 49.197V49.2274C124.555 49.4139 124.48 49.5626 124.33 49.6722C124.175 49.7865 124.008 49.8152 123.829 49.7578C123.614 49.6843 123.391 49.6483 123.158 49.6483C122.548 49.6483 122.028 49.8639 121.597 50.2948C121.169 50.7256 120.956 51.2465 120.956 51.857C120.956 52.4622 121.169 52.9809 121.597 53.4117C122.028 53.8435 122.548 54.0587 123.158 54.0587C123.391 54.0587 123.614 54.0243 123.829 53.9552C124.008 53.8978 124.175 53.9248 124.33 54.0343C124.48 54.1443 124.555 54.2948 124.555 54.4856C124.555 54.7543 124.425 54.9313 124.165 55.0169C123.839 55.1183 123.505 55.1691 123.158 55.1691C122.239 55.1691 121.454 54.8435 120.803 54.193C120.153 53.5426 119.827 52.7574 119.827 51.8383C119.827 50.9187 120.153 50.1343 120.803 49.483C121.454 48.8326 122.239 48.5074 123.158 48.5074C123.505 48.5074 123.839 48.56 124.165 48.6656Z" fill="#878787"/>
<path d="M126.166 46.0061C126.317 46.0061 126.447 46.0587 126.557 46.1648C126.666 46.2744 126.721 46.407 126.721 46.5609V48.5074H127.819C127.97 48.5074 128.1 48.5626 128.21 48.6722C128.319 48.7818 128.374 48.9144 128.374 49.0683V49.0809C128.374 49.2357 128.319 49.3652 128.21 49.4713C128.1 49.5809 127.97 49.6361 127.819 49.6361H126.721V53.4365C126.721 53.6031 126.781 53.7457 126.898 53.8635C127.016 53.9818 127.16 54.0409 127.331 54.0409H127.819C127.97 54.0409 128.1 54.0952 128.21 54.2052C128.319 54.3148 128.374 54.4474 128.374 54.6018V54.6139C128.374 54.7687 128.319 54.8987 128.21 55.0044C128.1 55.1139 127.97 55.1691 127.819 55.1691H127.331C126.851 55.1691 126.44 55.0009 126.099 54.6626C125.761 54.3213 125.592 53.9126 125.592 53.4365V46.5609C125.592 46.407 125.648 46.2744 125.757 46.1648C125.867 46.0587 125.997 46.0061 126.147 46.0061" fill="#878787"/>
<path d="M132.376 49.6483C131.766 49.6483 131.246 49.8639 130.815 50.2948C130.388 50.7256 130.174 51.2465 130.174 51.857C130.174 52.4622 130.388 52.9809 130.815 53.4117C131.246 53.8435 131.766 54.0587 132.376 54.0587C132.987 54.0587 133.505 53.8435 133.932 53.4117C134.363 52.9809 134.579 52.4622 134.579 51.857C134.579 51.2465 134.363 50.7256 133.932 50.2948C133.505 49.8639 132.987 49.6483 132.376 49.6483ZM132.376 48.5074C133.295 48.5074 134.081 48.8326 134.731 49.483C135.382 50.1343 135.708 50.9187 135.708 51.8383C135.708 52.7574 135.382 53.5426 134.731 54.193C134.081 54.8435 133.295 55.1691 132.376 55.1691C131.457 55.1691 130.671 54.8435 130.021 54.193C129.371 53.5426 129.045 52.7574 129.045 51.8383C129.045 50.9187 129.371 50.1343 130.021 49.483C130.671 48.8326 131.457 48.5074 132.376 48.5074Z" fill="#878787"/>
<path d="M139.599 48.5074C139.754 48.5074 139.886 48.5626 139.996 48.6722C140.102 48.7817 140.155 48.9143 140.155 49.0683V49.0809C140.155 49.2356 140.102 49.3652 139.996 49.4713C139.886 49.5809 139.754 49.6361 139.599 49.6361H139.252C138.869 49.6361 138.544 49.7704 138.275 50.0387C138.011 50.3074 137.877 50.6326 137.873 51.0148V54.6139C137.873 54.7687 137.819 54.8987 137.708 55.0043C137.599 55.1139 137.468 55.1691 137.318 55.1691H137.299C137.149 55.1691 137.019 55.1139 136.909 55.0043C136.799 54.8987 136.745 54.7687 136.745 54.6139V51.0148C136.753 50.3191 136.997 49.7274 137.476 49.2396C137.965 48.7513 138.556 48.5074 139.252 48.5074" fill="#878787"/>
<path d="M149.982 45.7865C150.357 45.8844 150.544 46.1222 150.544 46.5004V46.5187C150.544 46.7587 150.445 46.9539 150.251 47.1044C150.121 47.2057 149.979 47.2565 149.824 47.2565C149.758 47.2565 149.692 47.2487 149.622 47.2322C149.35 47.1631 149.075 47.1287 148.799 47.1287C147.896 47.1287 147.125 47.4478 146.486 48.0865C145.848 48.7252 145.529 49.4978 145.529 50.4048C145.529 51.3118 145.848 52.0839 146.486 52.7231C147.125 53.3574 147.896 53.6744 148.799 53.6744C149.075 53.6744 149.35 53.6422 149.622 53.577C149.692 53.5609 149.758 53.5522 149.824 53.5522C149.979 53.5522 150.121 53.6031 150.251 53.7052C150.445 53.8518 150.544 54.0465 150.544 54.2909V54.3031C150.544 54.6852 150.357 54.9248 149.982 55.0226C149.596 55.1204 149.202 55.1691 148.799 55.1691C147.485 55.1691 146.363 54.7035 145.431 53.7722C144.499 52.8413 144.034 51.7183 144.034 50.4048C144.034 49.0909 144.499 47.9683 145.431 47.037C146.363 46.1061 147.485 45.64 148.799 45.64C149.202 45.64 149.596 45.6887 149.982 45.7865Z" fill="#198BB3"/>
<path d="M153.014 52.0883C153.014 52.4909 153.155 52.8348 153.435 53.1191C153.72 53.4043 154.066 53.5465 154.473 53.5465C154.871 53.5465 155.212 53.4043 155.498 53.1191C155.783 52.8348 155.924 52.4909 155.924 52.0883V48.8856C155.924 48.6826 155.998 48.5074 156.144 48.3609C156.29 48.2143 156.466 48.1413 156.669 48.1413H156.681C156.888 48.1413 157.061 48.2143 157.199 48.3609C157.346 48.5074 157.419 48.6826 157.419 48.8856V54.7239C157.419 55.5291 157.116 56.2248 156.51 56.81C155.92 57.3874 155.24 57.6761 154.473 57.6761C153.862 57.6761 153.307 57.5265 152.807 57.2248C152.319 56.9317 151.949 56.5396 151.696 56.0478C151.64 55.9378 151.611 55.8278 151.611 55.7183C151.611 55.6248 151.631 55.5309 151.672 55.4378C151.753 55.2256 151.896 55.0861 152.099 55.0169L152.123 55.0043C152.213 54.9761 152.3 54.9622 152.386 54.9622C152.476 54.9622 152.563 54.9783 152.649 55.0104C152.815 55.0796 152.941 55.1952 153.026 55.3582C153.157 55.6022 153.352 55.7996 153.612 55.95C153.877 56.1048 154.163 56.1817 154.473 56.1817C154.858 56.1817 155.197 56.04 155.485 55.7548C155.778 55.4617 155.924 55.1183 155.924 54.7239V54.6748C155.603 54.9148 155.119 55.0348 154.473 55.0348C153.659 55.0348 152.963 54.7465 152.386 54.1683C151.808 53.5952 151.52 52.9017 151.52 52.0883V48.8856C151.52 48.6826 151.592 48.5074 151.739 48.3609C151.885 48.2143 152.059 48.1413 152.257 48.1413H152.276C152.476 48.1413 152.649 48.2143 152.795 48.3609C152.941 48.5074 153.014 48.6826 153.014 48.8856" fill="#198BB3"/>
<path d="M160.134 54.4309C160.134 54.6387 160.061 54.8117 159.914 54.9496C159.768 55.0961 159.594 55.1691 159.396 55.1691H159.377C159.178 55.1691 159.005 55.0961 158.859 54.9496C158.711 54.8117 158.64 54.6387 158.64 54.4309V51.0756C158.64 50.27 158.926 49.5791 159.499 49.0013C160.073 48.4283 160.764 48.1413 161.573 48.1413C162.541 48.1413 163.271 48.4626 163.764 49.1052C164.251 48.4626 164.98 48.1413 165.947 48.1413C166.757 48.1413 167.448 48.4283 168.021 49.0013C168.595 49.5791 168.883 50.27 168.883 51.0756V54.4309C168.883 54.6343 168.811 54.8074 168.669 54.9496C168.522 55.0961 168.347 55.1691 168.144 55.1691H168.132C167.924 55.1691 167.751 55.0961 167.613 54.9496C167.467 54.8117 167.393 54.6387 167.393 54.4309V51.0756C167.393 50.6769 167.253 50.3374 166.972 50.0569C166.692 49.7765 166.35 49.6361 165.947 49.6361C165.549 49.6361 165.21 49.7765 164.929 50.0569C164.649 50.3374 164.508 50.6769 164.508 51.0756V54.4309C164.508 54.6387 164.435 54.8117 164.288 54.9496C164.149 55.0961 163.977 55.1691 163.77 55.1691H163.757C163.554 55.1691 163.379 55.0961 163.233 54.9496C163.086 54.8117 163.013 54.6387 163.013 54.4309V51.0756C163.013 50.6769 162.874 50.3374 162.592 50.0569C162.312 49.7765 161.972 49.6361 161.573 49.6361C161.174 49.6361 160.836 49.7765 160.554 50.0569C160.274 50.3374 160.134 50.6769 160.134 51.0756" fill="#198BB3"/>
<path d="M173.139 48.1413C173.343 48.1413 173.518 48.2143 173.665 48.3609C173.807 48.5074 173.878 48.6826 173.878 48.8856V48.8978C173.878 49.1009 173.807 49.2743 173.665 49.4165C173.518 49.5626 173.343 49.6361 173.139 49.6361H172.792C172.459 49.6361 172.176 49.7517 171.944 49.9835C171.716 50.2156 171.6 50.4987 171.596 50.8317V54.4309C171.596 54.6387 171.523 54.8117 171.377 54.9496C171.23 55.0961 171.058 55.1691 170.858 55.1691H170.839C170.641 55.1691 170.467 55.0961 170.321 54.9496C170.174 54.8117 170.102 54.6387 170.102 54.4309V50.8317C170.11 50.0874 170.372 49.4526 170.889 48.9283C171.413 48.4039 172.048 48.1413 172.792 48.1413" fill="#198BB3"/>
<path d="M176.044 52.2226C176.044 52.6248 176.185 52.9687 176.465 53.2539C176.75 53.5343 177.095 53.6743 177.502 53.6743C177.905 53.6743 178.249 53.5343 178.533 53.2539C178.814 52.9687 178.955 52.6248 178.955 52.2226V48.8856C178.955 48.6826 179.028 48.5074 179.174 48.3609C179.321 48.2143 179.495 48.1413 179.699 48.1413H179.711C179.918 48.1413 180.091 48.2143 180.229 48.3609C180.375 48.5074 180.449 48.6826 180.449 48.8856V52.2226C180.449 53.0322 180.16 53.7252 179.582 54.303C179.005 54.8804 178.311 55.1691 177.502 55.1691C176.688 55.1691 175.993 54.8804 175.415 54.303C174.838 53.7252 174.549 53.0322 174.549 52.2226V48.8856C174.549 48.6826 174.622 48.5074 174.769 48.3609C174.915 48.2143 175.088 48.1413 175.288 48.1413H175.306C175.505 48.1413 175.678 48.2143 175.825 48.3609C175.971 48.5074 176.044 48.6826 176.044 48.8856" fill="#198BB3"/>
<path d="M111.322 68.2487C111.322 68.4039 111.267 68.5357 111.158 68.6457C111.052 68.7513 110.921 68.8044 110.767 68.8044H109.096V76.2896C109.096 76.4444 109.043 76.5743 108.937 76.6804C108.827 76.79 108.695 76.8448 108.54 76.8448H108.528C108.373 76.8448 108.241 76.79 108.132 76.6804C108.026 76.5743 107.973 76.4444 107.973 76.2896V68.8044H106.302C106.151 68.8044 106.021 68.7513 105.911 68.6457C105.801 68.5357 105.746 68.4039 105.746 68.2487V68.2365C105.746 68.0822 105.801 67.95 105.911 67.8404C106.021 67.7343 106.151 67.6813 106.302 67.6813H110.767C110.921 67.6813 111.052 67.7343 111.158 67.8404C111.267 67.95 111.322 68.0822 111.322 68.2365" fill="#878787"/>
<path d="M112.75 67.6813C112.9 67.6813 113.031 67.7343 113.14 67.8404C113.25 67.95 113.305 68.0822 113.305 68.2365V70.7257C113.789 70.3635 114.336 70.1826 114.946 70.1826C115.706 70.1826 116.358 70.4535 116.898 70.9944C117.439 71.5352 117.709 72.1883 117.709 72.9526V76.2896C117.709 76.4444 117.655 76.5743 117.545 76.6804C117.439 76.79 117.308 76.8448 117.154 76.8448H117.142C116.987 76.8448 116.855 76.79 116.745 76.6804C116.636 76.5743 116.581 76.4444 116.581 76.2896V72.9526C116.581 72.5009 116.422 72.1143 116.105 71.793C115.783 71.4722 115.398 71.3117 114.946 71.3117C114.491 71.3117 114.102 71.4722 113.781 71.793C113.464 72.1143 113.305 72.5009 113.305 72.9526V76.2896C113.305 76.4444 113.25 76.5743 113.14 76.6804C113.031 76.79 112.9 76.8448 112.75 76.8448H112.731C112.581 76.8448 112.451 76.79 112.341 76.6804C112.231 76.5743 112.176 76.4444 112.176 76.2896V68.2365C112.176 68.0822 112.231 67.95 112.341 67.8404C112.451 67.7343 112.581 67.6813 112.731 67.6813" fill="#878787"/>
<path d="M119.729 70.1826C119.884 70.1826 120.013 70.2383 120.12 70.3474C120.23 70.4574 120.284 70.5896 120.284 70.7444V76.2896C120.284 76.4444 120.23 76.5744 120.12 76.6804C120.013 76.79 119.884 76.8448 119.729 76.8448H119.717C119.562 76.8448 119.43 76.79 119.32 76.6804C119.21 76.5744 119.156 76.4444 119.156 76.2896V70.7444C119.156 70.5896 119.21 70.4574 119.32 70.3474C119.43 70.2383 119.562 70.1826 119.717 70.1826H119.729ZM119.723 69.0235C119.536 69.0235 119.377 68.9587 119.247 68.8287C119.117 68.6987 119.052 68.54 119.052 68.3526C119.052 68.1696 119.117 68.0131 119.247 67.8826C119.377 67.7531 119.536 67.6878 119.723 67.6878C119.906 67.6878 120.063 67.7531 120.193 67.8826C120.327 68.0131 120.394 68.1696 120.394 68.3526C120.394 68.54 120.327 68.6987 120.193 68.8287C120.063 68.9587 119.906 69.0235 119.723 69.0235Z" fill="#878787"/>
<path d="M124.592 70.1826C124.745 70.1826 124.878 70.2383 124.988 70.3474C125.094 70.4574 125.147 70.5896 125.147 70.7444V70.7561C125.147 70.9109 125.094 71.0413 124.988 71.147C124.878 71.2565 124.745 71.3117 124.592 71.3117H124.244C123.862 71.3117 123.536 71.4461 123.268 71.7139C123.003 71.9826 122.869 72.3078 122.865 72.69V76.2896C122.865 76.4444 122.81 76.5744 122.701 76.6804C122.591 76.79 122.461 76.8448 122.31 76.8448H122.291C122.141 76.8448 122.011 76.79 121.902 76.6804C121.792 76.5744 121.736 76.4444 121.736 76.2896V72.69C121.744 71.9948 121.989 71.4031 122.469 70.9148C122.956 70.427 123.548 70.1826 124.244 70.1826" fill="#878787"/>
<path d="M127.404 71.9704C126.977 72.4013 126.763 72.9217 126.763 73.5317C126.763 74.1378 126.977 74.6565 127.404 75.0878C127.835 75.5187 128.355 75.7348 128.966 75.7348C129.576 75.7348 130.094 75.5187 130.521 75.0878C130.952 74.6565 131.168 74.1378 131.168 73.5317C131.168 72.9217 130.952 72.4013 130.521 71.9704C130.094 71.5396 129.576 71.3235 128.966 71.3235C128.355 71.3235 127.835 71.5396 127.404 71.9704ZM131.742 67.6813C131.892 67.6813 132.022 67.7343 132.132 67.8404C132.242 67.95 132.296 68.0822 132.296 68.2365V73.5317C132.293 74.447 131.965 75.2278 131.315 75.8748C130.663 76.5217 129.881 76.8448 128.966 76.8448C128.046 76.8448 127.262 76.5196 126.61 75.8687C125.96 75.2178 125.634 74.4326 125.634 73.5139C125.634 72.5948 125.96 71.81 126.61 71.1587C127.262 70.5083 128.046 70.1826 128.966 70.1826C129.803 70.1826 130.538 70.4617 131.168 71.0191V68.2365C131.168 68.0822 131.223 67.95 131.333 67.8404C131.442 67.7343 131.573 67.6813 131.723 67.6813" fill="#878787"/>
<path d="M139.318 68.7917C138.92 68.7917 138.58 68.9322 138.3 69.2126C138.019 69.4939 137.879 69.8335 137.879 70.2313C137.879 70.7156 138.098 71.0843 138.537 71.3356C138.716 71.4374 139.221 71.6087 140.051 71.8487C140.717 72.0478 141.202 72.2835 141.502 72.5561C141.941 72.9548 142.161 73.5222 142.161 74.2578C142.161 74.9743 141.907 75.5839 141.399 76.0883C140.894 76.5922 140.286 76.8448 139.574 76.8448H137.25C137.1 76.8448 136.97 76.79 136.86 76.6804C136.75 76.57 136.695 76.4404 136.695 76.2896V76.253C136.695 76.1026 136.75 75.9722 136.86 75.8626C136.97 75.753 137.1 75.6983 137.25 75.6983H139.636C140.03 75.6983 140.37 75.5574 140.654 75.2769C140.935 74.9965 141.075 74.6565 141.075 74.2578C141.075 73.7822 140.856 73.4117 140.417 73.1478C140.225 73.0339 139.721 72.8487 138.903 72.593C138.232 72.3735 137.748 72.1291 137.451 71.86C137.013 71.4665 136.793 70.923 136.793 70.2313C136.793 69.5156 137.045 68.9061 137.549 68.4017C138.053 67.8969 138.663 67.6448 139.379 67.6448H141.021C141.175 67.6448 141.307 67.7 141.417 67.81C141.523 67.9161 141.576 68.0456 141.576 68.2004V68.2365C141.576 68.387 141.523 68.5174 141.417 68.6274C141.307 68.7374 141.175 68.7917 141.021 68.7917" fill="#878787"/>
<path d="M146.346 71.3235C145.736 71.3235 145.216 71.5396 144.784 71.9704C144.357 72.4013 144.144 72.9217 144.144 73.5317C144.144 73.6422 144.152 73.7496 144.169 73.8552L148.03 72.1109C147.59 71.5865 147.03 71.3235 146.346 71.3235ZM149.373 72.1291C149.437 72.2674 149.443 72.4096 149.391 72.5561C149.338 72.6983 149.24 72.8017 149.098 72.8674C148.528 73.1231 147.78 73.4613 146.853 73.88C145.702 74.4004 144.956 74.7378 144.614 74.8926C145.053 75.4535 145.63 75.7348 146.346 75.7348C146.822 75.7348 147.254 75.5944 147.64 75.3139C148.014 75.0409 148.276 74.6874 148.427 74.2522C148.516 74 148.695 73.8739 148.964 73.8739C149.155 73.8739 149.307 73.9526 149.421 74.1113C149.531 74.2665 149.553 74.4348 149.488 74.6178C149.261 75.277 148.862 75.8096 148.293 76.2165C147.711 76.6352 147.062 76.8448 146.346 76.8448C145.427 76.8448 144.642 76.5196 143.992 75.8687C143.341 75.2178 143.016 74.4326 143.016 73.5139C143.016 72.5948 143.341 71.81 143.992 71.1587C144.642 70.5083 145.427 70.1826 146.346 70.1826C147.01 70.1826 147.615 70.3635 148.165 70.7257C148.705 71.08 149.108 71.5478 149.373 72.1291Z" fill="#878787"/>
<path d="M154.778 70.3413C155.038 70.4226 155.168 70.6 155.168 70.8722V70.9031C155.168 71.0896 155.093 71.2383 154.943 71.3483C154.788 71.4622 154.621 71.49 154.442 71.4335C154.227 71.3604 154.003 71.3235 153.771 71.3235C153.161 71.3235 152.64 71.5396 152.21 71.9704C151.782 72.4013 151.569 72.9217 151.569 73.5317C151.569 74.1378 151.782 74.6565 152.21 75.0878C152.64 75.5187 153.161 75.7348 153.771 75.7348C154.003 75.7348 154.227 75.7004 154.442 75.6304C154.621 75.5735 154.788 75.6 154.943 75.71C155.093 75.8204 155.168 75.97 155.168 76.1617C155.168 76.4296 155.038 76.607 154.778 76.6922C154.452 76.7935 154.117 76.8448 153.771 76.8448C152.852 76.8448 152.067 76.5196 151.416 75.8687C150.765 75.2178 150.44 74.4326 150.44 73.5139C150.44 72.5948 150.765 71.81 151.416 71.1587C152.067 70.5083 152.852 70.1826 153.771 70.1826C154.117 70.1826 154.452 70.2357 154.778 70.3413Z" fill="#878787"/>
<path d="M156.779 67.6813C156.929 67.6813 157.059 67.7343 157.169 67.8404C157.279 67.95 157.334 68.0822 157.334 68.2365V70.1826H158.432C158.582 70.1826 158.713 70.2383 158.822 70.3474C158.932 70.4574 158.987 70.5896 158.987 70.7443V70.7561C158.987 70.9109 158.932 71.0413 158.822 71.147C158.713 71.2565 158.582 71.3117 158.432 71.3117H157.334V75.1122C157.334 75.2791 157.393 75.4213 157.51 75.5396C157.629 75.6574 157.773 75.7161 157.944 75.7161H158.432C158.582 75.7161 158.713 75.7709 158.822 75.8813C158.932 75.9904 158.987 76.123 158.987 76.2774V76.2896C158.987 76.4444 158.932 76.5743 158.822 76.6804C158.713 76.79 158.582 76.8448 158.432 76.8448H157.944C157.464 76.8448 157.053 76.6761 156.712 76.3383C156.374 75.997 156.206 75.5883 156.206 75.1122V68.2365C156.206 68.0822 156.26 67.95 156.37 67.8404C156.479 67.7343 156.609 67.6813 156.76 67.6813" fill="#878787"/>
<path d="M162.99 71.3235C162.379 71.3235 161.859 71.5396 161.427 71.9704C161.001 72.4013 160.787 72.9217 160.787 73.5317C160.787 74.1378 161.001 74.6565 161.427 75.0878C161.859 75.5187 162.379 75.7348 162.99 75.7348C163.6 75.7348 164.118 75.5187 164.545 75.0878C164.976 74.6565 165.192 74.1378 165.192 73.5317C165.192 72.9217 164.976 72.4013 164.545 71.9704C164.118 71.5396 163.6 71.3235 162.99 71.3235ZM162.99 70.1826C163.908 70.1826 164.693 70.5083 165.344 71.1587C165.995 71.81 166.32 72.5948 166.32 73.5139C166.32 74.4326 165.995 75.2178 165.344 75.8687C164.693 76.5196 163.908 76.8448 162.99 76.8448C162.071 76.8448 161.285 76.5196 160.635 75.8687C159.983 75.2178 159.659 74.4326 159.659 73.5139C159.659 72.5948 159.983 71.81 160.635 71.1587C161.285 70.5083 162.071 70.1826 162.99 70.1826Z" fill="#878787"/>
<path d="M170.213 70.1826C170.367 70.1826 170.499 70.2383 170.609 70.3474C170.715 70.4574 170.768 70.5896 170.768 70.7444V70.7561C170.768 70.9109 170.715 71.0413 170.609 71.147C170.499 71.2565 170.367 71.3117 170.213 71.3117H169.865C169.483 71.3117 169.157 71.4461 168.889 71.7139C168.624 71.9826 168.49 72.3078 168.486 72.69V76.2896C168.486 76.4444 168.431 76.5744 168.321 76.6804C168.212 76.79 168.081 76.8448 167.931 76.8448H167.913C167.762 76.8448 167.632 76.79 167.522 76.6804C167.412 76.5744 167.357 76.4444 167.357 76.2896V72.69C167.366 71.9948 167.61 71.4031 168.09 70.9148C168.578 70.427 169.169 70.1826 169.865 70.1826" fill="#878787"/>
<path d="M108.553 83.7843C108.154 83.7843 107.814 83.9252 107.534 84.2056C107.253 84.4865 107.113 84.8261 107.113 85.2243C107.113 85.7082 107.332 86.0769 107.773 86.3282C107.951 86.4304 108.455 86.6013 109.285 86.8413C109.952 87.0404 110.436 87.2761 110.737 87.5487C111.176 87.9474 111.396 88.5152 111.396 89.2504C111.396 89.9669 111.141 90.5765 110.633 91.0809C110.129 91.5848 109.521 91.8374 108.809 91.8374H106.484C106.334 91.8374 106.204 91.7826 106.094 91.673C105.984 91.5635 105.93 91.433 105.93 91.2822V91.2456C105.93 91.0952 105.984 90.9652 106.094 90.8552C106.204 90.7456 106.334 90.6909 106.484 90.6909H108.87C109.265 90.6909 109.604 90.55 109.889 90.2696C110.17 89.9891 110.31 89.6491 110.31 89.2504C110.31 88.7748 110.091 88.4048 109.651 88.1404C109.459 88.0265 108.956 87.8413 108.138 87.5856C107.467 87.3661 106.983 87.1217 106.686 86.853C106.246 86.4591 106.027 85.9161 106.027 85.2243C106.027 84.5091 106.279 83.8987 106.783 83.3948C107.288 82.89 107.898 82.6378 108.614 82.6378H110.254C110.41 82.6378 110.542 82.6926 110.651 82.8026C110.758 82.9087 110.81 83.0382 110.81 83.193V83.2291C110.81 83.38 110.758 83.51 110.651 83.62C110.542 83.73 110.41 83.7843 110.254 83.7843" fill="#878787"/>
<path d="M113.561 89.0739C113.561 89.5257 113.72 89.9118 114.038 90.2331C114.359 90.55 114.747 90.7087 115.203 90.7087C115.654 90.7087 116.04 90.55 116.361 90.2331C116.679 89.9118 116.838 89.5257 116.838 89.0739V85.737C116.838 85.5826 116.892 85.4504 117.003 85.34C117.112 85.2309 117.244 85.1752 117.399 85.1752H117.411C117.566 85.1752 117.696 85.2309 117.802 85.34C117.911 85.4504 117.966 85.5826 117.966 85.737V89.0739C117.966 89.8344 117.696 90.4848 117.155 91.0261C116.614 91.567 115.963 91.8374 115.203 91.8374C114.438 91.8374 113.785 91.567 113.244 91.0261C112.704 90.4848 112.433 89.8344 112.433 89.0739V85.737C112.433 85.5826 112.488 85.4504 112.597 85.34C112.708 85.2309 112.837 85.1752 112.988 85.1752H113.006C113.157 85.1752 113.287 85.2309 113.397 85.34C113.507 85.4504 113.561 85.5826 113.561 85.737" fill="#878787"/>
<path d="M124.073 90.05C124.504 89.6191 124.72 89.1005 124.72 88.4944C124.72 87.8839 124.504 87.3639 124.073 86.9326C123.646 86.5052 123.128 86.2922 122.517 86.2922C121.907 86.2922 121.387 86.5052 120.956 86.9326C120.529 87.3639 120.315 87.8839 120.315 88.4944C120.315 89.1005 120.529 89.6191 120.956 90.05C121.387 90.4809 121.907 90.697 122.517 90.697C123.128 90.697 123.646 90.4809 124.073 90.05ZM119.741 94.3448C119.591 94.3448 119.461 94.2896 119.351 94.1804C119.242 94.07 119.187 93.9405 119.187 93.7896V88.4944C119.19 87.5748 119.518 86.7922 120.169 86.1457C120.815 85.4987 121.599 85.1752 122.517 85.1752C123.437 85.1752 124.221 85.5009 124.873 86.1518C125.523 86.8031 125.849 87.5874 125.849 88.5065C125.849 89.4261 125.523 90.2113 124.873 90.8613C124.221 91.5122 123.437 91.8374 122.517 91.8374C121.676 91.8374 120.941 91.5587 120.315 91.0013V93.7896C120.315 93.9405 120.26 94.07 120.15 94.1804C120.041 94.2896 119.911 94.3448 119.76 94.3448" fill="#878787"/>
<path d="M131.772 90.05C132.203 89.6191 132.419 89.1005 132.419 88.4944C132.419 87.8839 132.203 87.3639 131.772 86.9326C131.345 86.5052 130.827 86.2922 130.217 86.2922C129.606 86.2922 129.086 86.5052 128.655 86.9326C128.228 87.3639 128.014 87.8839 128.014 88.4944C128.014 89.1005 128.228 89.6191 128.655 90.05C129.086 90.4809 129.606 90.697 130.217 90.697C130.827 90.697 131.345 90.4809 131.772 90.05ZM127.441 94.3448C127.29 94.3448 127.16 94.2896 127.051 94.1804C126.941 94.07 126.886 93.9405 126.886 93.7896V88.4944C126.89 87.5748 127.217 86.7922 127.868 86.1457C128.514 85.4987 129.297 85.1752 130.217 85.1752C131.135 85.1752 131.92 85.5009 132.571 86.1518C133.222 86.8031 133.547 87.5874 133.547 88.5065C133.547 89.4261 133.222 90.2113 132.571 90.8613C131.92 91.5122 131.135 91.8374 130.217 91.8374C129.375 91.8374 128.64 91.5587 128.014 91.0013V93.7896C128.014 93.9405 127.96 94.07 127.849 94.1804C127.74 94.2896 127.61 94.3448 127.459 94.3448" fill="#878787"/>
<path d="M137.733 86.3161C137.122 86.3161 136.602 86.5322 136.171 86.9635C135.744 87.3939 135.53 87.9148 135.53 88.5248C135.53 89.1304 135.744 89.6491 136.171 90.0804C136.602 90.5113 137.122 90.7274 137.733 90.7274C138.343 90.7274 138.861 90.5113 139.288 90.0804C139.72 89.6491 139.935 89.1304 139.935 88.5248C139.935 87.9148 139.72 87.3939 139.288 86.9635C138.861 86.5322 138.343 86.3161 137.733 86.3161ZM137.733 85.1752C138.652 85.1752 139.437 85.5009 140.087 86.1518C140.738 86.8031 141.064 87.5874 141.064 88.5065C141.064 89.4261 140.738 90.2113 140.087 90.8613C139.437 91.5122 138.652 91.8374 137.733 91.8374C136.814 91.8374 136.028 91.5122 135.377 90.8613C134.727 90.2113 134.401 89.4261 134.401 88.5065C134.401 87.5874 134.727 86.8031 135.377 86.1518C136.028 85.5009 136.814 85.1752 137.733 85.1752Z" fill="#878787"/>
<path d="M144.956 85.1752C145.11 85.1752 145.242 85.2309 145.352 85.34C145.458 85.4504 145.511 85.5826 145.511 85.737V85.7487C145.511 85.9035 145.458 86.0339 145.352 86.1396C145.242 86.2491 145.11 86.3044 144.956 86.3044H144.608C144.225 86.3044 143.901 86.4387 143.632 86.7065C143.368 86.9757 143.233 87.3004 143.229 87.6826V91.2822C143.229 91.437 143.175 91.567 143.065 91.6731C142.955 91.7826 142.824 91.8374 142.674 91.8374H142.655C142.505 91.8374 142.375 91.7826 142.265 91.6731C142.156 91.567 142.101 91.437 142.101 91.2822V87.6826C142.109 86.9878 142.353 86.3957 142.832 85.9074C143.321 85.4196 143.912 85.1752 144.608 85.1752" fill="#878787"/>
<path d="M146.755 82.6743C146.906 82.6743 147.036 82.727 147.146 82.833C147.256 82.943 147.31 83.0752 147.31 83.2291V85.1752H148.408C148.559 85.1752 148.689 85.2309 148.799 85.34C148.909 85.4504 148.963 85.5826 148.963 85.737V85.7487C148.963 85.9035 148.909 86.0339 148.799 86.1396C148.689 86.2491 148.559 86.3043 148.408 86.3043H147.31V90.1052C147.31 90.2717 147.369 90.4143 147.487 90.5322C147.605 90.6504 147.749 90.7087 147.921 90.7087H148.408C148.559 90.7087 148.689 90.7635 148.799 90.8739C148.909 90.983 148.963 91.1156 148.963 91.27V91.2822C148.963 91.4369 148.909 91.567 148.799 91.673C148.689 91.7826 148.559 91.8374 148.408 91.8374H147.921C147.44 91.8374 147.029 91.6687 146.688 91.3309C146.351 90.9896 146.182 90.5809 146.182 90.1052V83.2291C146.182 83.0752 146.236 82.943 146.346 82.833C146.456 82.727 146.586 82.6743 146.736 82.6743" fill="#878787"/>
<path d="M154.735 88.9031C154.735 89.3018 154.875 89.6413 155.155 89.9218C155.437 90.2026 155.775 90.3431 156.174 90.3431C156.573 90.3431 156.912 90.2026 157.193 89.9218C157.474 89.6413 157.614 89.3018 157.614 88.9031V83.0465C157.614 82.8431 157.687 82.6687 157.834 82.5222C157.98 82.3796 158.155 82.3087 158.358 82.3087H158.37C158.574 82.3087 158.747 82.3796 158.889 82.5222C159.035 82.6687 159.109 82.8431 159.109 83.0465V88.9031C159.109 89.3018 159.249 89.6413 159.53 89.9218C159.811 90.2026 160.15 90.3431 160.548 90.3431C160.951 90.3431 161.293 90.2026 161.573 89.9218C161.854 89.6413 161.994 89.3018 161.994 88.9031V83.0465C161.994 82.8431 162.068 82.6687 162.213 82.5222C162.356 82.3796 162.529 82.3087 162.733 82.3087H162.745C162.948 82.3087 163.123 82.3796 163.269 82.5222C163.412 82.6687 163.483 82.8431 163.483 83.0465V88.9031C163.483 89.7126 163.196 90.4035 162.623 90.9774C162.049 91.5509 161.358 91.8374 160.548 91.8374C159.581 91.8374 158.852 91.5161 158.365 90.8739C157.872 91.5161 157.142 91.8374 156.174 91.8374C155.365 91.8374 154.674 91.5509 154.1 90.9774C153.527 90.4035 153.24 89.7126 153.24 88.9031V83.0465C153.24 82.8431 153.314 82.6687 153.46 82.5222C153.606 82.3796 153.779 82.3087 153.978 82.3087H153.996C154.196 82.3087 154.368 82.3796 154.515 82.5222C154.661 82.6687 154.735 82.8431 154.735 83.0465" fill="#198BB3"/>
<path d="M166.845 86.8961C166.454 87.2904 166.259 87.7665 166.259 88.323C166.259 88.8848 166.454 89.363 166.845 89.757C167.239 90.1478 167.717 90.3431 168.279 90.3431C168.84 90.3431 169.315 90.1478 169.706 89.757C170.1 89.363 170.297 88.8848 170.297 88.323C170.297 87.7665 170.1 87.2904 169.706 86.8961C169.311 86.5017 168.835 86.3044 168.279 86.3044C167.717 86.3044 167.239 86.5017 166.845 86.8961ZM170.761 85.8404C171.449 86.5278 171.792 87.3552 171.792 88.323V91.0996C171.792 91.3061 171.719 91.48 171.572 91.6183C171.426 91.7648 171.253 91.8374 171.054 91.8374H171.035C170.836 91.8374 170.664 91.7648 170.517 91.6183C170.371 91.48 170.297 91.3061 170.297 91.0996C169.834 91.5917 169.161 91.8374 168.279 91.8374C167.311 91.8374 166.483 91.4939 165.795 90.8065C165.107 90.1191 164.765 89.2909 164.765 88.323C164.765 87.3552 165.107 86.5278 165.795 85.8404C166.483 85.1535 167.311 84.8096 168.279 84.8096C169.246 84.8096 170.074 85.1535 170.761 85.8404Z" fill="#198BB3"/>
<path d="M174.012 82.3087C174.211 82.3087 174.385 82.3796 174.531 82.5222C174.678 82.6687 174.751 82.8431 174.751 83.0465V91.0996C174.751 91.3061 174.678 91.48 174.531 91.6183C174.385 91.7648 174.211 91.8374 174.012 91.8374H173.994C173.795 91.8374 173.622 91.7648 173.475 91.6183C173.329 91.48 173.256 91.3061 173.256 91.0996V83.0465C173.256 82.8431 173.329 82.6687 173.475 82.5222C173.622 82.3796 173.795 82.3087 173.994 82.3087" fill="#198BB3"/>
<path d="M179.545 86.3161C178.984 86.3161 178.507 86.5135 178.112 86.9083C177.722 87.3026 177.527 87.7804 177.527 88.3417V88.3848L180.937 86.853C180.635 86.4952 180.172 86.3161 179.545 86.3161ZM182.737 86.8596C182.785 86.9609 182.81 87.0652 182.81 87.17C182.81 87.2557 182.793 87.3413 182.761 87.427C182.691 87.6178 182.561 87.7561 182.37 87.8413C181.801 88.0974 181.053 88.4361 180.125 88.8544C178.975 89.3748 178.299 89.6817 178.1 89.7752C178.409 90.1657 178.89 90.3609 179.545 90.3609C179.981 90.3609 180.375 90.233 180.73 89.9765C181.075 89.7248 181.317 89.3996 181.455 89.0009C181.573 88.667 181.809 88.5004 182.163 88.5004C182.415 88.5004 182.616 88.6061 182.767 88.8178C182.86 88.9478 182.907 89.0844 182.907 89.2261C182.907 89.3117 182.891 89.3996 182.858 89.4883C182.618 90.1844 182.197 90.7457 181.595 91.1722C180.986 91.6157 180.302 91.8374 179.545 91.8374C178.578 91.8374 177.75 91.4939 177.063 90.8065C176.376 90.1191 176.032 89.2909 176.032 88.323C176.032 87.3552 176.376 86.5278 177.063 85.8404C177.75 85.1535 178.578 84.8096 179.545 84.8096C180.245 84.8096 180.884 85.0009 181.461 85.383C182.035 85.7574 182.459 86.2491 182.737 86.8596Z" fill="#198BB3"/>
<path d="M185.896 86.3044C185.716 86.3044 185.567 86.3652 185.445 86.487C185.322 86.6135 185.262 86.7644 185.262 86.9387C185.262 87.1826 185.38 87.3661 185.616 87.4878C185.696 87.5326 186.036 87.6339 186.635 87.793C187.119 87.9313 187.478 88.1122 187.714 88.3357C188.052 88.657 188.221 89.1144 188.221 89.7087C188.221 90.2939 188.012 90.797 187.599 91.2152C187.179 91.6304 186.677 91.8374 186.091 91.8374H184.499C184.3 91.8374 184.126 91.7648 183.98 91.6183C183.834 91.48 183.761 91.3061 183.761 91.0996V91.087C183.761 90.8835 183.834 90.7087 183.98 90.5622C184.126 90.4157 184.3 90.3431 184.499 90.3431H186.153C186.331 90.3431 186.482 90.2817 186.604 90.16C186.726 90.0378 186.786 89.8874 186.786 89.7087C186.786 89.4852 186.671 89.3157 186.439 89.2022C186.378 89.1735 186.036 89.0722 185.414 88.8974C184.93 88.7548 184.57 88.5674 184.335 88.3357C183.997 88.0065 183.828 87.5404 183.828 86.9387C183.828 86.353 184.036 85.8531 184.45 85.4378C184.869 85.0191 185.372 84.8096 185.956 84.8096H187.079C187.283 84.8096 187.458 84.8831 187.604 85.0291C187.75 85.1752 187.824 85.3509 187.824 85.5539V85.5661C187.824 85.7735 187.75 85.9461 187.604 86.0848C187.458 86.2313 187.283 86.3044 187.079 86.3044" fill="#198BB3"/>
</g>
<defs>
<clipPath id="clip0_13_270">
<rect width="200" height="118" fill="white"/>
</clipPath>
</defs>
</svg>
