<svg width="16" height="23" viewBox="0 0 16 23" fill="none" xmlns="http://www.w3.org/2000/svg">
<g clip-path="url(#clip0_114_1685)">
<path d="M10.4355 0.381365C9.67272 0.138678 8.84065 0 7.99125 0C5.54704 0 3.34553 1.10943 1.87207 2.86024L5.65105 6.0325L10.4355 0.381365Z" fill="#1A73E8"/>
<path d="M1.87216 2.86024C0.710726 4.24703 0 6.04984 0 7.99134C0 9.49946 0.294691 10.7129 0.7974 11.805L5.65114 6.03251L1.87216 2.86024Z" fill="#EA4335"/>
<path d="M8.0089 4.94041C9.70771 4.94041 11.0772 6.30986 11.0772 8.00867C11.0772 8.75406 10.7998 9.44745 10.3491 9.98483C10.3491 9.98483 12.7586 7.10726 15.1162 4.31636C14.1454 2.4442 12.4639 1.02275 10.4358 0.381363L5.65137 6.0325C6.22341 5.37378 7.05548 4.94041 8.0089 4.94041Z" fill="#4285F4"/>
<path d="M8.00863 11.0596C6.30982 11.0596 4.94038 9.69014 4.94038 7.99133C4.94038 7.24594 5.2004 6.55254 5.6511 6.0325L0.797363 11.805C1.62943 13.6425 3.01622 15.1333 4.43767 16.9881L10.3488 9.9675C9.77678 10.6436 8.94471 11.0596 8.00863 11.0596Z" fill="#FBBC04"/>
<path d="M10.2447 18.9296C12.9142 14.7519 16.0171 12.8624 16.0171 8.00867C16.0171 6.67389 15.6878 5.42579 15.1157 4.31636L4.4375 16.9881C4.8882 17.5775 5.35624 18.2535 5.80695 18.9469C7.43642 21.4605 6.98571 22.9512 8.0258 22.9512C9.06589 22.9512 8.61518 21.4431 10.2447 18.9296Z" fill="#34A853"/>
</g>
<defs>
<clipPath id="clip0_114_1685">
<rect width="16" height="22.9339" fill="white"/>
</clipPath>
</defs>
</svg>
