<svg width="28" height="32" viewBox="0 0 28 32" fill="none" xmlns="http://www.w3.org/2000/svg">
<path opacity="0.25" d="M0 26.9314C0 24.741 6.24355 23 14.0983 23C21.9531 23 28.1967 24.741 27.9953 26.9314C27.9953 27.9984 26.5854 29.0094 23.7658 29.7395C23.7658 29.7956 15.5082 31.8175 15.3068 31.8736C14.7025 32.0421 13.4941 32.0421 12.6885 31.8736C12.4871 31.8175 4.4309 29.7956 4.2295 29.7395C1.40983 29.0094 0 27.9984 0 26.9314Z" fill="#333333"/>
<path d="M26.9956 13.9523L26.9953 13.9652V13.9782C26.9953 17.522 25.6818 20.8393 23.0884 23.2269L22.7658 23.5239V23.5706C22.7512 23.5846 22.7359 23.5993 22.7198 23.6147C22.5032 23.8216 22.1876 24.1126 21.8005 24.4637C21.0282 25.1643 19.9937 26.0843 18.9495 27.0074C18.0079 27.8397 17.0433 28.6875 16.2623 29.3741C15.3388 30.1858 14.6719 30.772 14.6027 30.8406C14.5353 30.9074 14.3631 31 14.0732 31C13.8072 31 13.5331 30.9188 13.321 30.7738C12.9364 30.4209 11.1785 28.848 9.3978 27.2548L9.1258 27.0114C8.09348 26.0877 7.06165 25.1645 6.2753 24.4597C5.88206 24.1072 5.55076 23.8099 5.31169 23.5946C5.19204 23.4869 5.09629 23.4004 5.02772 23.3382C4.98428 23.2987 4.95809 23.2747 4.94441 23.2621C4.93294 23.2516 4.93026 23.2491 4.93357 23.2524L4.92043 23.2394L4.90682 23.2269C2.31345 20.8393 1 17.522 1 13.9782C1 6.75067 6.78774 1 14.0983 1C21.4142 1 27.1819 6.74992 26.9956 13.9523Z" fill="#89C852" stroke="#326135" stroke-width="2"/>
<circle cx="14" cy="14" r="6" fill="#326135"/>
</svg>
