<svg width="16" height="16" viewBox="0 0 16 16" fill="none" xmlns="http://www.w3.org/2000/svg">
<g clip-path="url(#clip0_114_1703)">
<path d="M16.006 -0.0210724H-0.0209961V16.0059H16.006V-0.0210724Z" fill="#E11F26"/>
<path d="M6.99093 11.4985C6.9116 11.4984 6.83342 11.4795 6.76283 11.4433C6.69224 11.4071 6.63124 11.3546 6.58486 11.2903C6.53847 11.2259 6.50802 11.1515 6.49601 11.073C6.484 10.9946 6.49077 10.9145 6.51577 10.8392L8.51914 4.82906C8.56143 4.70337 8.65185 4.59959 8.77055 4.54046C8.88925 4.48133 9.02655 4.47169 9.15235 4.51364C9.27815 4.5556 9.38218 4.64573 9.44163 4.76427C9.50107 4.88281 9.51109 5.02009 9.46947 5.146L7.4661 11.1561C7.43283 11.2558 7.36905 11.3426 7.28377 11.404C7.19849 11.4654 7.09604 11.4985 6.99093 11.4985Z" fill="white"/>
<path d="M3.98557 11.4985C3.90623 11.4984 3.82806 11.4795 3.75746 11.4433C3.68687 11.4071 3.62587 11.3546 3.57949 11.2903C3.5331 11.2259 3.50265 11.1515 3.49064 11.073C3.47863 10.9946 3.4854 10.9145 3.5104 10.8392L5.51377 4.82906C5.55607 4.70337 5.64648 4.59959 5.76518 4.54046C5.88388 4.48133 6.02118 4.47169 6.14698 4.51364C6.27278 4.5556 6.37681 4.64573 6.43626 4.76427C6.49571 4.88281 6.50572 5.02009 6.46411 5.146L4.46073 11.1561C4.42746 11.2558 4.36368 11.3426 4.2784 11.404C4.19312 11.4654 4.09067 11.4985 3.98557 11.4985Z" fill="white"/>
<path d="M9.99581 11.4985C9.91648 11.4984 9.8383 11.4795 9.76771 11.4433C9.69712 11.4071 9.63612 11.3546 9.58974 11.2903C9.54336 11.2259 9.51291 11.1515 9.5009 11.073C9.48889 10.9946 9.49566 10.9145 9.52065 10.8392L11.524 4.82906C11.5661 4.70304 11.6564 4.59887 11.7753 4.53948C11.8941 4.48009 12.0316 4.47033 12.1577 4.51236C12.2837 4.55439 12.3878 4.64476 12.4472 4.76359C12.5066 4.88242 12.5164 5.01998 12.4744 5.146L10.471 11.1561C10.4377 11.2558 10.3739 11.3426 10.2886 11.404C10.2034 11.4654 10.1009 11.4985 9.99581 11.4985Z" fill="white"/>
</g>
<defs>
<clipPath id="clip0_114_1703">
<rect width="16" height="16" fill="white"/>
</clipPath>
</defs>
</svg>
